<svg width="25" height="25" viewBox="0 0 25 25" fill="none" xmlns="http://www.w3.org/2000/svg">
<g clip-path="url(#clip0_276_8561)">
<path d="M16.4062 9.76562C16.4062 9.73417 16.4024 9.70283 16.3949 9.67227C16.1557 8.71063 15.6062 7.85464 14.8315 7.23671C14.0569 6.61879 13.1001 6.27337 12.1094 6.25391V5.39687C12.3371 5.31637 12.5343 5.16749 12.6742 4.97059C12.814 4.77368 12.8896 4.53838 12.8906 4.29688V1.95312C12.8906 1.64232 12.7672 1.34425 12.5474 1.12448C12.3276 0.904715 12.0296 0.78125 11.7188 0.78125H10.1562C9.84545 0.78125 9.54738 0.904715 9.32761 1.12448C9.10784 1.34425 8.98438 1.64232 8.98438 1.95312V4.29688C8.98538 4.53838 9.06097 4.77368 9.20082 4.97059C9.34066 5.16749 9.53793 5.31637 9.76562 5.39687V6.25391C8.77515 6.27337 7.81867 6.6186 7.04409 7.23621C6.26951 7.85383 5.71998 8.70942 5.48047 9.6707C5.47269 9.70174 5.46875 9.73362 5.46875 9.76562V23.8281C5.46875 24.1389 5.59221 24.437 5.81198 24.6568C6.03175 24.8765 6.32982 25 6.64062 25H15.2344C15.5452 25 15.8432 24.8765 16.063 24.6568C16.2828 24.437 16.4062 24.1389 16.4062 23.8281V22.6562C16.4062 22.5527 16.3651 22.4533 16.2918 22.38C16.2186 22.3068 16.1192 22.2656 16.0156 22.2656C15.912 22.2656 15.8127 22.3068 15.7394 22.38C15.6662 22.4533 15.625 22.5527 15.625 22.6562V23.8281C15.625 23.9317 15.5838 24.0311 15.5106 24.1043C15.4373 24.1776 15.338 24.2188 15.2344 24.2188H6.64062C6.53702 24.2188 6.43767 24.1776 6.36441 24.1043C6.29115 24.0311 6.25 23.9317 6.25 23.8281V10.1562H8.20312C8.30673 10.1562 8.40608 10.1151 8.47934 10.0418C8.5526 9.96858 8.59375 9.86923 8.59375 9.76562C8.59375 9.66202 8.5526 9.56267 8.47934 9.48941C8.40608 9.41615 8.30673 9.375 8.20312 9.375H6.39844C6.67499 8.68278 7.15281 8.08941 7.77013 7.67159C8.38745 7.25378 9.1159 7.03072 9.86133 7.03125H12.0137C12.7591 7.03077 13.4875 7.25385 14.1048 7.67166C14.7221 8.08947 15.2 8.68281 15.4766 9.375H9.76562C9.66202 9.375 9.56267 9.41615 9.48941 9.48941C9.41615 9.56267 9.375 9.66202 9.375 9.76562C9.375 9.86923 9.41615 9.96858 9.48941 10.0418C9.56267 10.1151 9.66202 10.1562 9.76562 10.1562H15.625V21.0938H16.4062V9.76562ZM11.3281 5.46875V6.25H10.5469V5.46875H11.3281ZM9.76562 1.95312C9.76562 1.84952 9.80678 1.75017 9.88004 1.67691C9.95329 1.60366 10.0526 1.5625 10.1562 1.5625H11.7188C11.8224 1.5625 11.9217 1.60366 11.995 1.67691C12.0682 1.75017 12.1094 1.84952 12.1094 1.95312V4.29688C12.1094 4.40048 12.0682 4.49983 11.995 4.57309C11.9217 4.64634 11.8224 4.6875 11.7188 4.6875H10.1562C10.0526 4.6875 9.95329 4.64634 9.88004 4.57309C9.80678 4.49983 9.76562 4.40048 9.76562 4.29688V1.95312Z" fill="#033F2D"/>
<path d="M10.9375 14.0622C11.2449 14.0623 11.5505 14.1077 11.8446 14.197C11.9435 14.2262 12.0499 14.2151 12.1406 14.1661C12.2314 14.1172 12.2991 14.0343 12.329 13.9356C12.3589 13.8369 12.3486 13.7304 12.3003 13.6393C12.252 13.5482 12.1696 13.4799 12.0711 13.4493C11.2388 13.1961 10.3457 13.2281 9.53359 13.5404C8.72152 13.8526 8.03704 14.4272 7.5888 15.1729C7.14056 15.9186 6.95426 16.7926 7.05948 17.6563C7.1647 18.5199 7.5554 19.3237 8.16956 19.94C8.17078 19.9435 8.17278 19.9467 8.17542 19.9493C8.17806 19.952 8.18127 19.954 8.18479 19.9552C8.92428 20.6559 9.90822 21.0399 10.9268 21.0255C11.9454 21.0111 12.9181 20.5993 13.6374 19.878C14.3568 19.1566 14.7659 18.1828 14.7775 17.1642C14.7891 16.1455 14.4023 15.1627 13.6996 14.4251C13.6264 14.3519 13.527 14.3107 13.4235 14.3107C13.3199 14.3107 13.2205 14.3519 13.1473 14.4251L11.7481 15.8243C10.8696 15.1173 9.83636 14.9732 9.28011 15.5298C8.72386 16.0864 8.868 17.1196 9.57464 17.9978L8.4719 19.1013C8.11209 18.6401 7.88917 18.087 7.82859 17.5052C7.76802 16.9234 7.87222 16.3363 8.12931 15.8109C8.3864 15.2855 8.78602 14.8429 9.28257 14.5337C9.77911 14.2245 10.3526 14.0611 10.9375 14.0622ZM10.9375 20.3122C10.2438 20.3123 9.56997 20.0802 9.02347 19.6528L10.1246 18.5517C10.5634 18.9328 11.1169 19.1564 11.6973 19.1868C11.8623 19.1927 12.0268 19.1655 12.1812 19.1067C12.3355 19.0479 12.4764 18.9588 12.5957 18.8446C13.152 18.288 13.0078 17.2548 12.3012 16.3767L13.4043 15.2732C13.7634 15.7346 13.9857 16.2877 14.0458 16.8693C14.1059 17.451 14.0015 18.0378 13.7444 18.563C13.4873 19.0881 13.0879 19.5306 12.5916 19.8398C12.0954 20.1491 11.5223 20.3128 10.9375 20.3122ZM11.745 16.9321C12.1637 17.4892 12.2633 18.0712 12.0426 18.2923C11.8219 18.5134 11.2395 18.413 10.6825 17.9946L11.745 16.9321ZM9.83089 16.0821C9.92626 15.9999 10.0502 15.9587 10.1758 15.9673C10.5487 15.9979 10.9033 16.1423 11.1914 16.381L10.1301 17.4423C9.71136 16.8849 9.61175 16.3032 9.83245 16.0821H9.83089Z" fill="#033F2D"/>
<path d="M19.4895 1.20289C19.4076 0.855868 19.2096 0.547274 18.9282 0.328332C18.6468 0.109389 18.299 -0.00673259 17.9425 -0.000756935C17.586 0.00521872 17.2423 0.132932 16.9684 0.361183C16.6945 0.589433 16.5069 0.904492 16.4367 1.25406C16.406 1.44774 16.3075 1.62424 16.1589 1.75219C16.0103 1.88014 15.8211 1.95125 15.625 1.95289H14.4531C14.3495 1.95289 14.2502 1.99404 14.1769 2.0673C14.1037 2.14055 14.0625 2.23991 14.0625 2.34351C14.0625 2.44711 14.1037 2.54647 14.1769 2.61972C14.2502 2.69298 14.3495 2.73414 14.4531 2.73414H15.6437C16.0203 2.72995 16.3834 2.59318 16.6692 2.34785C16.9549 2.10253 17.1451 1.76435 17.2062 1.39273C17.2481 1.20501 17.3578 1.03935 17.5142 0.927448C17.6706 0.815549 17.8629 0.765285 18.054 0.78628C18.2452 0.807275 18.4219 0.898054 18.5503 1.04123C18.6788 1.18441 18.7499 1.36993 18.75 1.56226C18.75 1.66586 18.7912 1.76522 18.8644 1.83847C18.9377 1.91173 19.037 1.95289 19.1406 1.95289C19.4514 1.95289 19.7495 2.07635 19.9693 2.29612C20.189 2.51589 20.3125 2.81396 20.3125 3.12476C20.3125 3.43556 20.189 3.73363 19.9693 3.9534C19.7495 4.17317 19.4514 4.29664 19.1406 4.29664C19.037 4.29664 18.9377 4.33779 18.8644 4.41105C18.7912 4.4843 18.75 4.58366 18.75 4.68726C18.7501 4.80178 18.725 4.91492 18.6765 5.01867C18.628 5.12242 18.5573 5.21423 18.4694 5.28762C18.3814 5.361 18.2785 5.41416 18.1677 5.44333C18.057 5.47249 17.9412 5.47696 17.8285 5.4564C17.6756 5.42735 17.5347 5.35374 17.4235 5.24483C17.3123 5.13592 17.2357 4.99657 17.2035 4.84429C17.1406 4.47505 16.9499 4.13967 16.6648 3.89676C16.3797 3.65385 16.0183 3.51886 15.6437 3.51539H15.625C15.5742 3.51558 15.5239 3.52589 15.4772 3.54571C15.4304 3.56552 15.388 3.59446 15.3525 3.63081C15.317 3.66717 15.2891 3.71023 15.2705 3.75748C15.2518 3.80472 15.2427 3.85522 15.2437 3.90601C15.2459 4.01056 15.289 4.11009 15.3638 4.18315C15.4387 4.25621 15.5392 4.29697 15.6437 4.29664C15.8406 4.30338 16.0287 4.37961 16.1747 4.51182C16.3207 4.64403 16.4152 4.82368 16.4414 5.0189C16.507 5.32191 16.6613 5.59855 16.8846 5.81363C17.1078 6.02871 17.3901 6.1725 17.6953 6.22671C17.7842 6.24193 17.8743 6.24964 17.9645 6.24976C18.3169 6.2504 18.6591 6.13189 18.9357 5.91348C19.2122 5.69507 19.4068 5.38959 19.4879 5.04664C19.9382 4.9651 20.3456 4.72802 20.639 4.37677C20.9323 4.02552 21.093 3.5824 21.093 3.12476C21.093 2.66712 20.9323 2.224 20.639 1.87275C20.3456 1.5215 19.9382 1.28442 19.4879 1.20289H19.4895Z" fill="#033F2D"/>
</g>
<defs>
<clipPath id="clip0_276_8561">
<rect width="25" height="25" fill="white"/>
</clipPath>
</defs>
</svg>
