<svg width="50" height="50" viewBox="0 0 50 50" fill="none" xmlns="http://www.w3.org/2000/svg">
<g clip-path="url(#clip0_276_9139)">
<path d="M30.6254 7.79703C30.7259 7.77651 30.8215 7.73639 30.9065 7.67896C30.9915 7.62153 31.0644 7.54791 31.121 7.4623C31.1776 7.3767 31.2168 7.28079 31.2363 7.18005C31.2558 7.0793 31.2553 6.9757 31.2348 6.87516C31.2143 6.77462 31.1741 6.6791 31.1167 6.59406C31.0593 6.50902 30.9856 6.43613 30.9 6.37955C30.8144 6.32296 30.7185 6.28379 30.6178 6.26427C30.517 6.24475 30.4134 6.24527 30.3129 6.26578C29.2195 6.48495 28.1832 6.92772 27.269 7.56631C26.3548 8.2049 25.5825 9.02553 25.0004 9.97672C24.4185 9.02541 23.6462 8.20469 22.732 7.56608C21.8177 6.92747 20.7814 6.48477 19.6879 6.26578C19.4848 6.22434 19.2736 6.26527 19.1008 6.37955C18.9279 6.49383 18.8075 6.6721 18.766 6.87516C18.7246 7.07822 18.7655 7.28942 18.8798 7.4623C18.9941 7.63519 19.1723 7.75559 19.3754 7.79703C20.3106 7.98243 21.1941 8.36981 21.9641 8.93211C22.7341 9.49441 23.372 10.2181 23.8332 11.0525C22.1098 11.3767 21.0941 12.4431 21.0941 14.0627C21.048 15.3846 21.5035 16.675 22.3691 17.6752C21.8407 17.9604 21.3856 18.364 21.0393 18.8545C20.6929 19.3451 20.4649 19.9091 20.3731 20.5025C18.0066 21.2595 8.01524 24.5955 5.63477 27.6439C5.31211 28.1066 5.11863 28.6469 5.07428 29.2093C5.02992 29.7716 5.13629 30.3356 5.38243 30.8431C5.74102 31.5791 6.73712 32.8127 9.3754 32.8127C14.6809 32.8127 18.627 27.2798 20.5371 23.915C20.6037 24.1085 20.6846 24.2968 20.7793 24.4783C20.8263 24.5709 20.8912 24.6532 20.9704 24.7204C21.0495 24.7876 21.1413 24.8383 21.2403 24.8696C21.3393 24.901 21.4435 24.9122 21.5469 24.9028C21.6503 24.8934 21.7508 24.8635 21.8425 24.8147C21.9342 24.766 22.0152 24.6996 22.0809 24.6192C22.1466 24.5388 22.1957 24.4461 22.2251 24.3465C22.2546 24.247 22.2639 24.1425 22.2526 24.0393C22.2412 23.9361 22.2094 23.8362 22.159 23.7455C21.9761 23.4114 21.8786 23.0373 21.8754 22.6564V21.0939C21.8754 20.4723 22.1223 19.8762 22.5619 19.4366C23.0014 18.9971 23.5975 18.7502 24.2191 18.7502H25.7816C26.1625 18.7535 26.5366 18.8509 26.8707 19.0338C27.0487 19.1125 27.2496 19.1221 27.4343 19.0605C27.6189 18.9989 27.7739 18.8706 27.8689 18.7007C27.9639 18.5309 27.992 18.3317 27.9479 18.1421C27.9037 17.9526 27.7904 17.7863 27.6301 17.6759C28.4966 16.6759 28.9527 15.3851 28.9066 14.0627C28.9066 12.4431 27.891 11.3767 26.1645 11.0525C26.6261 10.2178 27.2645 9.49395 28.0351 8.93164C28.8056 8.36934 29.6896 7.98211 30.6254 7.79703ZM9.3754 31.2502C8.03009 31.2502 7.13477 30.8728 6.78712 30.1564C6.67066 29.9113 6.61684 29.6411 6.63047 29.37C6.64411 29.0989 6.72477 28.8355 6.86524 28.6033C8.53555 26.4642 15.502 23.7806 19.5723 22.4064C17.9981 25.3478 14.2301 31.2502 9.3754 31.2502ZM27.3441 14.0627C27.3441 14.5845 27.2309 17.1877 25.0004 17.1877C22.7699 17.1877 22.6566 14.5845 22.6566 14.0627C22.6566 13.672 22.6566 12.5002 25.0004 12.5002C27.3441 12.5002 27.3441 13.6759 27.3441 14.0627Z" fill="#C7F268"/>
<path d="M34.6039 8.82282L33.0414 10.3853C32.8949 10.5318 32.8125 10.7305 32.8125 10.9377V12.5002C32.8125 12.7074 32.8948 12.9061 33.0413 13.0526C33.1878 13.1991 33.3865 13.2814 33.5937 13.2814C33.801 13.2814 33.9997 13.1991 34.1462 13.0526C34.2927 12.9061 34.375 12.7074 34.375 12.5002V11.2611L35.7086 9.92751C35.8509 9.78016 35.9297 9.58282 35.9279 9.37798C35.9261 9.17314 35.8439 8.97719 35.6991 8.83234C35.5542 8.68749 35.3583 8.60533 35.1534 8.60355C34.9486 8.60177 34.7513 8.68051 34.6039 8.82282Z" fill="#C7F268"/>
<path d="M16.9586 10.3853L15.3961 8.82282C15.2487 8.68051 15.0514 8.60177 14.8465 8.60355C14.6417 8.60533 14.4458 8.68749 14.3009 8.83234C14.1561 8.97719 14.0739 9.17314 14.0721 9.37798C14.0703 9.58282 14.1491 9.78016 14.2914 9.92751L15.625 11.2611V14.0627C15.625 14.2698 15.7074 14.4685 15.8539 14.615L18.9789 17.74C19.1262 17.8823 19.3236 17.9611 19.5284 17.9593C19.7333 17.9575 19.9292 17.8753 20.0741 17.7305C20.2189 17.5856 20.3011 17.3897 20.3029 17.1849C20.3046 16.98 20.2259 16.7827 20.0836 16.6353L17.1875 13.7392V10.9377C17.1874 10.7305 17.1051 10.5318 16.9586 10.3853Z" fill="#C7F268"/>
<path d="M34.375 38.7392V33.5939C34.3747 33.4396 34.3291 33.2888 34.2437 33.1603L32.6812 30.8165C32.5662 30.6441 32.3875 30.5245 32.1843 30.4839C31.981 30.4433 31.77 30.4851 31.5976 30.6001C31.4252 30.7151 31.3056 30.8939 31.265 31.0971C31.2244 31.3003 31.2662 31.5113 31.3812 31.6837L32.8125 33.8282V39.0626C32.8125 39.2698 32.8949 39.4685 33.0414 39.6149L36.1664 42.7399C36.3137 42.8823 36.5111 42.961 36.7159 42.9592C36.9208 42.9574 37.1167 42.8753 37.2616 42.7304C37.4064 42.5856 37.4886 42.3896 37.4904 42.1848C37.4921 41.9799 37.4134 41.7826 37.2711 41.6353L34.375 38.7392Z" fill="#C7F268"/>
<path d="M28.0427 25.4416C27.9425 25.4646 27.8479 25.507 27.7642 25.5666C27.6805 25.6261 27.6094 25.7016 27.5549 25.7887C27.5004 25.8758 27.4636 25.9727 27.4466 26.074C27.4296 26.1754 27.4328 26.279 27.456 26.3791C27.9151 28.4925 28.1397 30.6501 28.1255 32.8127C28.1366 36.0759 27.0342 39.2452 25.0005 41.7971C23.068 39.371 21.9775 36.382 21.8935 33.2815C21.8902 33.1789 21.8668 33.0779 21.8246 32.9844C21.7823 32.8908 21.7221 32.8065 21.6472 32.7362C21.5724 32.666 21.4845 32.6111 21.3884 32.5749C21.2924 32.5386 21.1902 32.5216 21.0876 32.5248C20.985 32.528 20.884 32.5515 20.7905 32.5937C20.6969 32.6359 20.6126 32.6962 20.5424 32.771C20.4721 32.8459 20.4173 32.9338 20.381 33.0298C20.3447 33.1259 20.3277 33.2281 20.331 33.3307C20.3979 37.126 21.8699 40.7617 24.4622 43.5346C24.6073 43.6717 24.7993 43.7481 24.9989 43.7481C25.1985 43.7481 25.3906 43.6717 25.5356 43.5346C28.2576 40.6342 29.7464 36.7899 29.688 32.8127C29.7024 30.532 29.4645 28.2567 28.9786 26.0283C28.9323 25.8264 28.8076 25.6512 28.6321 25.5412C28.4566 25.4312 28.2446 25.3953 28.0427 25.4416Z" fill="#C7F268"/>
<path d="M44.3653 27.6447C42.627 25.4182 36.9434 23.058 32.4754 21.4729C32.2801 21.4035 32.0653 21.4145 31.8781 21.5035C31.6909 21.5925 31.5468 21.7522 31.4774 21.9475C31.408 22.1428 31.419 22.3576 31.508 22.5448C31.597 22.732 31.7567 22.8761 31.952 22.9455C37.8996 25.0611 41.9754 27.126 43.134 28.6104C43.275 28.8422 43.356 29.1056 43.3696 29.3766C43.3833 29.6477 43.3291 29.9178 43.2121 30.1627C42.8653 30.8729 41.9699 31.2502 40.6246 31.2502C36.2778 31.2502 32.7879 26.4565 31.0934 23.5986C31.0411 23.5104 30.9719 23.4332 30.8897 23.3717C30.8076 23.3102 30.7142 23.2654 30.6147 23.24C30.5153 23.2146 30.4119 23.209 30.3103 23.2235C30.2087 23.2381 30.111 23.2725 30.0227 23.3248C29.9344 23.3771 29.8573 23.4463 29.7957 23.5285C29.7342 23.6106 29.6894 23.704 29.664 23.8035C29.6386 23.9029 29.633 24.0063 29.6475 24.1079C29.6621 24.2095 29.6965 24.3072 29.7489 24.3955C32.0254 28.2354 35.759 32.8127 40.6246 32.8127C43.2629 32.8127 44.259 31.5791 44.6176 30.8432C44.8637 30.3358 44.9701 29.7719 44.9258 29.2097C44.8814 28.6475 44.6879 28.1073 44.3653 27.6447Z" fill="#C7F268"/>
<path d="M17.1871 35.9375C16.9799 35.9375 16.7812 36.0198 16.6347 36.1663C16.4882 36.3128 16.4058 36.5115 16.4058 36.7188V38.7391L13.5097 41.6352C13.4351 41.7072 13.3756 41.7934 13.3347 41.8887C13.2937 41.9841 13.2722 42.0866 13.2713 42.1903C13.2704 42.294 13.2901 42.3969 13.3294 42.4929C13.3687 42.5889 13.4267 42.6762 13.5001 42.7495C13.5734 42.8229 13.6606 42.8809 13.7567 42.9202C13.8527 42.9595 13.9555 42.9792 14.0593 42.9783C14.163 42.9774 14.2655 42.9559 14.3608 42.9149C14.4562 42.874 14.5424 42.8145 14.6144 42.7398L17.7394 39.6148C17.886 39.4684 17.9683 39.2697 17.9683 39.0625V36.7188C17.9683 36.5115 17.886 36.3128 17.7395 36.1663C17.593 36.0198 17.3943 35.9375 17.1871 35.9375Z" fill="#C7F268"/>
<path d="M42.6774 7.32276C42.5309 7.1763 42.3322 7.09402 42.1251 7.09402C41.9179 7.09402 41.7192 7.1763 41.5727 7.32276L7.89615 40.9993C3.88565 36.7147 1.62935 31.0809 1.57362 25.2124C1.51788 19.3439 3.66677 13.6682 7.59517 9.30818C11.5236 4.94815 16.9453 2.22134 22.7879 1.66721C28.6304 1.11307 34.4681 2.77197 39.1461 6.31573C39.2277 6.37933 39.3211 6.42609 39.4209 6.45331C39.5207 6.48052 39.625 6.48764 39.7275 6.47426C39.8301 6.46088 39.929 6.42726 40.0185 6.37535C40.108 6.32344 40.1862 6.25428 40.2488 6.17188C40.3113 6.08948 40.3569 5.99548 40.3828 5.89533C40.4087 5.79519 40.4145 5.69089 40.3998 5.58849C40.3851 5.4861 40.3502 5.38764 40.2971 5.29884C40.2441 5.21004 40.1739 5.13266 40.0907 5.0712C35.7553 1.7668 30.4512 -0.0156095 25.0001 0.000102999C20.061 -0.00256731 15.2319 1.45859 11.1228 4.199C7.01374 6.93941 3.80899 10.8361 1.91338 15.397C0.0177786 19.9578 -0.483641 24.9781 0.472465 29.8237C1.42857 34.6694 3.79931 39.123 7.28521 42.622C7.30006 42.6399 7.30631 42.661 7.32271 42.6774C7.33912 42.6939 7.36021 42.7001 7.37818 42.7149C12.0793 47.3571 18.4273 49.9491 25.034 49.924C31.6409 49.8989 37.9689 47.2588 42.6346 42.581C47.3003 37.9032 49.924 31.5683 49.932 24.9615C49.9401 18.3546 47.3317 12.0134 42.6774 7.32432V7.32276ZM25.0001 48.4376C19.055 48.4409 13.3328 46.1756 9.00084 42.104L42.1094 8.99307C45.2318 12.3284 47.311 16.5039 48.0911 21.0056C48.8712 25.5074 48.3182 30.139 46.5001 34.3305C44.682 38.522 41.6781 42.0905 37.8582 44.5969C34.0383 47.1034 29.5689 48.4384 25.0001 48.4376Z" fill="#C7F268"/>
</g>
<defs>
<clipPath id="clip0_276_9139">
<rect width="50" height="50" fill="white"/>
</clipPath>
</defs>
</svg>
