<svg width="25" height="25" viewBox="0 0 25 25" fill="none" xmlns="http://www.w3.org/2000/svg">
<g clip-path="url(#clip0_409_19212)">
<path d="M16.4062 9.76562C16.4062 9.73417 16.4024 9.70283 16.3949 9.67227C16.1557 8.71063 15.6062 7.85464 14.8315 7.23671C14.0569 6.61879 13.1001 6.27337 12.1094 6.25391V5.39687C12.3371 5.31637 12.5343 5.16749 12.6742 4.97059C12.814 4.77368 12.8896 4.53838 12.8906 4.29688V1.95312C12.8906 1.64232 12.7672 1.34425 12.5474 1.12448C12.3276 0.904715 12.0296 0.78125 11.7188 0.78125H10.1562C9.84545 0.78125 9.54738 0.904715 9.32761 1.12448C9.10784 1.34425 8.98438 1.64232 8.98438 1.95312V4.29688C8.98538 4.53838 9.06097 4.77368 9.20082 4.97059C9.34066 5.16749 9.53793 5.31637 9.76562 5.39687V6.25391C8.77515 6.27337 7.81867 6.6186 7.04409 7.23621C6.26951 7.85383 5.71998 8.70942 5.48047 9.6707C5.47269 9.70174 5.46875 9.73362 5.46875 9.76562V23.8281C5.46875 24.1389 5.59221 24.437 5.81198 24.6568C6.03175 24.8765 6.32982 25 6.64062 25H15.2344C15.5452 25 15.8432 24.8765 16.063 24.6568C16.2828 24.437 16.4062 24.1389 16.4062 23.8281V22.6562C16.4062 22.5527 16.3651 22.4533 16.2918 22.38C16.2186 22.3068 16.1192 22.2656 16.0156 22.2656C15.912 22.2656 15.8127 22.3068 15.7394 22.38C15.6662 22.4533 15.625 22.5527 15.625 22.6562V23.8281C15.625 23.9317 15.5838 24.0311 15.5106 24.1043C15.4373 24.1776 15.338 24.2188 15.2344 24.2188H6.64062C6.53702 24.2188 6.43767 24.1776 6.36441 24.1043C6.29115 24.0311 6.25 23.9317 6.25 23.8281V10.1562H8.20312C8.30673 10.1562 8.40608 10.1151 8.47934 10.0418C8.5526 9.96858 8.59375 9.86923 8.59375 9.76562C8.59375 9.66202 8.5526 9.56267 8.47934 9.48941C8.40608 9.41615 8.30673 9.375 8.20312 9.375H6.39844C6.67499 8.68278 7.15281 8.08941 7.77013 7.67159C8.38745 7.25378 9.1159 7.03072 9.86133 7.03125H12.0137C12.7591 7.03077 13.4875 7.25385 14.1048 7.67166C14.7221 8.08947 15.2 8.68281 15.4766 9.375H9.76562C9.66202 9.375 9.56267 9.41615 9.48941 9.48941C9.41615 9.56267 9.375 9.66202 9.375 9.76562C9.375 9.86923 9.41615 9.96858 9.48941 10.0418C9.56267 10.1151 9.66202 10.1562 9.76562 10.1562H15.625V21.0938H16.4062V9.76562ZM11.3281 5.46875V6.25H10.5469V5.46875H11.3281ZM9.76562 1.95312C9.76562 1.84952 9.80678 1.75017 9.88004 1.67691C9.95329 1.60366 10.0526 1.5625 10.1562 1.5625H11.7188C11.8224 1.5625 11.9217 1.60366 11.995 1.67691C12.0682 1.75017 12.1094 1.84952 12.1094 1.95312V4.29688C12.1094 4.40048 12.0682 4.49983 11.995 4.57309C11.9217 4.64634 11.8224 4.6875 11.7188 4.6875H10.1562C10.0526 4.6875 9.95329 4.64634 9.88004 4.57309C9.80678 4.49983 9.76562 4.40048 9.76562 4.29688V1.95312Z" fill="#033F2D"/>
<path d="M10.9375 14.0625C11.2448 14.0625 11.5504 14.108 11.8445 14.1972C11.9434 14.2264 12.0498 14.2153 12.1406 14.1664C12.2313 14.1174 12.299 14.0346 12.3289 13.9359C12.3589 13.8372 12.3485 13.7307 12.3002 13.6396C12.2519 13.5485 12.1695 13.4802 12.0711 13.4496C11.2387 13.1963 10.3456 13.2284 9.53353 13.5406C8.72146 13.8529 8.03697 14.4275 7.58874 15.1732C7.1405 15.9188 6.9542 16.7929 7.05942 17.6565C7.16464 18.5202 7.55534 19.3239 8.1695 19.9402C8.17072 19.9437 8.17272 19.9469 8.17536 19.9496C8.178 19.9522 8.18121 19.9542 8.18473 19.9554C8.92422 20.6561 9.90816 21.0402 10.9268 21.0257C11.9454 21.0113 12.918 20.5995 13.6374 19.8782C14.3567 19.1569 14.7658 18.1831 14.7774 17.1644C14.7891 16.1458 14.4023 15.1629 13.6996 14.4254C13.6263 14.3521 13.527 14.311 13.4234 14.311C13.3198 14.311 13.2205 14.3521 13.1472 14.4254L11.748 15.8246C10.8695 15.1175 9.8363 14.9734 9.28005 15.53C8.7238 16.0867 8.86794 17.1199 9.57458 17.998L8.47184 19.1015C8.11203 18.6403 7.88911 18.0873 7.82853 17.5055C7.76795 16.9237 7.87216 16.3366 8.12925 15.8111C8.38634 15.2857 8.78596 14.8432 9.28251 14.534C9.77905 14.2248 10.3525 14.0614 10.9375 14.0625ZM10.9375 20.3125C10.2437 20.3126 9.56991 20.0804 9.02341 19.6531L10.1246 18.5519C10.5633 18.9331 11.1169 19.1566 11.6972 19.1871C11.8623 19.193 12.0268 19.1657 12.1811 19.107C12.3354 19.0482 12.4764 18.9591 12.5957 18.8449C13.1519 18.2882 13.0078 17.255 12.3011 16.3769L13.4043 15.2734C13.7634 15.7349 13.9856 16.2879 14.0458 16.8696C14.1059 17.4512 14.0015 18.038 13.7444 18.5632C13.4873 19.0884 13.0878 19.5308 12.5916 19.8401C12.0953 20.1493 11.5222 20.313 10.9375 20.3125ZM11.7449 16.9324C12.1636 17.4894 12.2632 18.0714 12.0425 18.2925C11.8218 18.5136 11.2394 18.4132 10.6824 17.9949L11.7449 16.9324ZM9.83083 16.0824C9.9262 16.0002 10.0501 15.9589 10.1757 15.9675C10.5487 15.9981 10.9032 16.1425 11.1914 16.3812L10.13 17.4425C9.7113 16.8851 9.61169 16.3035 9.83239 16.0824H9.83083Z" fill="#033F2D"/>
<path d="M19.4895 1.20313C19.4076 0.856112 19.2096 0.547518 18.9282 0.328576C18.6468 0.109633 18.299 -0.00648845 17.9425 -0.000512795C17.586 0.00546286 17.2423 0.133176 16.9684 0.361427C16.6945 0.589677 16.5069 0.904736 16.4367 1.2543C16.406 1.44798 16.3075 1.62448 16.1589 1.75243C16.0103 1.88038 15.8211 1.95149 15.625 1.95313H14.4531C14.3495 1.95313 14.2502 1.99428 14.1769 2.06754C14.1037 2.1408 14.0625 2.24015 14.0625 2.34375C14.0625 2.44736 14.1037 2.54671 14.1769 2.61997C14.2502 2.69322 14.3495 2.73438 14.4531 2.73438H15.6437C16.0203 2.73019 16.3834 2.59342 16.6692 2.3481C16.9549 2.10277 17.1451 1.76459 17.2062 1.39297C17.2481 1.20526 17.3578 1.03959 17.5142 0.927692C17.6706 0.815794 17.8629 0.765529 18.054 0.786525C18.2452 0.80752 18.4219 0.898298 18.5503 1.04148C18.6788 1.18466 18.7499 1.37017 18.75 1.5625C18.75 1.66611 18.7912 1.76546 18.8644 1.83872C18.9377 1.91197 19.037 1.95313 19.1406 1.95313C19.4514 1.95313 19.7495 2.07659 19.9693 2.29636C20.189 2.51613 20.3125 2.8142 20.3125 3.125C20.3125 3.43581 20.189 3.73388 19.9693 3.95365C19.7495 4.17341 19.4514 4.29688 19.1406 4.29688C19.037 4.29688 18.9377 4.33804 18.8644 4.41129C18.7912 4.48455 18.75 4.5839 18.75 4.6875C18.7501 4.80203 18.725 4.91517 18.6765 5.01891C18.628 5.12266 18.5573 5.21448 18.4694 5.28786C18.3814 5.36125 18.2785 5.4144 18.1677 5.44357C18.057 5.47274 17.9412 5.4772 17.8285 5.45665C17.6756 5.42759 17.5347 5.35399 17.4235 5.24508C17.3123 5.13617 17.2357 4.99682 17.2035 4.84454C17.1406 4.4753 16.9499 4.13991 16.6648 3.897C16.3797 3.65409 16.0183 3.5191 15.6437 3.51563H15.625C15.5742 3.51583 15.5239 3.52613 15.4772 3.54595C15.4304 3.56577 15.388 3.5947 15.3525 3.63106C15.317 3.66742 15.2891 3.71047 15.2705 3.75772C15.2518 3.80497 15.2427 3.85546 15.2437 3.90625C15.2459 4.01081 15.289 4.11033 15.3638 4.18339C15.4387 4.25645 15.5392 4.29721 15.6437 4.29688C15.8406 4.30362 16.0287 4.37986 16.1747 4.51207C16.3207 4.64428 16.4152 4.82392 16.4414 5.01915C16.507 5.32215 16.6613 5.5988 16.8846 5.81388C17.1078 6.02895 17.3901 6.17275 17.6953 6.22696C17.7842 6.24217 17.8743 6.24988 17.9645 6.25C18.3169 6.25064 18.6591 6.13213 18.9357 5.91373C19.2122 5.69532 19.4068 5.38983 19.4879 5.04688C19.9382 4.96534 20.3456 4.72826 20.639 4.37701C20.9323 4.02576 21.093 3.58265 21.093 3.125C21.093 2.66736 20.9323 2.22425 20.639 1.873C20.3456 1.52175 19.9382 1.28467 19.4879 1.20313H19.4895Z" fill="#033F2D"/>
</g>
<defs>
<clipPath id="clip0_409_19212">
<rect width="25" height="25" fill="white"/>
</clipPath>
</defs>
</svg>
