<svg width="40" height="40" viewBox="0 0 40 40" fill="none" xmlns="http://www.w3.org/2000/svg">
<path d="M28.2087 18.7588L22.95 16.2775C22.6291 16.1251 22.3578 15.885 22.1676 15.585C21.9774 15.2849 21.8759 14.9371 21.875 14.5819V8.38375L25.2588 5H26.25V11.1431C25.8847 11.0134 25.5684 10.7738 25.3447 10.4573C25.1209 10.1407 25.0005 9.76267 25 9.375C25 9.20924 24.9342 9.05027 24.8169 8.93306C24.6997 8.81585 24.5408 8.75 24.375 8.75C24.2092 8.75 24.0503 8.81585 23.9331 8.93306C23.8158 9.05027 23.75 9.20924 23.75 9.375C23.751 10.2035 24.0806 10.9978 24.6664 11.5836C25.2522 12.1694 26.0465 12.499 26.875 12.5C27.0408 12.5 27.1997 12.4342 27.3169 12.3169C27.4342 12.1997 27.5 12.0408 27.5 11.875V5H28.75C28.9158 5 29.0747 4.93415 29.1919 4.81694C29.3092 4.69973 29.375 4.54076 29.375 4.375V0.625C29.375 0.45924 29.3092 0.300269 29.1919 0.183058C29.0747 0.065848 28.9158 0 28.75 0L16.7575 0C16.2646 0.000524494 15.7787 0.117221 15.3394 0.340625L10.9644 2.56813C10.862 2.62071 10.7762 2.70053 10.7163 2.79879C10.6564 2.89705 10.6248 3.00993 10.625 3.125V5.625C10.625 5.79076 10.6908 5.94973 10.8081 6.06694C10.9253 6.18415 11.0842 6.25 11.25 6.25C12.3926 6.25463 13.4877 6.70745 14.2999 7.5111C15.1121 8.31475 15.5764 9.40504 15.5931 10.5475L15.62 11.6862L10.5575 18.9988C10.1939 19.5218 9.99936 20.1436 10 20.7806V31.875C10 32.0408 10.0658 32.1997 10.1831 32.3169C10.3003 32.4342 10.4592 32.5 10.625 32.5C10.7908 32.5 10.9497 32.4342 11.0669 32.3169C11.1842 32.1997 11.25 32.0408 11.25 31.875V20.7806C11.2497 20.3994 11.3659 20.0271 11.5831 19.7137L16.5775 12.5H20.625V14.5819C20.6265 15.174 20.7955 15.7535 21.1125 16.2537C21.4295 16.7538 21.8815 17.154 22.4163 17.4081L27.675 19.8888C27.9959 20.0413 28.2672 20.2815 28.4574 20.5817C28.6476 20.8818 28.749 21.2297 28.75 21.585V36.875C28.75 37.3723 28.5525 37.8492 28.2008 38.2008C27.8492 38.5525 27.3723 38.75 26.875 38.75H13.125C12.6277 38.75 12.1508 38.5525 11.7992 38.2008C11.4475 37.8492 11.25 37.3723 11.25 36.875V34.375C11.25 34.2092 11.1842 34.0503 11.0669 33.9331C10.9497 33.8158 10.7908 33.75 10.625 33.75C10.4592 33.75 10.3003 33.8158 10.1831 33.9331C10.0658 34.0503 10 34.2092 10 34.375V36.875C10.001 37.7035 10.3306 38.4978 10.9164 39.0836C11.5022 39.6694 12.2965 39.999 13.125 40H26.875C27.7035 39.999 28.4978 39.6694 29.0836 39.0836C29.6694 38.4978 29.999 37.7035 30 36.875V21.585C29.9985 20.9929 29.8296 20.4133 29.5126 19.9132C29.1956 19.413 28.7436 19.0128 28.2087 18.7588ZM28.125 3.75H25.625V1.25H28.125V3.75ZM16.8606 11.25L16.8431 10.525C16.8212 9.16317 16.3053 7.85568 15.3914 6.8458C14.4775 5.83591 13.2279 5.1924 11.875 5.035V3.50812L15.9063 1.45437C16.1701 1.32048 16.4617 1.25047 16.7575 1.25H24.375V4.11625L20.8081 7.68313C20.6909 7.80031 20.625 7.95925 20.625 8.125V11.25H16.8606Z" fill="#033F2D"/>
<path d="M20.0005 23.7499C20.4924 23.7502 20.9816 23.8228 21.4523 23.9655C21.6096 24.0087 21.7774 23.9888 21.9202 23.9099C22.0629 23.8311 22.1691 23.6996 22.2163 23.5435C22.2634 23.3874 22.2477 23.2191 22.1725 23.0745C22.0972 22.9298 21.9684 22.8203 21.8136 22.7692C20.4822 22.3643 19.0536 22.4157 17.7547 22.9151C16.4557 23.4145 15.3608 24.3334 14.6435 25.526C13.9263 26.7185 13.6278 28.1165 13.7955 29.498C13.9632 30.8795 14.5875 32.1654 15.5692 33.1517C15.5742 33.1567 15.5755 33.1642 15.5811 33.1692C15.5867 33.1742 15.5936 33.1761 15.5986 33.1811C16.7821 34.3019 18.3566 34.916 19.9864 34.8924C21.6161 34.8689 23.1723 34.2096 24.3229 33.0552C25.4735 31.9007 26.1276 30.3424 26.1457 28.7125C26.1639 27.0827 25.5445 25.5102 24.4198 24.3305C24.3026 24.2133 24.1437 24.1475 23.978 24.1475C23.8122 24.1475 23.6533 24.2133 23.5361 24.3305L21.2998 26.5667C20.7815 26.1359 20.1769 25.8211 19.5267 25.6436C19.1588 25.4994 18.7569 25.4656 18.3701 25.5464C17.9833 25.6272 17.6284 25.819 17.349 26.0984C17.0696 26.3778 16.8778 26.7327 16.797 27.1195C16.7162 27.5063 16.75 27.9082 16.8942 28.2761C17.0717 28.9263 17.3865 29.5309 17.8173 30.0492L16.0555 31.8124C15.4798 31.0745 15.1231 30.1896 15.0262 29.2587C14.9293 28.3278 15.096 27.3884 15.5073 26.5478C15.9187 25.7071 16.5581 24.999 17.3525 24.5043C18.147 24.0095 19.0646 23.7481 20.0005 23.7499ZM20.0005 33.7499C18.8905 33.75 17.8124 33.3786 16.938 32.6949L18.6998 30.933C19.2182 31.3638 19.8228 31.6786 20.473 31.8561C20.713 31.9173 20.9596 31.949 21.2073 31.9505C21.4723 31.9596 21.7365 31.9156 21.9843 31.8213C22.2321 31.727 22.4586 31.5841 22.6505 31.4011C22.91 31.1096 23.0886 30.7551 23.1684 30.3731C23.2482 29.991 23.2265 29.5947 23.1055 29.2236C22.928 28.5734 22.6132 27.9688 22.1823 27.4505L23.9473 25.6874C24.5219 26.4257 24.8775 27.3106 24.9737 28.2412C25.0699 29.1719 24.9028 30.1108 24.4915 30.9511C24.0801 31.7914 23.4411 32.4992 22.6471 32.9941C21.8531 33.4889 20.936 33.7508 20.0005 33.7499ZM21.2923 28.3417C21.5682 28.6935 21.7727 29.0959 21.8942 29.5261C21.9573 29.6887 21.9789 29.8645 21.9571 30.0376C21.9353 30.2106 21.8707 30.3755 21.7692 30.5174C21.6271 30.6184 21.4623 30.6827 21.2893 30.7045C21.1164 30.7263 20.9407 30.705 20.778 30.6424C20.3477 30.5208 19.9454 30.3164 19.5936 30.0405L21.2923 28.3417ZM18.1048 27.9736C18.0418 27.811 18.0202 27.6352 18.042 27.4622C18.0638 27.2891 18.1284 27.1242 18.2298 26.9824C18.3824 26.8492 18.5815 26.7818 18.7836 26.7949C18.9313 26.7966 19.0782 26.8163 19.2211 26.8536C19.6513 26.9752 20.0537 27.1796 20.4055 27.4555L18.7055 29.1555C18.431 28.8042 18.2276 28.4027 18.1067 27.9736H18.1048Z" fill="#033F2D"/>
</svg>
