<svg width="40" height="40" viewBox="0 0 40 40" fill="none" xmlns="http://www.w3.org/2000/svg">
<g clip-path="url(#clip0_471_335)">
<path d="M16.25 16.25C17.907 16.2482 19.4957 15.5891 20.6674 14.4174C21.8391 13.2457 22.4982 11.657 22.5 10V6.25H24.375C24.5408 6.25 24.6997 6.18415 24.8169 6.06694C24.9342 5.94973 25 5.79076 25 5.625C25 5.45924 24.9342 5.30027 24.8169 5.18306C24.6997 5.06585 24.5408 5 24.375 5H22.5V4.375C22.4987 3.21508 22.0373 2.10305 21.2171 1.28287C20.3969 0.462684 19.2849 0.00132335 18.125 0L14.375 0C13.2151 0.00132335 12.1031 0.462684 11.2829 1.28287C10.4627 2.10305 10.0013 3.21508 10 4.375V10C10.0018 11.657 10.6609 13.2457 11.8326 14.4174C13.0043 15.5891 14.593 16.2482 16.25 16.25ZM11.25 6.25H21.25V8.59625L16.3856 7.515C16.2963 7.495 16.2037 7.495 16.1144 7.515L11.25 8.59625V6.25ZM11.25 4.375C11.251 3.5465 11.5806 2.75222 12.1664 2.16639C12.7522 1.58055 13.5465 1.25099 14.375 1.25H18.125C18.9535 1.25099 19.7478 1.58055 20.3336 2.16639C20.9194 2.75222 21.249 3.5465 21.25 4.375V5H11.25V4.375ZM11.25 9.875L16.25 8.76375L21.25 9.875V10C21.25 11.3261 20.7232 12.5979 19.7855 13.5355C18.8479 14.4732 17.5761 15 16.25 15C14.9239 15 13.6521 14.4732 12.7145 13.5355C11.7768 12.5979 11.25 11.3261 11.25 10V9.875Z" fill="#033F2D"/>
<path d="M3.75 35H1.875C1.70924 35 1.55027 34.9342 1.43306 34.8169C1.31585 34.6997 1.25 34.5408 1.25 34.375V15.625C1.25 15.4592 1.31585 15.3003 1.43306 15.1831C1.55027 15.0658 1.70924 15 1.875 15H5.625C5.79076 15 5.94973 15.0658 6.06694 15.1831C6.18415 15.3003 6.25 15.4592 6.25 15.625C6.25 15.7908 6.31585 15.9497 6.43306 16.0669C6.55027 16.1842 6.70924 16.25 6.875 16.25C7.04076 16.25 7.19973 16.1842 7.31694 16.0669C7.43415 15.9497 7.5 15.7908 7.5 15.625C7.5 15.1277 7.30246 14.6508 6.95083 14.2992C6.59919 13.9475 6.12228 13.75 5.625 13.75H4.375V12.5H5C5.49728 12.5 5.97419 12.3025 6.32583 11.9508C6.67746 11.5992 6.875 11.1223 6.875 10.625V9.375C6.875 8.87772 6.67746 8.40081 6.32583 8.04917C5.97419 7.69754 5.49728 7.5 5 7.5H2.5C2.00272 7.5 1.52581 7.69754 1.17417 8.04917C0.822544 8.40081 0.625 8.87772 0.625 9.375V10.625C0.625 11.1223 0.822544 11.5992 1.17417 11.9508C1.52581 12.3025 2.00272 12.5 2.5 12.5H3.125V13.75H1.875C1.37772 13.75 0.900805 13.9475 0.549175 14.2992C0.197544 14.6508 0 15.1277 0 15.625L0 34.375C0 34.8723 0.197544 35.3492 0.549175 35.7008C0.900805 36.0525 1.37772 36.25 1.875 36.25H3.75C3.91576 36.25 4.07473 36.1842 4.19194 36.0669C4.30915 35.9497 4.375 35.7908 4.375 35.625C4.375 35.4592 4.30915 35.3003 4.19194 35.1831C4.07473 35.0658 3.91576 35 3.75 35ZM1.875 10.625V9.375C1.875 9.20924 1.94085 9.05027 2.05806 8.93306C2.17527 8.81585 2.33424 8.75 2.5 8.75H5C5.16576 8.75 5.32473 8.81585 5.44194 8.93306C5.55915 9.05027 5.625 9.20924 5.625 9.375V10.625C5.625 10.7908 5.55915 10.9497 5.44194 11.0669C5.32473 11.1842 5.16576 11.25 5 11.25H2.5C2.33424 11.25 2.17527 11.1842 2.05806 11.0669C1.94085 10.9497 1.875 10.7908 1.875 10.625Z" fill="#033F2D"/>
<path d="M28.0806 20.3925C28.0501 20.3163 28.0049 20.2468 27.9476 20.1881C27.8903 20.1294 27.8219 20.0825 27.7465 20.0502C27.671 20.0178 27.59 20.0007 27.5079 19.9997C27.4258 19.9987 27.3443 20.0139 27.2681 20.0444L25.1875 20.875C24.7763 21.0397 24.4048 21.2898 24.0975 21.6089C23.7902 21.9279 23.5542 22.3085 23.405 22.7256L20.8125 30H9.375C9.20924 30 9.05027 30.0659 8.93306 30.1831C8.81585 30.3003 8.75 30.4593 8.75 30.625C8.75 30.7908 8.81585 30.9497 8.93306 31.067C9.05027 31.1842 9.20924 31.25 9.375 31.25H18.125V35H6.875C6.37772 35 5.90081 34.8025 5.54918 34.4508C5.19755 34.0992 5 33.6223 5 33.125V20.7019C5.00005 20.2838 5.13982 19.8777 5.3971 19.5482C5.65439 19.2187 6.01442 18.9846 6.42 18.8831L11.5 17.6138L12.5469 20.2325C12.5774 20.3087 12.6226 20.3782 12.6799 20.4369C12.7372 20.4957 12.8056 20.5425 12.881 20.5749C12.9565 20.6072 13.0375 20.6243 13.1196 20.6253C13.2017 20.6263 13.2832 20.6111 13.3594 20.5806L16.25 19.4231L19.1425 20.5806C19.2187 20.6111 19.3002 20.6263 19.3823 20.6253C19.4643 20.6243 19.5454 20.6072 19.6209 20.5749C19.6963 20.5425 19.7646 20.4957 19.822 20.4369C19.8793 20.3782 19.9245 20.3087 19.955 20.2325L21.0019 17.6138L26.0794 18.8831C26.2402 18.9233 26.4105 18.898 26.5527 18.8126C26.6948 18.7273 26.7973 18.589 26.8375 18.4281C26.8777 18.2673 26.8523 18.097 26.767 17.9548C26.6817 17.8127 26.5434 17.7102 26.3825 17.67L20.7763 16.2688C20.6295 16.2328 20.4746 16.2509 20.3401 16.3198C20.2056 16.3886 20.1004 16.5037 20.0438 16.6438L19.0269 19.1875L16.4825 18.1694C16.3331 18.1107 16.1669 18.1107 16.0175 18.1694L13.4731 19.1875L12.4556 16.6425C12.3996 16.5019 12.2945 16.3864 12.1598 16.3174C12.0251 16.2485 11.8699 16.2307 11.7231 16.2675L6.1175 17.67C5.44096 17.8384 4.84026 18.2284 4.41118 18.7779C3.98209 19.3274 3.74933 20.0047 3.75 20.7019V33.125C3.75099 33.9535 4.08055 34.7478 4.66639 35.3336C5.25223 35.9195 6.0465 36.249 6.875 36.25H21.25C22.0785 36.249 22.8728 35.9195 23.4586 35.3336C24.0444 34.7478 24.374 33.9535 24.375 33.125V31.875C24.375 31.3777 24.1775 30.9008 23.8258 30.5492C23.4742 30.1976 22.9973 30 22.5 30H22.1369L24.5844 23.1469C24.6738 22.8967 24.8154 22.6683 24.9997 22.4769C25.1841 22.2856 25.407 22.1356 25.6538 22.0369L27.7325 21.2056C27.8088 21.1752 27.8783 21.1299 27.9371 21.0725C27.9959 21.0152 28.0428 20.9468 28.0751 20.8712C28.1075 20.7957 28.1246 20.7146 28.1255 20.6324C28.1265 20.5503 28.1112 20.4688 28.0806 20.3925ZM23.125 31.875V33.125C23.125 33.6223 22.9275 34.0992 22.5758 34.4508C22.2242 34.8025 21.7473 35 21.25 35H19.375V31.25H22.5C22.6658 31.25 22.8247 31.3159 22.9419 31.4331C23.0592 31.5503 23.125 31.7093 23.125 31.875Z" fill="#033F2D"/>
<path d="M35.6258 22.5C35.46 22.5 35.301 22.5658 35.1838 22.683C35.0666 22.8002 35.0008 22.9592 35.0008 23.125C35.0009 23.3082 34.9607 23.4892 34.8831 23.6552C34.8056 23.8212 34.6924 23.9681 34.5517 24.0855C34.4111 24.2029 34.2463 24.288 34.0691 24.3347C33.8919 24.3813 33.7066 24.3885 33.5264 24.3556C33.2817 24.3091 33.0562 24.1913 32.8783 24.0171C32.7004 23.8428 32.5779 23.6199 32.5264 23.3762C32.4257 22.7854 32.1206 22.2488 31.6645 21.8602C31.2083 21.4715 30.63 21.2555 30.0308 21.25H30.0008C29.9195 21.2503 29.8391 21.2668 29.7642 21.2985C29.6894 21.3302 29.6216 21.3765 29.5648 21.4346C29.508 21.4928 29.4634 21.5617 29.4335 21.6373C29.4036 21.7129 29.3891 21.7937 29.3908 21.875C29.3942 22.0422 29.4632 22.2015 29.5829 22.3184C29.7026 22.4353 29.8634 22.5005 30.0308 22.5C30.3457 22.5107 30.6467 22.6327 30.8803 22.8443C31.1139 23.0558 31.2651 23.3432 31.307 23.6556C31.412 24.1404 31.6588 24.583 32.016 24.9272C32.3733 25.2713 32.8249 25.5013 33.3133 25.5881C33.4555 25.6124 33.5996 25.6248 33.7439 25.625C34.3077 25.626 34.8553 25.4364 35.2978 25.0869C35.7403 24.7375 36.0517 24.2487 36.1814 23.7C36.9019 23.5695 37.5537 23.1902 38.0231 22.6282C38.4925 22.0662 38.7496 21.3572 38.7496 20.625C38.7496 19.8927 38.4925 19.1837 38.0231 18.6217C37.5537 18.0597 36.9019 17.6804 36.1814 17.55C36.0504 16.9947 35.7336 16.501 35.2833 16.1507C34.8331 15.8004 34.2766 15.6146 33.7062 15.6241C33.1358 15.6337 32.5859 15.838 32.1477 16.2032C31.7094 16.5684 31.4093 17.0725 31.297 17.6318C31.2478 17.9413 31.0907 18.2234 30.8534 18.428C30.6162 18.6327 30.3141 18.7468 30.0008 18.75C29.9195 18.7503 29.8391 18.7668 29.7642 18.7985C29.6894 18.8302 29.6216 18.8765 29.5648 18.9346C29.508 18.9928 29.4634 19.0617 29.4335 19.1373C29.4036 19.2129 29.3891 19.2937 29.3908 19.375C29.3942 19.5422 29.4632 19.7015 29.5829 19.8184C29.7026 19.9353 29.8634 20.0005 30.0308 20C30.6333 19.9933 31.2142 19.7744 31.6714 19.3819C32.1286 18.9894 32.4329 18.4483 32.5308 17.8537C32.5978 17.5534 32.7732 17.2883 33.0235 17.1093C33.2738 16.9302 33.5813 16.8498 33.8872 16.8834C34.1931 16.917 34.4758 17.0622 34.6813 17.2913C34.8868 17.5204 35.0005 17.8172 35.0008 18.125C35.0008 18.2907 35.0666 18.4497 35.1838 18.5669C35.301 18.6841 35.46 18.75 35.6258 18.75C36.123 18.75 36.5999 18.9475 36.9516 19.2991C37.3032 19.6508 37.5008 20.1277 37.5008 20.625C37.5008 21.1222 37.3032 21.5992 36.9516 21.9508C36.5999 22.3024 36.123 22.5 35.6258 22.5Z" fill="#033F2D"/>
<path d="M38.1701 29.3307C38.0529 29.2136 37.894 29.1477 37.7282 29.1477C37.5625 29.1477 37.4036 29.2136 37.2864 29.3307L35.0476 31.5695C33.6426 30.4382 31.9851 30.2082 31.0989 31.0982C30.2126 31.9882 30.4395 33.642 31.5701 35.047L29.8057 36.8126C29.1549 35.9752 28.7875 34.9524 28.7566 33.8923C28.7258 32.8322 29.0331 31.7898 29.6341 30.916C30.2351 30.0421 31.0986 29.3823 32.0996 29.0319C33.1007 28.6815 34.1872 28.6588 35.202 28.967C35.3602 29.0137 35.5305 28.996 35.6757 28.9176C35.8209 28.8393 35.9293 28.7067 35.9771 28.5488C36.0249 28.3909 36.0084 28.2205 35.9311 28.0748C35.8538 27.929 35.722 27.8197 35.5645 27.7707C34.2327 27.3655 32.8037 27.4168 31.5044 27.9164C30.2051 28.416 29.1099 29.3354 28.3928 30.5285C27.6756 31.7216 27.3775 33.12 27.5459 34.5019C27.7142 35.8837 28.3393 37.1697 29.322 38.1557C29.3239 38.1614 29.3271 38.1665 29.3314 38.1707C29.3356 38.175 29.3407 38.1782 29.3464 38.1801C30.5286 39.3068 32.1049 39.9259 33.7379 39.9051C35.3708 39.8842 36.9308 39.225 38.0839 38.0686C39.237 36.9121 39.8917 35.3503 39.9078 33.7172C39.9239 32.0842 39.3002 30.5097 38.1701 29.3307ZM35.5189 35.5182C35.1645 35.8707 34.2339 35.7114 33.3426 35.042L35.0426 33.342C35.7126 34.2339 35.872 35.1645 35.5189 35.5182ZM31.9826 31.982C32.1352 31.8505 32.3335 31.7844 32.5345 31.7982C33.1312 31.8471 33.6984 32.0782 34.1595 32.4601L32.4614 34.1582C31.7889 33.2664 31.6295 32.3357 31.9826 31.982ZM33.7507 38.7501C32.6407 38.7503 31.5626 38.3789 30.6882 37.6951L32.4501 35.9332C33.1521 36.5431 34.0378 36.9008 34.9664 36.9495C35.2304 36.9589 35.4936 36.9153 35.7405 36.8213C35.9874 36.7273 36.213 36.5847 36.4039 36.402C37.2939 35.5114 37.0632 33.8582 35.9326 32.4532L37.6976 30.6876C38.2722 31.426 38.6278 32.3109 38.724 33.2415C38.8202 34.1721 38.6531 35.111 38.2418 35.9513C37.8304 36.7916 37.1913 37.4995 36.3973 37.9943C35.6033 38.4891 34.6863 38.751 33.7507 38.7501Z" fill="#033F2D"/>
</g>
<defs>
<clipPath id="clip0_471_335">
<rect width="40" height="40" fill="white"/>
</clipPath>
</defs>
</svg>
