<svg width="25" height="25" viewBox="0 0 25 25" fill="none" xmlns="http://www.w3.org/2000/svg">
<path d="M5.85938 16.0156C5.39583 16.0156 4.94269 16.1531 4.55726 16.4106C4.17183 16.6682 3.87143 17.0342 3.69403 17.4625C3.51664 17.8907 3.47023 18.362 3.56066 18.8166C3.65109 19.2713 3.87432 19.6889 4.20209 20.0167C4.52987 20.3444 4.94749 20.5677 5.40213 20.6581C5.85678 20.7485 6.32803 20.7021 6.75629 20.5247C7.18455 20.3473 7.5506 20.0469 7.80813 19.6615C8.06567 19.2761 8.20313 18.8229 8.20313 18.3594C8.20251 17.738 7.95538 17.1422 7.51597 16.7028C7.07657 16.2634 6.48079 16.0162 5.85938 16.0156ZM5.85938 19.9219C5.55034 19.9219 5.24825 19.8302 4.9913 19.6585C4.73435 19.4869 4.53408 19.2428 4.41581 18.9573C4.29755 18.6718 4.26661 18.3576 4.3269 18.0545C4.38719 17.7515 4.536 17.473 4.75452 17.2545C4.97304 17.036 5.25145 16.8872 5.55455 16.8269C5.85764 16.7666 6.17181 16.7976 6.45732 16.9158C6.74283 17.0341 6.98686 17.2343 7.15855 17.4913C7.33024 17.7482 7.42188 18.0503 7.42188 18.3594C7.42188 18.7738 7.25726 19.1712 6.96423 19.4642C6.6712 19.7573 6.27378 19.9219 5.85938 19.9219Z" fill="#033F2D"/>
<path d="M19.9219 16.0156C19.4583 16.0156 19.0052 16.1531 18.6198 16.4106C18.2343 16.6682 17.9339 17.0342 17.7565 17.4625C17.5791 17.8907 17.5327 18.362 17.6232 18.8166C17.7136 19.2713 17.9368 19.6889 18.2646 20.0167C18.5924 20.3444 19.01 20.5677 19.4646 20.6581C19.9193 20.7485 20.3905 20.7021 20.8188 20.5247C21.2471 20.3473 21.6131 20.0469 21.8706 19.6615C22.1282 19.2761 22.2656 18.8229 22.2656 18.3594C22.265 17.738 22.0179 17.1422 21.5785 16.7028C21.1391 16.2634 20.5433 16.0162 19.9219 16.0156ZM19.9219 19.9219C19.6128 19.9219 19.3107 19.8302 19.0538 19.6585C18.7968 19.4869 18.5966 19.2428 18.4783 18.9573C18.3601 18.6718 18.3291 18.3576 18.3894 18.0545C18.4497 17.7515 18.5985 17.473 18.817 17.2545C19.0355 17.036 19.314 16.8872 19.617 16.8269C19.9201 16.7666 20.2343 16.7976 20.5198 16.9158C20.8053 17.0341 21.0494 17.2343 21.221 17.4913C21.3927 17.7482 21.4844 18.0503 21.4844 18.3594C21.4844 18.7738 21.3198 19.1712 21.0267 19.4642C20.7337 19.7573 20.3363 19.9219 19.9219 19.9219Z" fill="#033F2D"/>
<path d="M23.0469 11.3281H22.5602L21.2406 6.70938C21.1699 6.4649 21.0219 6.24993 20.8187 6.09668C20.6155 5.94343 20.3682 5.86017 20.1137 5.85938H15.625V5.46875C15.625 5.15795 15.5015 4.85988 15.2818 4.64011C15.062 4.42034 14.7639 4.29688 14.4531 4.29688H1.17188C0.861074 4.29687 0.563003 4.42034 0.343234 4.64011C0.123465 4.85988 0 5.15795 0 5.46875L0 17.9688C0 18.0724 0.041155 18.1717 0.114411 18.245C0.187668 18.3182 0.287025 18.3594 0.390625 18.3594H2.34375C2.44735 18.3594 2.54671 18.3182 2.61996 18.245C2.69322 18.1717 2.73438 18.0724 2.73438 17.9688C2.73438 17.8651 2.69322 17.7658 2.61996 17.6925C2.54671 17.6193 2.44735 17.5781 2.34375 17.5781H0.78125V5.46875C0.78125 5.36515 0.822405 5.26579 0.895661 5.19254C0.968918 5.11928 1.06827 5.07812 1.17188 5.07812H14.4531C14.5567 5.07812 14.6561 5.11928 14.7293 5.19254C14.8026 5.26579 14.8438 5.36515 14.8438 5.46875V8.20312C14.8438 8.30673 14.8849 8.40608 14.9582 8.47934C15.0314 8.5526 15.1308 8.59375 15.2344 8.59375C15.338 8.59375 15.4373 8.5526 15.5106 8.47934C15.5838 8.40608 15.625 8.30673 15.625 8.20312V6.64062H20.1137C20.1986 6.64069 20.2811 6.6684 20.3489 6.71957C20.4166 6.77074 20.4658 6.84258 20.4891 6.92422L20.6313 7.42188H17.5781C17.4745 7.42188 17.3752 7.46303 17.3019 7.53629C17.2287 7.60954 17.1875 7.7089 17.1875 7.8125V11.7188C17.1875 11.8224 17.2287 11.9217 17.3019 11.995C17.3752 12.0682 17.4745 12.1094 17.5781 12.1094H20.3125H23.0469C23.3577 12.1094 23.6557 12.2328 23.8755 12.4526C24.0953 12.6724 24.2188 12.9704 24.2188 13.2812V17.5781H23.4375C23.3339 17.5781 23.2345 17.6193 23.1613 17.6925C23.088 17.7658 23.0469 17.8651 23.0469 17.9688C23.0469 18.0724 23.088 18.1717 23.1613 18.245C23.2345 18.3182 23.3339 18.3594 23.4375 18.3594H24.6094C24.713 18.3594 24.8123 18.3182 24.8856 18.245C24.9588 18.1717 25 18.0724 25 17.9688V13.2812C24.9994 12.7634 24.7934 12.267 24.4273 11.9009C24.0611 11.5347 23.5647 11.3287 23.0469 11.3281ZM17.9688 8.20312H20.8547L21.7477 11.3281H17.9688V8.20312Z" fill="#033F2D"/>
<path d="M16.4062 17.5781H9.375C9.2714 17.5781 9.17204 17.6193 9.09879 17.6925C9.02553 17.7658 8.98438 17.8651 8.98438 17.9688C8.98438 18.0724 9.02553 18.1717 9.09879 18.245C9.17204 18.3182 9.2714 18.3594 9.375 18.3594H16.4062C16.5099 18.3594 16.6092 18.3182 16.6825 18.245C16.7557 18.1717 16.7969 18.0724 16.7969 17.9688C16.7969 17.8651 16.7557 17.7658 16.6825 17.6925C16.6092 17.6193 16.5099 17.5781 16.4062 17.5781Z" fill="#033F2D"/>
<path d="M7.81296 7.81246C8.12028 7.81254 8.42592 7.85795 8.71999 7.94723C8.7692 7.96253 8.82095 7.96794 8.87226 7.96314C8.92357 7.95835 8.97342 7.94346 9.01895 7.91931C9.06447 7.89517 9.10477 7.86226 9.13753 7.82247C9.17028 7.78269 9.19483 7.73681 9.20978 7.6875C9.22472 7.63818 9.22976 7.58639 9.2246 7.53512C9.21944 7.48384 9.20419 7.4341 9.17973 7.38874C9.15526 7.34339 9.12206 7.30333 9.08204 7.27086C9.04202 7.23839 8.99597 7.21417 8.94655 7.19957C8.11419 6.94632 7.22108 6.97836 6.40902 7.29063C5.59695 7.60289 4.91246 8.17747 4.46423 8.92316C4.01599 9.66884 3.82969 10.5429 3.93491 11.4065C4.04013 12.2702 4.43083 13.0739 5.04499 13.6902C5.04621 13.6937 5.04821 13.6969 5.05085 13.6996C5.05349 13.7022 5.05669 13.7042 5.06022 13.7054C5.7997 14.4061 6.78365 14.7902 7.80226 14.7757C8.82086 14.7613 9.79353 14.3495 10.5129 13.6282C11.2322 12.9069 11.6413 11.9331 11.6529 10.9144C11.6645 9.89578 11.2778 8.9129 10.5751 8.17536C10.5018 8.10212 10.4025 8.06099 10.2989 8.06099C10.1953 8.06099 10.096 8.10212 10.0227 8.17536L8.6235 9.57457C7.74538 8.86754 6.71139 8.72379 6.15553 9.28004C5.59968 9.83629 5.74343 10.8699 6.45007 11.748L5.34733 12.8515C4.98751 12.3903 4.7646 11.8373 4.70402 11.2555C4.64344 10.6737 4.74765 10.0866 5.00474 9.56114C5.26183 9.03572 5.66145 8.59316 6.15799 8.28396C6.65454 7.97476 7.22801 7.81138 7.81296 7.81246ZM7.81296 14.0625C7.11921 14.0626 6.4454 13.8304 5.89889 13.4031L7.00007 12.3019C7.4388 12.6831 7.99235 12.9066 8.57272 12.9371C8.73774 12.943 8.90227 12.9157 9.05659 12.8569C9.2109 12.7982 9.35187 12.7091 9.47116 12.5949C10.0274 12.0382 9.88327 11.005 9.17663 10.1269L10.2798 9.0234C10.6388 9.48488 10.8611 10.0379 10.9212 10.6196C10.9814 11.2012 10.8769 11.788 10.6198 12.3132C10.3628 12.8384 9.96333 13.2808 9.46708 13.5901C8.97082 13.8993 8.39769 14.063 7.81296 14.0625ZM8.62038 10.6824C9.03913 11.2398 9.13874 11.8214 8.91803 12.0425C8.69733 12.2636 8.11491 12.1632 7.55788 11.7449L8.62038 10.6824ZM6.70632 9.83239C6.80168 9.75018 6.92563 9.70892 7.05124 9.71754C7.42417 9.7481 7.77871 9.89251 8.06686 10.1312L7.00553 11.1925C6.58678 10.6351 6.48717 10.0535 6.70788 9.83239H6.70632Z" fill="#033F2D"/>
</svg>
