<svg width="50" height="50" viewBox="0 0 50 50" fill="none" xmlns="http://www.w3.org/2000/svg">
<g clip-path="url(#clip0_276_9154)">
<path d="M9.445 31.457C9.3698 31.3862 9.28133 31.3311 9.18471 31.2948C9.08809 31.2585 8.98523 31.2417 8.88207 31.2454C8.77891 31.249 8.6775 31.2731 8.58371 31.3162C8.48991 31.3593 8.40558 31.4205 8.33559 31.4964C8.2656 31.5723 8.21134 31.6613 8.17595 31.7582C8.14055 31.8552 8.12473 31.9582 8.12938 32.0613C8.13403 32.1644 8.15907 32.2656 8.20305 32.359C8.24704 32.4524 8.30909 32.5361 8.38562 32.6054C9.77386 33.9177 10.9588 35.4297 11.9012 37.0913C14.9395 42.3523 14.9356 47.0679 13.0263 48.1695C11.1169 49.271 7.03094 46.9179 3.99344 41.6562C2.67399 39.4815 1.85151 37.0421 1.58484 34.5124C1.44969 32.5593 1.91844 31.1273 2.86844 30.5788C3.81844 30.0304 5.04344 30.4226 5.90594 30.8429C5.99843 30.8926 6.1 30.9232 6.20458 30.9328C6.30915 30.9423 6.41458 30.9307 6.51457 30.8987C6.61456 30.8666 6.70706 30.8146 6.78653 30.746C6.866 30.6774 6.93082 30.5934 6.97711 30.4991C7.0234 30.4049 7.05021 30.3023 7.05594 30.1974C7.06167 30.0925 7.0462 29.9876 7.01046 29.8889C6.97472 29.7901 6.91944 29.6996 6.84792 29.6227C6.7764 29.5458 6.69012 29.4841 6.59422 29.4413C4.86922 28.5937 3.31297 28.5195 2.08719 29.2249C0.577813 30.096 -0.156562 32.0124 0.0262501 34.6202C0.309676 37.3869 1.20213 40.0565 2.63953 42.4374C5.31219 47.071 9.06219 49.9952 11.9692 49.9945C12.6122 50.0037 13.2461 49.842 13.8059 49.5257C16.7809 47.807 16.5403 42.0038 13.2536 36.3124C12.2324 34.5137 10.9487 32.8772 9.445 31.457Z" fill="#C7F268"/>
<path d="M3.345 32.3604C2.86688 33.4846 2.98797 36.7908 5.34578 40.876C7.71453 44.9783 10.4614 46.7033 11.7302 46.8619C11.7626 46.866 11.7952 46.8681 11.8278 46.8682C11.9805 46.8681 12.1297 46.8233 12.2572 46.7393C12.3846 46.6553 12.4847 46.5358 12.545 46.3955C13.027 45.2737 12.9114 41.969 10.5473 37.8737C8.19891 33.8112 5.44735 32.069 4.17078 31.8932C4.00103 31.8705 3.82851 31.9038 3.67944 31.9881C3.53038 32.0724 3.41294 32.2032 3.345 32.3604ZM9.19422 38.6541C10.402 40.5712 11.0974 42.7663 11.2138 45.0291C9.3056 43.8045 7.74973 42.1035 6.69969 40.094C5.49222 38.1771 4.79712 35.9823 4.68094 33.7197C6.59056 34.9421 8.14665 36.6433 9.19422 38.6541Z" fill="#C7F268"/>
<path d="M47.9122 29.225C44.9372 27.5062 40.0317 30.6195 36.7458 36.3102C33.4598 42.0008 33.2184 47.8047 36.1934 49.5234C36.7533 49.8398 37.3872 50.0015 38.0301 49.9922C40.9364 49.9922 44.6848 47.068 47.3598 42.4352C48.7972 40.0542 49.6897 37.3846 49.9731 34.618C50.1559 32.0125 49.4215 30.0961 47.9122 29.225ZM48.4145 34.5125C48.1478 37.0421 47.3254 39.4816 46.0059 41.6562C42.9684 46.918 38.884 49.2734 36.9747 48.1695C35.0653 47.0656 35.0614 42.3523 38.0997 37.0914C41.1379 31.8305 45.2223 29.4758 47.1309 30.5789C48.0809 31.1273 48.5497 32.5609 48.4145 34.5125Z" fill="#C7F268"/>
<path d="M45.8364 31.8874C44.5677 32.0437 41.8208 33.771 39.4528 37.8726C37.0849 41.9741 36.9724 45.2726 37.4544 46.3944C37.5147 46.5347 37.6147 46.6542 37.7422 46.7382C37.8697 46.8222 38.0189 46.867 38.1716 46.8671C38.2042 46.8669 38.2368 46.8649 38.2692 46.8609C39.5372 46.7046 42.2841 44.978 44.6536 40.8749C47.0231 36.7718 47.1333 33.4757 46.6513 32.3538C46.5843 32.1983 46.4687 32.0687 46.3217 31.9846C46.1748 31.9004 46.0044 31.8664 45.8364 31.8874ZM43.2997 40.0905C42.2499 42.1003 40.694 43.8013 38.7856 45.0257C38.902 42.7627 39.5976 40.5676 40.8059 38.6507C41.8559 36.6413 43.4118 34.9406 45.32 33.7163C45.2043 35.9801 44.5086 38.1762 43.2997 40.0937V40.0905Z" fill="#C7F268"/>
<path d="M38.0781 31.7672C38.146 31.6902 38.1981 31.6007 38.2314 31.5036C38.2647 31.4065 38.2786 31.3038 38.2722 31.2014C38.2658 31.099 38.2393 30.9988 38.1942 30.9066C38.1491 30.8144 38.0863 30.732 38.0094 30.6641C37.9324 30.5961 37.8429 30.544 37.7458 30.5107C37.6487 30.4774 37.546 30.4636 37.4436 30.47C37.3411 30.4764 37.241 30.5029 37.1488 30.548C37.0566 30.5931 36.9742 30.6559 36.9063 30.7328C35.8204 31.9731 34.8603 33.3179 34.0398 34.7477C32.344 37.5387 31.3063 40.6793 31.0055 43.9312C29.1328 44.8367 27.0797 45.307 24.9996 45.307C22.9195 45.307 20.8664 44.8367 18.9938 43.9312C18.6932 40.6794 17.6557 37.5387 15.9602 34.7477C13.8281 31.05 10.9453 28.1328 8.00391 26.6727C7.87753 25.5989 7.81362 24.5187 7.8125 23.4375C7.8125 11.118 17.0516 1.5625 25 1.5625C32.9484 1.5625 42.1875 11.118 42.1875 23.4375C42.1864 24.5187 42.1225 25.5989 41.9961 26.6727C41.0991 27.1238 40.2513 27.6668 39.4664 28.293C39.383 28.3555 39.3129 28.434 39.2603 28.524C39.2077 28.614 39.1737 28.7136 39.1601 28.8169C39.1466 28.9202 39.1539 29.0252 39.1816 29.1257C39.2093 29.2262 39.2568 29.3201 39.3213 29.402C39.3859 29.4838 39.4661 29.5519 39.5574 29.6023C39.6486 29.6526 39.749 29.6842 39.8527 29.6952C39.9563 29.7061 40.0611 29.6962 40.1609 29.6661C40.2607 29.6359 40.3534 29.5861 40.4336 29.5195C41.2334 28.8785 42.1083 28.3372 43.0391 27.9078C43.1603 27.8531 43.2655 27.7683 43.3448 27.6615C43.4241 27.5548 43.4748 27.4295 43.4922 27.2977C43.6627 26.018 43.7489 24.7285 43.75 23.4375C43.75 10.2344 33.6719 0 25 0C16.3281 0 6.25 10.2344 6.25 23.4375C6.25114 24.7285 6.33727 26.018 6.50781 27.2977C6.52516 27.4295 6.57588 27.5548 6.65518 27.6615C6.73447 27.7683 6.83972 27.8531 6.96094 27.9078C9.74844 29.1625 12.5344 31.9406 14.6062 35.5289C16.2652 38.2288 17.243 41.2914 17.4555 44.4531C17.4599 44.5926 17.5016 44.7283 17.5762 44.8461C17.6508 44.964 17.7556 45.0598 17.8797 45.1234C20.0766 46.2745 22.5198 46.8758 25 46.8758C27.4802 46.8758 29.9234 46.2745 32.1203 45.1234C32.2444 45.0598 32.3492 44.964 32.4238 44.8461C32.4984 44.7283 32.5401 44.5926 32.5445 44.4531C32.7562 41.2917 33.7329 38.2291 35.3906 35.5289C36.1597 34.1891 37.06 32.929 38.0781 31.7672Z" fill="#C7F268"/>
<path d="M36.7188 26.5625C36.926 26.5625 37.1247 26.4802 37.2712 26.3337C37.4177 26.1872 37.5 25.9885 37.5 25.7812V22.6562C37.5 13.4563 32.0094 6.25 25 6.25C17.9906 6.25 12.5 13.4563 12.5 22.6562V25.7812C12.5 25.9885 12.5823 26.1872 12.7288 26.3337C12.8753 26.4802 13.074 26.5625 13.2812 26.5625C13.4885 26.5625 13.6872 26.4802 13.8337 26.3337C13.9802 26.1872 14.0625 25.9885 14.0625 25.7812V22.6562C14.0625 14.4711 18.9688 7.8125 25 7.8125C31.0312 7.8125 35.9375 14.4711 35.9375 22.6562V25.7812C35.9375 25.9885 36.0198 26.1872 36.1663 26.3337C36.3128 26.4802 36.5115 26.5625 36.7188 26.5625Z" fill="#C7F268"/>
<path d="M28.125 14.0625C28.3322 14.0625 28.5309 13.9802 28.6774 13.8337C28.8239 13.6872 28.9062 13.4885 28.9062 13.2812C28.9062 13.074 28.8239 12.8753 28.6774 12.7288C28.5309 12.5823 28.3322 12.5 28.125 12.5H21.875C21.6678 12.5 21.4691 12.5823 21.3226 12.7288C21.1761 12.8753 21.0938 13.074 21.0938 13.2812C21.0938 13.4885 21.1761 13.6872 21.3226 13.8337C21.4691 13.9802 21.6678 14.0625 21.875 14.0625H28.125Z" fill="#C7F268"/>
<path d="M18.75 17.9688C18.75 18.176 18.8323 18.3747 18.9788 18.5212C19.1253 18.6677 19.324 18.75 19.5312 18.75H30.4688C30.676 18.75 30.8747 18.6677 31.0212 18.5212C31.1677 18.3747 31.25 18.176 31.25 17.9688C31.25 17.7615 31.1677 17.5628 31.0212 17.4163C30.8747 17.2698 30.676 17.1875 30.4688 17.1875H19.5312C19.324 17.1875 19.1253 17.2698 18.9788 17.4163C18.8323 17.5628 18.75 17.7615 18.75 17.9688Z" fill="#C7F268"/>
<path d="M33.5938 22.6562C33.5938 22.449 33.5114 22.2503 33.3649 22.1038C33.2184 21.9573 33.0197 21.875 32.8125 21.875H17.1875C16.9803 21.875 16.7816 21.9573 16.6351 22.1038C16.4886 22.2503 16.4062 22.449 16.4062 22.6562C16.4062 22.8635 16.4886 23.0622 16.6351 23.2087C16.7816 23.3552 16.9803 23.4375 17.1875 23.4375H32.8125C33.0197 23.4375 33.2184 23.3552 33.3649 23.2087C33.5114 23.0622 33.5938 22.8635 33.5938 22.6562Z" fill="#C7F268"/>
<path d="M19.5312 36.7188C19.5312 37.8004 19.852 38.8577 20.4529 39.757C21.0538 40.6564 21.9079 41.3573 22.9072 41.7712C23.9065 42.1851 25.0061 42.2934 26.0669 42.0824C27.1277 41.8714 28.1022 41.3506 28.867 40.5857C29.6318 39.8209 30.1527 38.8465 30.3637 37.7856C30.5747 36.7248 30.4664 35.6252 30.0525 34.626C29.6385 33.6267 28.9376 32.7726 28.0383 32.1717C27.1389 31.5707 26.0816 31.25 25 31.25C23.5501 31.2517 22.1601 31.8284 21.1348 32.8536C20.1096 33.8788 19.5329 35.2689 19.5312 36.7188ZM28.9063 36.7188C28.9063 37.4913 28.6772 38.2466 28.2479 38.8889C27.8187 39.5313 27.2086 40.032 26.4949 40.3277C25.7811 40.6233 24.9957 40.7007 24.2379 40.5499C23.4802 40.3992 22.7842 40.0272 22.2379 39.4809C21.6916 38.9346 21.3195 38.2386 21.1688 37.4808C21.0181 36.7231 21.0954 35.9377 21.3911 35.2239C21.6868 34.5101 22.1874 33.9 22.8298 33.4708C23.4722 33.0416 24.2274 32.8125 25 32.8125C26.0356 32.8137 27.0285 33.2257 27.7608 33.958C28.4931 34.6903 28.905 35.6831 28.9063 36.7188Z" fill="#C7F268"/>
</g>
<defs>
<clipPath id="clip0_276_9154">
<rect width="50" height="50" fill="white"/>
</clipPath>
</defs>
</svg>
