<svg width="25" height="25" viewBox="0 0 25 25" fill="none" xmlns="http://www.w3.org/2000/svg">
<g clip-path="url(#clip0_426_204)">
<path d="M15.3127 3.89839C15.363 3.88814 15.4107 3.86807 15.4532 3.83936C15.4958 3.81064 15.5322 3.77383 15.5605 3.73103C15.5888 3.68823 15.6084 3.64027 15.6181 3.5899C15.6279 3.53953 15.6276 3.48773 15.6174 3.43746C15.6071 3.38719 15.5871 3.33943 15.5583 3.29691C15.5296 3.25439 15.4928 3.21794 15.45 3.18965C15.4072 3.16136 15.3593 3.14177 15.3089 3.13201C15.2585 3.12225 15.2067 3.12251 15.1564 3.13277C14.6097 3.24235 14.0916 3.46374 13.6345 3.78303C13.1774 4.10233 12.7912 4.51265 12.5002 4.98824C12.2092 4.51258 11.8231 4.10222 11.366 3.78292C10.9089 3.46361 10.3907 3.24226 9.84395 3.13277C9.74242 3.11205 9.63682 3.13251 9.55038 3.18965C9.46393 3.24679 9.40373 3.33593 9.38301 3.43746C9.36229 3.53899 9.38275 3.64459 9.43989 3.73103C9.49703 3.81747 9.58617 3.87767 9.6877 3.89839C10.1553 3.99109 10.5971 4.18478 10.982 4.46593C11.367 4.74708 11.686 5.10891 11.9166 5.52613C11.0549 5.68824 10.5471 6.22144 10.5471 7.03121C10.524 7.69217 10.7517 8.3374 11.1846 8.83746C10.9204 8.98005 10.6928 9.18189 10.5196 9.42715C10.3465 9.67241 10.2325 9.95444 10.1865 10.2511C9.00332 10.6296 4.00762 12.2976 2.81739 13.8218C2.65605 14.0532 2.55932 14.3233 2.53714 14.6045C2.51496 14.8857 2.56815 15.1677 2.69121 15.4214C2.87051 15.7894 3.36856 16.4062 4.6877 16.4062C7.34043 16.4062 9.31348 13.6398 10.2686 11.9574C10.3018 12.0541 10.3423 12.1483 10.3897 12.239C10.4131 12.2853 10.4456 12.3265 10.4852 12.3601C10.5248 12.3937 10.5706 12.419 10.6201 12.4347C10.6696 12.4504 10.7218 12.456 10.7734 12.4513C10.8251 12.4466 10.8754 12.4316 10.9212 12.4073C10.9671 12.3829 11.0076 12.3497 11.0405 12.3095C11.0733 12.2693 11.0978 12.2229 11.1126 12.1731C11.1273 12.1234 11.132 12.0712 11.1263 12.0195C11.1206 11.9679 11.1047 11.918 11.0795 11.8726C10.988 11.7056 10.9393 11.5185 10.9377 11.3281V10.5468C10.9377 10.236 11.0612 9.93796 11.2809 9.71819C11.5007 9.49842 11.7988 9.37496 12.1096 9.37496H12.8908C13.0812 9.37663 13.2683 9.42534 13.4354 9.51675C13.5243 9.55615 13.6248 9.56092 13.7171 9.53012C13.8094 9.49932 13.8869 9.43518 13.9344 9.35024C13.9819 9.26531 13.996 9.16571 13.9739 9.07093C13.9519 8.97616 13.8952 8.89304 13.815 8.83785C14.2483 8.33785 14.4763 7.69242 14.4533 7.03121C14.4533 6.22144 13.9455 5.68824 13.0822 5.52613C13.3131 5.10877 13.6323 4.74685 14.0175 4.4657C14.4028 4.18455 14.8448 3.99093 15.3127 3.89839ZM4.6877 15.625C4.01504 15.625 3.56739 15.4363 3.39356 15.0781C3.33533 14.9555 3.30842 14.8204 3.31524 14.6849C3.32205 14.5493 3.36239 14.4176 3.43262 14.3015C4.26778 13.232 7.75098 11.8902 9.78614 11.2031C8.99903 12.6738 7.11504 15.625 4.6877 15.625ZM13.6721 7.03121C13.6721 7.29214 13.6154 8.59371 12.5002 8.59371C11.385 8.59371 11.3283 7.29214 11.3283 7.03121C11.3283 6.83589 11.3283 6.24996 12.5002 6.24996C13.6721 6.24996 13.6721 6.83785 13.6721 7.03121Z" fill="#033F2D"/>
<path d="M17.302 4.41129L16.5207 5.19254C16.4474 5.26578 16.4063 5.36512 16.4062 5.46871V6.24996C16.4062 6.35356 16.4474 6.45292 16.5207 6.52617C16.5939 6.59943 16.6933 6.64059 16.7969 6.64059C16.9005 6.64059 16.9998 6.59943 17.0731 6.52617C17.1463 6.45292 17.1875 6.35356 17.1875 6.24996V5.63043L17.8543 4.96363C17.9255 4.88996 17.9648 4.79129 17.9639 4.68887C17.963 4.58645 17.922 4.48847 17.8495 4.41605C17.7771 4.34362 17.6791 4.30254 17.5767 4.30165C17.4743 4.30076 17.3756 4.34013 17.302 4.41129Z" fill="#033F2D"/>
<path d="M8.47914 5.19254L7.69789 4.41129C7.62421 4.34013 7.52554 4.30076 7.42312 4.30165C7.3207 4.30254 7.22273 4.34362 7.1503 4.41605C7.07788 4.48847 7.03679 4.58645 7.0359 4.68887C7.03501 4.79129 7.07439 4.88996 7.14554 4.96363L7.81234 5.63043V7.03121C7.81236 7.1348 7.85353 7.23414 7.92679 7.30738L9.48929 8.86988C9.56296 8.94104 9.66164 8.98041 9.76406 8.97952C9.86648 8.97863 9.96445 8.93755 10.0369 8.86512C10.1093 8.7927 10.1504 8.69473 10.1513 8.59231C10.1522 8.48988 10.1128 8.39121 10.0416 8.31754L8.59359 6.86949V5.46871C8.59357 5.36512 8.5524 5.26578 8.47914 5.19254Z" fill="#033F2D"/>
<path d="M17.1876 19.3695V16.7968C17.1874 16.7197 17.1646 16.6443 17.1219 16.58L16.3407 15.4081C16.2832 15.3219 16.1938 15.2621 16.0922 15.2418C15.9906 15.2215 15.8851 15.2424 15.7989 15.2999C15.7127 15.3574 15.6529 15.4468 15.6326 15.5484C15.6123 15.65 15.6332 15.7555 15.6907 15.8417L16.4063 16.914V19.5312C16.4063 19.6348 16.4475 19.7341 16.5208 19.8074L18.0833 21.3699C18.1569 21.441 18.2556 21.4804 18.358 21.4795C18.4604 21.4786 18.5584 21.4375 18.6308 21.3651C18.7033 21.2927 18.7443 21.1947 18.7452 21.0923C18.7461 20.9899 18.7068 20.8912 18.6356 20.8175L17.1876 19.3695Z" fill="#033F2D"/>
<path d="M14.0213 12.7207C13.9713 12.7322 13.924 12.7534 13.8821 12.7832C13.8403 12.8129 13.8047 12.8507 13.7774 12.8942C13.7502 12.9378 13.7318 12.9862 13.7233 13.0369C13.7148 13.0876 13.7164 13.1394 13.728 13.1894C13.9576 14.2461 14.0698 15.3249 14.0627 16.4062C14.0683 18.0378 13.5171 19.6225 12.5002 20.8984C11.534 19.6854 10.9887 18.1909 10.9467 16.6406C10.9451 16.5893 10.9334 16.5388 10.9123 16.4921C10.8912 16.4453 10.861 16.4031 10.8236 16.368C10.7862 16.3329 10.7422 16.3054 10.6942 16.2873C10.6462 16.2692 10.5951 16.2607 10.5438 16.2623C10.4925 16.2639 10.442 16.2756 10.3952 16.2967C10.3485 16.3179 10.3063 16.348 10.2712 16.3854C10.2361 16.4228 10.2086 16.4668 10.1905 16.5148C10.1724 16.5628 10.1639 16.6139 10.1655 16.6652C10.1989 18.5629 10.9349 20.3807 12.2311 21.7672C12.3036 21.8357 12.3997 21.8739 12.4995 21.8739C12.5993 21.8739 12.6953 21.8357 12.7678 21.7672C14.1288 20.317 14.8732 18.3948 14.844 16.4062C14.8512 15.2659 14.7323 14.1282 14.4893 13.014C14.4661 12.9131 14.4038 12.8255 14.3161 12.7705C14.2283 12.7155 14.1223 12.6976 14.0213 12.7207Z" fill="#033F2D"/>
<path d="M22.1826 13.8222C21.3135 12.709 18.4717 11.5289 16.2377 10.7363C16.1401 10.7016 16.0326 10.7071 15.939 10.7516C15.8455 10.7961 15.7734 10.876 15.7387 10.9736C15.704 11.0713 15.7095 11.1787 15.754 11.2723C15.7985 11.3659 15.8783 11.4379 15.976 11.4726C18.9498 12.5305 20.9877 13.5629 21.567 14.3051C21.6375 14.421 21.678 14.5527 21.6848 14.6882C21.6916 14.8237 21.6646 14.9588 21.6061 15.0812C21.4326 15.4363 20.985 15.625 20.3123 15.625C18.1389 15.625 16.394 13.2281 15.5467 11.7992C15.5205 11.7551 15.4859 11.7165 15.4449 11.6857C15.4038 11.655 15.3571 11.6326 15.3074 11.6199C15.2577 11.6072 15.2059 11.6044 15.1551 11.6116C15.1043 11.6189 15.0555 11.6361 15.0113 11.6623C14.9672 11.6884 14.9286 11.723 14.8979 11.7641C14.8671 11.8052 14.8447 11.8519 14.832 11.9016C14.8193 11.9513 14.8165 12.003 14.8238 12.0538C14.8311 12.1046 14.8483 12.1535 14.8744 12.1976C16.0127 14.1176 17.8795 16.4062 20.3123 16.4062C21.6315 16.4062 22.1295 15.7894 22.3088 15.4215C22.4319 15.1678 22.4851 14.8858 22.4629 14.6047C22.4407 14.3236 22.344 14.0535 22.1826 13.8222Z" fill="#033F2D"/>
<path d="M8.59342 17.9688C8.48982 17.9688 8.39047 18.0099 8.31721 18.0832C8.24395 18.1564 8.2028 18.2558 8.2028 18.3594V19.3695L6.75475 20.8176C6.71744 20.8536 6.68768 20.8967 6.66721 20.9444C6.64674 20.992 6.63596 21.0433 6.63551 21.0952C6.63506 21.147 6.64495 21.1985 6.66459 21.2465C6.68423 21.2945 6.71323 21.3381 6.74991 21.3748C6.78659 21.4114 6.8302 21.4404 6.87821 21.4601C6.92621 21.4797 6.97765 21.4896 7.02952 21.4892C7.08138 21.4887 7.13264 21.4779 7.1803 21.4575C7.22796 21.437 7.27106 21.4072 7.3071 21.3699L8.8696 19.8074C8.94286 19.7342 8.98403 19.6348 8.98405 19.5312V18.3594C8.98405 18.2558 8.94289 18.1564 8.86964 18.0832C8.79638 18.0099 8.69702 17.9688 8.59342 17.9688Z" fill="#033F2D"/>
<path d="M21.3385 3.66126C21.2653 3.58803 21.166 3.54689 21.0624 3.54689C20.9588 3.54689 20.8595 3.58803 20.7862 3.66126L3.94792 20.4995C1.94267 18.3572 0.814522 15.5403 0.786655 12.6061C0.758788 9.67182 1.83323 6.83399 3.79743 4.65397C5.76163 2.47395 8.47251 1.11055 11.3938 0.833481C14.315 0.556414 17.2339 1.38586 19.5729 3.15774C19.6137 3.18954 19.6604 3.21292 19.7103 3.22653C19.7602 3.24014 19.8123 3.2437 19.8636 3.23701C19.9149 3.23032 19.9644 3.21351 20.0091 3.18755C20.0538 3.1616 20.093 3.12702 20.1242 3.08582C20.1555 3.04462 20.1783 2.99762 20.1912 2.94754C20.2042 2.89747 20.2071 2.84532 20.1997 2.79412C20.1924 2.74293 20.1749 2.6937 20.1484 2.6493C20.1219 2.6049 20.0868 2.56621 20.0452 2.53548C17.8775 0.88328 15.2254 -0.00792684 12.4999 -7.0571e-05C10.0303 -0.00140573 7.6158 0.729172 5.56126 2.09938C3.50672 3.46958 1.90434 5.41795 0.95654 7.69836C0.0087367 9.97877 -0.241973 12.4889 0.23608 14.9118C0.714132 17.3346 1.8995 19.5614 3.64245 21.3109C3.64988 21.3199 3.653 21.3304 3.6612 21.3386C3.66941 21.3468 3.67995 21.3499 3.68894 21.3574C6.03949 23.6784 9.21347 24.9744 12.5169 24.9619C15.8203 24.9493 18.9843 23.6293 21.3172 21.2904C23.65 18.9515 24.9619 15.784 24.9659 12.4806C24.9699 9.1772 23.6657 6.00658 21.3385 3.66204V3.66126ZM12.4999 24.2187C9.52736 24.2203 6.66623 23.0877 4.50027 21.0519L21.0546 4.49641C22.6158 6.1641 23.6554 8.25183 24.0454 10.5027C24.4354 12.7536 24.1589 15.0694 23.2499 17.1651C22.3408 19.2609 20.8389 21.0451 18.9289 22.2984C17.019 23.5516 14.7843 24.2191 12.4999 24.2187Z" fill="#033F2D"/>
</g>
<defs>
<clipPath id="clip0_426_204">
<rect width="25" height="25" fill="white"/>
</clipPath>
</defs>
</svg>
