<svg width="25" height="25" viewBox="0 0 25 25" fill="none" xmlns="http://www.w3.org/2000/svg">
<g clip-path="url(#clip0_415_27057)">
<path d="M15.3127 3.89839C15.363 3.88814 15.4107 3.86807 15.4532 3.83936C15.4958 3.81064 15.5322 3.77383 15.5605 3.73103C15.5888 3.68823 15.6084 3.64027 15.6181 3.5899C15.6279 3.53953 15.6276 3.48773 15.6174 3.43746C15.6071 3.38719 15.5871 3.33943 15.5583 3.29691C15.5296 3.25439 15.4928 3.21794 15.45 3.18965C15.4072 3.16136 15.3593 3.14177 15.3089 3.13201C15.2585 3.12225 15.2067 3.12251 15.1564 3.13277C14.6097 3.24235 14.0916 3.46374 13.6345 3.78303C13.1774 4.10233 12.7912 4.51265 12.5002 4.98824C12.2092 4.51258 11.8231 4.10222 11.366 3.78292C10.9089 3.46361 10.3907 3.24226 9.84395 3.13277C9.74242 3.11205 9.63682 3.13251 9.55038 3.18965C9.46393 3.24679 9.40373 3.33593 9.38301 3.43746C9.36229 3.53899 9.38275 3.64459 9.43989 3.73103C9.49703 3.81747 9.58617 3.87767 9.6877 3.89839C10.1553 3.99109 10.5971 4.18478 10.982 4.46593C11.367 4.74708 11.686 5.10891 11.9166 5.52613C11.0549 5.68824 10.5471 6.22144 10.5471 7.03121C10.524 7.69217 10.7517 8.3374 11.1846 8.83746C10.9204 8.98005 10.6928 9.18189 10.5196 9.42715C10.3465 9.67241 10.2325 9.95444 10.1865 10.2511C9.00332 10.6296 4.00762 12.2976 2.81739 13.8218C2.65605 14.0532 2.55932 14.3233 2.53714 14.6045C2.51496 14.8857 2.56815 15.1677 2.69121 15.4214C2.87051 15.7894 3.36856 16.4062 4.6877 16.4062C7.34043 16.4062 9.31348 13.6398 10.2686 11.9574C10.3018 12.0541 10.3423 12.1483 10.3897 12.239C10.4131 12.2853 10.4456 12.3265 10.4852 12.3601C10.5248 12.3937 10.5706 12.419 10.6201 12.4347C10.6696 12.4504 10.7218 12.456 10.7734 12.4513C10.8251 12.4466 10.8754 12.4316 10.9212 12.4073C10.9671 12.3829 11.0076 12.3497 11.0405 12.3095C11.0733 12.2693 11.0978 12.2229 11.1126 12.1731C11.1273 12.1234 11.132 12.0712 11.1263 12.0195C11.1206 11.9679 11.1047 11.918 11.0795 11.8726C10.988 11.7056 10.9393 11.5185 10.9377 11.3281V10.5468C10.9377 10.236 11.0612 9.93796 11.2809 9.71819C11.5007 9.49842 11.7988 9.37496 12.1096 9.37496H12.8908C13.0812 9.37663 13.2683 9.42534 13.4354 9.51675C13.5243 9.55615 13.6248 9.56092 13.7171 9.53012C13.8094 9.49932 13.8869 9.43518 13.9344 9.35024C13.9819 9.26531 13.996 9.16571 13.9739 9.07093C13.9519 8.97616 13.8952 8.89304 13.815 8.83785C14.2483 8.33785 14.4763 7.69242 14.4533 7.03121C14.4533 6.22144 13.9455 5.68824 13.0822 5.52613C13.3131 5.10877 13.6323 4.74685 14.0175 4.4657C14.4028 4.18455 14.8448 3.99093 15.3127 3.89839ZM4.6877 15.625C4.01504 15.625 3.56739 15.4363 3.39356 15.0781C3.33533 14.9555 3.30842 14.8204 3.31524 14.6849C3.32205 14.5493 3.36239 14.4176 3.43262 14.3015C4.26778 13.232 7.75098 11.8902 9.78614 11.2031C8.99903 12.6738 7.11504 15.625 4.6877 15.625ZM13.6721 7.03121C13.6721 7.29214 13.6154 8.59371 12.5002 8.59371C11.385 8.59371 11.3283 7.29214 11.3283 7.03121C11.3283 6.83589 11.3283 6.24996 12.5002 6.24996C13.6721 6.24996 13.6721 6.83785 13.6721 7.03121Z" fill="#033F2D"/>
<path d="M17.302 4.41129L16.5207 5.19254C16.4474 5.26578 16.4063 5.36512 16.4062 5.46871V6.24996C16.4062 6.35356 16.4474 6.45292 16.5207 6.52617C16.5939 6.59943 16.6933 6.64059 16.7969 6.64059C16.9005 6.64059 16.9998 6.59943 17.0731 6.52617C17.1463 6.45292 17.1875 6.35356 17.1875 6.24996V5.63043L17.8543 4.96363C17.9255 4.88996 17.9648 4.79129 17.9639 4.68887C17.963 4.58645 17.922 4.48847 17.8495 4.41605C17.7771 4.34362 17.6791 4.30254 17.5767 4.30165C17.4743 4.30076 17.3756 4.34013 17.302 4.41129Z" fill="#033F2D"/>
<path d="M8.47938 5.19254L7.69813 4.41129C7.62446 4.34013 7.52578 4.30076 7.42336 4.30165C7.32094 4.30254 7.22297 4.34362 7.15054 4.41605C7.07812 4.48847 7.03704 4.58645 7.03615 4.68887C7.03526 4.79129 7.07463 4.88996 7.14579 4.96363L7.81258 5.63043V7.03121C7.81261 7.1348 7.85377 7.23414 7.92704 7.30738L9.48954 8.86988C9.56321 8.94104 9.66188 8.98041 9.7643 8.97952C9.86672 8.97863 9.9647 8.93755 10.0371 8.86512C10.1095 8.7927 10.1506 8.69473 10.1515 8.59231C10.1524 8.48988 10.113 8.39121 10.0419 8.31754L8.59383 6.86949V5.46871C8.59381 5.36512 8.55264 5.26578 8.47938 5.19254Z" fill="#033F2D"/>
<path d="M17.1876 19.3695V16.7968C17.1874 16.7197 17.1646 16.6443 17.1219 16.58L16.3407 15.4081C16.2832 15.3219 16.1938 15.2621 16.0922 15.2418C15.9906 15.2215 15.8851 15.2424 15.7989 15.2999C15.7127 15.3574 15.6529 15.4468 15.6326 15.5484C15.6123 15.65 15.6332 15.7555 15.6907 15.8417L16.4063 16.914V19.5312C16.4063 19.6348 16.4475 19.7341 16.5208 19.8074L18.0833 21.3699C18.1569 21.441 18.2556 21.4804 18.358 21.4795C18.4604 21.4786 18.5584 21.4375 18.6308 21.3651C18.7033 21.2927 18.7443 21.1947 18.7452 21.0923C18.7461 20.9899 18.7068 20.8912 18.6356 20.8175L17.1876 19.3695Z" fill="#033F2D"/>
<path d="M14.0211 12.7207C13.971 12.7322 13.9237 12.7534 13.8819 12.7832C13.84 12.8129 13.8044 12.8507 13.7772 12.8942C13.7499 12.9378 13.7316 12.9862 13.7231 13.0369C13.7146 13.0876 13.7162 13.1394 13.7277 13.1894C13.9573 14.2461 14.0696 15.3249 14.0625 16.4062C14.068 18.0378 13.5169 19.6225 12.5 20.8984C11.5338 19.6854 10.9885 18.1909 10.9465 16.6406C10.9449 16.5893 10.9332 16.5388 10.912 16.4921C10.8909 16.4453 10.8608 16.4031 10.8234 16.368C10.786 16.3329 10.742 16.3054 10.694 16.2873C10.646 16.2692 10.5949 16.2607 10.5436 16.2623C10.4923 16.2639 10.4418 16.2756 10.395 16.2967C10.3482 16.3179 10.3061 16.348 10.2709 16.3854C10.2358 16.4228 10.2084 16.4668 10.1903 16.5148C10.1721 16.5628 10.1636 16.6139 10.1652 16.6652C10.1987 18.5629 10.9347 20.3807 12.2309 21.7672C12.3034 21.8357 12.3994 21.8739 12.4992 21.8739C12.599 21.8739 12.695 21.8357 12.7676 21.7672C14.1285 20.317 14.8729 18.3948 14.8437 16.4062C14.851 15.2659 14.732 14.1282 14.4891 13.014C14.4659 12.9131 14.4036 12.8255 14.3158 12.7705C14.2281 12.7155 14.122 12.6976 14.0211 12.7207Z" fill="#033F2D"/>
<path d="M22.1831 13.8222C21.314 12.709 18.4722 11.5289 16.2382 10.7363C16.1406 10.7016 16.0331 10.7071 15.9395 10.7516C15.846 10.7961 15.7739 10.876 15.7392 10.9736C15.7045 11.0713 15.71 11.1787 15.7545 11.2723C15.799 11.3659 15.8788 11.4379 15.9765 11.4726C18.9503 12.5305 20.9882 13.5629 21.5675 14.3051C21.638 14.421 21.6785 14.5527 21.6853 14.6882C21.6921 14.8237 21.6651 14.9588 21.6066 15.0812C21.4331 15.4363 20.9855 15.625 20.3128 15.625C18.1394 15.625 16.3944 13.2281 15.5472 11.7992C15.521 11.7551 15.4864 11.7165 15.4454 11.6857C15.4043 11.655 15.3576 11.6326 15.3079 11.6199C15.2581 11.6072 15.2064 11.6044 15.1556 11.6116C15.1048 11.6189 15.056 11.6361 15.0118 11.6623C14.9677 11.6884 14.9291 11.723 14.8984 11.7641C14.8676 11.8052 14.8452 11.8519 14.8325 11.9016C14.8198 11.9513 14.817 12.003 14.8243 12.0538C14.8315 12.1046 14.8488 12.1535 14.8749 12.1976C16.0132 14.1176 17.88 16.4062 20.3128 16.4062C21.6319 16.4062 22.13 15.7894 22.3093 15.4215C22.4324 15.1678 22.4856 14.8858 22.4634 14.6047C22.4412 14.3236 22.3445 14.0535 22.1831 13.8222Z" fill="#033F2D"/>
<path d="M8.59367 17.9688C8.49007 17.9688 8.39071 18.0099 8.31745 18.0832C8.2442 18.1564 8.20304 18.2558 8.20304 18.3594V19.3695L6.755 20.8176C6.71769 20.8536 6.68793 20.8967 6.66746 20.9444C6.64698 20.992 6.63621 21.0433 6.63576 21.0952C6.63531 21.147 6.64519 21.1985 6.66483 21.2465C6.68447 21.2945 6.71348 21.3381 6.75015 21.3748C6.78683 21.4114 6.83045 21.4404 6.87845 21.4601C6.92646 21.4797 6.97789 21.4896 7.02976 21.4892C7.08163 21.4887 7.13289 21.4779 7.18054 21.4575C7.2282 21.437 7.27131 21.4072 7.30734 21.3699L8.86984 19.8074C8.9431 19.7342 8.98427 19.6348 8.98429 19.5312V18.3594C8.98429 18.2558 8.94314 18.1564 8.86988 18.0832C8.79663 18.0099 8.69727 17.9688 8.59367 17.9688Z" fill="#033F2D"/>
<path d="M21.3388 3.66126C21.2655 3.58803 21.1662 3.54689 21.0626 3.54689C20.959 3.54689 20.8597 3.58803 20.7864 3.66126L3.94817 20.4995C1.94292 18.3572 0.814766 15.5403 0.786899 12.6061C0.759032 9.67182 1.83348 6.83399 3.79768 4.65397C5.76188 2.47395 8.47276 1.11055 11.394 0.833481C14.3153 0.556414 17.2341 1.38586 19.5732 3.15774C19.614 3.18954 19.6607 3.21292 19.7106 3.22653C19.7605 3.24014 19.8126 3.2437 19.8639 3.23701C19.9151 3.23032 19.9646 3.21351 20.0093 3.18755C20.0541 3.1616 20.0932 3.12702 20.1245 3.08582C20.1558 3.04462 20.1785 2.99762 20.1915 2.94754C20.2044 2.89747 20.2073 2.84532 20.2 2.79412C20.1926 2.74293 20.1752 2.6937 20.1486 2.6493C20.1221 2.6049 20.087 2.56621 20.0454 2.53548C17.8777 0.88328 15.2257 -0.00792684 12.5001 -7.0571e-05C10.0306 -0.00140573 7.61605 0.729172 5.5615 2.09938C3.50696 3.46958 1.90459 5.41795 0.956784 7.69836C0.00898084 9.97877 -0.241729 12.4889 0.236324 14.9118C0.714377 17.3346 1.89975 19.5614 3.6427 21.3109C3.65012 21.3199 3.65324 21.3304 3.66145 21.3386C3.66965 21.3468 3.6802 21.3499 3.68918 21.3574C6.03974 23.6784 9.21372 24.9744 12.5171 24.9619C15.8205 24.9493 18.9846 23.6293 21.3174 21.2904C23.6503 18.9515 24.9621 15.784 24.9661 12.4806C24.9701 9.1772 23.666 6.00658 21.3388 3.66204V3.66126ZM12.5001 24.2187C9.5276 24.2203 6.66647 23.0877 4.50051 21.0519L21.0548 4.49641C22.616 6.1641 23.6556 8.25183 24.0456 10.5027C24.4357 12.7536 24.1592 15.0694 23.2501 17.1651C22.3411 19.2609 20.8392 21.0451 18.9292 22.2984C17.0192 23.5516 14.7845 24.2191 12.5001 24.2187Z" fill="#033F2D"/>
</g>
<defs>
<clipPath id="clip0_415_27057">
<rect width="25" height="25" fill="white"/>
</clipPath>
</defs>
</svg>
