<svg width="25" height="25" viewBox="0 0 25 25" fill="none" xmlns="http://www.w3.org/2000/svg">
<g clip-path="url(#clip0_276_8538)">
<path d="M21.0938 1.95313H16.0156V0.390627C16.0156 0.287026 15.9745 0.187669 15.9012 0.114413C15.828 0.0411566 15.7286 1.56573e-06 15.625 1.56573e-06H7.72109C6.98306 -0.000695237 6.26358 0.2312 5.66486 0.662742C5.06615 1.09428 4.61865 1.70352 4.38594 2.40391L3.69609 4.47422C3.57636 4.83263 3.51542 5.20806 3.51563 5.58594V20.3125C3.51563 20.4161 3.55678 20.5155 3.63004 20.5887C3.70329 20.662 3.80265 20.7031 3.90625 20.7031C4.00985 20.7031 4.10921 20.662 4.18246 20.5887C4.25572 20.5155 4.29688 20.4161 4.29688 20.3125V8.59375H13.6719V23.8281C13.6719 23.9317 13.6307 24.0311 13.5575 24.1043C13.4842 24.1776 13.3849 24.2188 13.2813 24.2188H4.6875C4.5839 24.2188 4.48454 24.1776 4.41129 24.1043C4.33803 24.0311 4.29688 23.9317 4.29688 23.8281V21.875C4.29688 21.7714 4.25572 21.672 4.18246 21.5988C4.10921 21.5255 4.00985 21.4844 3.90625 21.4844C3.80265 21.4844 3.70329 21.5255 3.63004 21.5988C3.55678 21.672 3.51563 21.7714 3.51563 21.875V23.8281C3.51563 24.1389 3.63909 24.437 3.85886 24.6568C4.07863 24.8765 4.3767 25 4.6875 25H13.2813C13.5921 25 13.8901 24.8765 14.1099 24.6568C14.3297 24.437 14.4531 24.1389 14.4531 23.8281V7.03125C14.4531 6.92765 14.412 6.82829 14.3387 6.75504C14.2655 6.68178 14.1661 6.64063 14.0625 6.64063C13.9589 6.64063 13.8595 6.68178 13.7863 6.75504C13.713 6.82829 13.6719 6.92765 13.6719 7.03125V7.8125H4.29688V5.58594C4.29682 5.29212 4.34417 5.00022 4.43711 4.72149L5.12695 2.65117C5.30799 2.10641 5.65606 1.63254 6.12175 1.29686C6.58743 0.961189 7.14704 0.780776 7.72109 0.781252H13.6719V5.46875C13.6719 5.57235 13.713 5.67171 13.7863 5.74497C13.8595 5.81822 13.9589 5.85938 14.0625 5.85938C14.1661 5.85938 14.2655 5.81822 14.3387 5.74497C14.412 5.67171 14.4531 5.57235 14.4531 5.46875V4.6875H15.625C15.7286 4.6875 15.828 4.64635 15.9012 4.57309C15.9745 4.49983 16.0156 4.40048 16.0156 4.29688V2.73438H21.0938C21.1973 2.73438 21.2967 2.69322 21.37 2.61997C21.4432 2.54671 21.4844 2.44735 21.4844 2.34375C21.4844 2.24015 21.4432 2.14079 21.37 2.06754C21.2967 1.99428 21.1973 1.95313 21.0938 1.95313ZM15.2344 3.90625H14.4531V0.781252H15.2344V3.90625Z" fill="#033F2D"/>
<path d="M8.98437 13.2815C9.2917 13.2815 9.59733 13.3269 9.89141 13.4162C9.9903 13.4454 10.0967 13.4343 10.1875 13.3854C10.2782 13.3364 10.3459 13.2536 10.3759 13.1549C10.4058 13.0562 10.3954 12.9497 10.3471 12.8586C10.2988 12.7675 10.2164 12.6992 10.118 12.6686C9.28561 12.4153 8.3925 12.4474 7.58043 12.7596C6.76837 13.0719 6.08388 13.6465 5.63564 14.3922C5.18741 15.1378 5.00111 16.0119 5.10633 16.8755C5.21154 17.7392 5.60225 18.5429 6.2164 19.1592C6.21762 19.1627 6.21963 19.1659 6.22227 19.1686C6.22491 19.1712 6.22811 19.1732 6.23164 19.1744C6.97112 19.8751 7.95507 20.2592 8.97367 20.2447C9.99228 20.2303 10.965 19.8185 11.6843 19.0972C12.4036 18.3759 12.8127 17.4021 12.8243 16.3834C12.836 15.3648 12.4492 14.3819 11.7465 13.6444C11.6732 13.5711 11.5739 13.53 11.4703 13.53C11.3667 13.53 11.2674 13.5711 11.1941 13.6444L9.79492 15.0436C8.9168 14.3365 7.8832 14.1924 7.32695 14.749C6.7707 15.3057 6.91484 16.3389 7.62148 17.217L6.51875 18.3205C6.15893 17.8593 5.93602 17.3063 5.87544 16.7245C5.81486 16.1427 5.91906 15.5556 6.17615 15.0301C6.43324 14.5047 6.83286 14.0622 7.32941 13.753C7.82596 13.4438 8.39943 13.2804 8.98437 13.2815ZM8.98437 19.5315C8.29063 19.5315 7.61681 19.2994 7.07031 18.8721L8.17148 17.7709C8.61022 18.1521 9.16377 18.3756 9.74414 18.4061C9.90916 18.412 10.0737 18.3847 10.228 18.3259C10.3823 18.2672 10.5233 18.1781 10.6426 18.0639C11.1988 17.5072 11.0547 16.474 10.348 15.5959L11.4512 14.4924C11.8103 14.9539 12.0325 15.5069 12.0927 16.0886C12.1528 16.6702 12.0484 17.257 11.7913 17.7822C11.5342 18.3074 11.1347 18.7498 10.6385 19.0591C10.1422 19.3683 9.56911 19.532 8.98437 19.5315ZM9.7918 16.1514C10.2105 16.7088 10.3102 17.2904 10.0895 17.5115C9.86875 17.7326 9.28633 17.6322 8.7293 17.2139L9.7918 16.1514ZM7.87773 15.3014C7.9731 15.2192 8.09704 15.1779 8.22265 15.1865C8.59559 15.2171 8.95013 15.3615 9.23828 15.6002L8.17695 16.6615C7.7582 16.1041 7.65859 15.5225 7.8793 15.3014H7.87773Z" fill="#033F2D"/>
</g>
<defs>
<clipPath id="clip0_276_8538">
<rect width="25" height="25" fill="white"/>
</clipPath>
</defs>
</svg>
