<svg width="25" height="25" viewBox="0 0 25 25" fill="none" xmlns="http://www.w3.org/2000/svg">
<g clip-path="url(#clip0_409_19206)">
<path d="M21.0938 1.95313H16.0156V0.390627C16.0156 0.287026 15.9745 0.187669 15.9012 0.114413C15.828 0.0411566 15.7286 1.56573e-06 15.625 1.56573e-06H7.72109C6.98306 -0.000695237 6.26358 0.2312 5.66486 0.662742C5.06615 1.09428 4.61865 1.70352 4.38594 2.40391L3.69609 4.47422C3.57636 4.83263 3.51542 5.20806 3.51563 5.58594V20.3125C3.51563 20.4161 3.55678 20.5155 3.63004 20.5887C3.70329 20.662 3.80265 20.7031 3.90625 20.7031C4.00985 20.7031 4.10921 20.662 4.18246 20.5887C4.25572 20.5155 4.29688 20.4161 4.29688 20.3125V8.59375H13.6719V23.8281C13.6719 23.9317 13.6307 24.0311 13.5575 24.1043C13.4842 24.1776 13.3849 24.2188 13.2813 24.2188H4.6875C4.5839 24.2188 4.48454 24.1776 4.41129 24.1043C4.33803 24.0311 4.29688 23.9317 4.29688 23.8281V21.875C4.29688 21.7714 4.25572 21.672 4.18246 21.5988C4.10921 21.5255 4.00985 21.4844 3.90625 21.4844C3.80265 21.4844 3.70329 21.5255 3.63004 21.5988C3.55678 21.672 3.51563 21.7714 3.51563 21.875V23.8281C3.51563 24.1389 3.63909 24.437 3.85886 24.6568C4.07863 24.8765 4.3767 25 4.6875 25H13.2813C13.5921 25 13.8901 24.8765 14.1099 24.6568C14.3297 24.437 14.4531 24.1389 14.4531 23.8281V7.03125C14.4531 6.92765 14.412 6.82829 14.3387 6.75504C14.2655 6.68178 14.1661 6.64063 14.0625 6.64063C13.9589 6.64063 13.8595 6.68178 13.7863 6.75504C13.713 6.82829 13.6719 6.92765 13.6719 7.03125V7.8125H4.29688V5.58594C4.29682 5.29212 4.34417 5.00022 4.43711 4.72149L5.12695 2.65117C5.30799 2.10641 5.65606 1.63254 6.12175 1.29686C6.58743 0.961189 7.14704 0.780776 7.72109 0.781252H13.6719V5.46875C13.6719 5.57235 13.713 5.67171 13.7863 5.74497C13.8595 5.81822 13.9589 5.85938 14.0625 5.85938C14.1661 5.85938 14.2655 5.81822 14.3387 5.74497C14.412 5.67171 14.4531 5.57235 14.4531 5.46875V4.6875H15.625C15.7286 4.6875 15.828 4.64635 15.9012 4.57309C15.9745 4.49983 16.0156 4.40048 16.0156 4.29688V2.73438H21.0938C21.1973 2.73438 21.2967 2.69322 21.37 2.61997C21.4432 2.54671 21.4844 2.44735 21.4844 2.34375C21.4844 2.24015 21.4432 2.14079 21.37 2.06754C21.2967 1.99428 21.1973 1.95313 21.0938 1.95313ZM15.2344 3.90625H14.4531V0.781252H15.2344V3.90625Z" fill="#033F2D"/>
<path d="M8.98434 13.2813C9.29167 13.2814 9.5973 13.3268 9.89138 13.4161C9.99027 13.4453 10.0967 13.4342 10.1875 13.3853C10.2782 13.3363 10.3459 13.2534 10.3758 13.1548C10.4057 13.0561 10.3954 12.9496 10.3471 12.8585C10.2988 12.7674 10.2164 12.6991 10.1179 12.6684C9.28558 12.4152 8.39247 12.4472 7.5804 12.7595C6.76834 13.0718 6.08385 13.6463 5.63561 14.392C5.18738 15.1377 5.00108 16.0118 5.1063 16.8754C5.21151 17.7391 5.60221 18.5428 6.21637 19.1591C6.21759 19.1626 6.2196 19.1658 6.22224 19.1684C6.22488 19.1711 6.22808 19.1731 6.23161 19.1743C6.97109 19.875 7.95504 20.259 8.97364 20.2446C9.99225 20.2302 10.9649 19.8184 11.6843 19.0971C12.4036 18.3757 12.8127 17.4019 12.8243 16.3833C12.8359 15.3647 12.4492 14.3818 11.7465 13.6442C11.6732 13.571 11.5739 13.5299 11.4703 13.5299C11.3667 13.5299 11.2674 13.571 11.1941 13.6442L9.79489 15.0434C8.91677 14.3364 7.88317 14.1923 7.32692 14.7489C6.77067 15.3056 6.91481 16.3388 7.62145 17.2169L6.51872 18.3204C6.1589 17.8592 5.93598 17.3062 5.87541 16.7244C5.81483 16.1426 5.91903 15.5554 6.17612 15.03C6.43321 14.5046 6.83283 14.062 7.32938 13.7528C7.82593 13.4436 8.3994 13.2803 8.98434 13.2813ZM8.98434 19.5313C8.2906 19.5314 7.61678 19.2993 7.07028 18.872L8.17145 17.7708C8.61019 18.1519 9.16374 18.3755 9.74411 18.4059C9.90913 18.4118 10.0737 18.3846 10.228 18.3258C10.3823 18.267 10.5233 18.1779 10.6425 18.0638C11.1988 17.5071 11.0547 16.4739 10.348 15.5958L11.4511 14.4923C11.8102 14.9538 12.0325 15.5068 12.0926 16.0884C12.1528 16.6701 12.0483 17.2569 11.7912 17.7821C11.5341 18.3073 11.1347 18.7497 10.6385 19.0589C10.1422 19.3682 9.56908 19.5319 8.98434 19.5313ZM9.79177 16.1513C10.2105 16.7087 10.3101 17.2903 10.0894 17.5114C9.86872 17.7325 9.2863 17.6321 8.72927 17.2138L9.79177 16.1513ZM7.8777 15.3013C7.97307 15.2191 8.09701 15.1778 8.22262 15.1864C8.59556 15.217 8.9501 15.3614 9.23825 15.6001L8.17692 16.6614C7.75817 16.104 7.65856 15.5224 7.87926 15.3013H7.8777Z" fill="#033F2D"/>
</g>
<defs>
<clipPath id="clip0_409_19206">
<rect width="25" height="25" fill="white"/>
</clipPath>
</defs>
</svg>
