<svg width="30" height="30" viewBox="0 0 30 30" fill="none" xmlns="http://www.w3.org/2000/svg">
<g clip-path="url(#clip0_276_4648)">
<path d="M12.1875 12.1875C13.4303 12.1861 14.6218 11.6918 15.5006 10.8131C16.3793 9.93427 16.8736 8.74278 16.875 7.5V4.6875H18.2812C18.4056 4.6875 18.5248 4.63811 18.6127 4.55021C18.7006 4.4623 18.75 4.34307 18.75 4.21875C18.75 4.09443 18.7006 3.9752 18.6127 3.88729C18.5248 3.79939 18.4056 3.75 18.2812 3.75H16.875V3.28125C16.874 2.41131 16.528 1.57729 15.9128 0.962152C15.2977 0.347013 14.4637 0.000992513 13.5938 0L10.7812 0C9.91131 0.000992513 9.07729 0.347013 8.46215 0.962152C7.84701 1.57729 7.50099 2.41131 7.5 3.28125V7.5C7.50136 8.74278 7.99566 9.93427 8.87444 10.8131C9.75323 11.6918 10.9447 12.1861 12.1875 12.1875ZM8.4375 4.6875H15.9375V6.44719L12.2892 5.63625C12.2222 5.62125 12.1528 5.62125 12.0858 5.63625L8.4375 6.44719V4.6875ZM8.4375 3.28125C8.43824 2.65988 8.68541 2.06417 9.12479 1.62479C9.56417 1.18541 10.1599 0.938244 10.7812 0.9375H13.5938C14.2151 0.938244 14.8108 1.18541 15.2502 1.62479C15.6896 2.06417 15.9368 2.65988 15.9375 3.28125V3.75H8.4375V3.28125ZM8.4375 7.40625L12.1875 6.57281L15.9375 7.40625V7.5C15.9375 8.49456 15.5424 9.44839 14.8392 10.1517C14.1359 10.8549 13.1821 11.25 12.1875 11.25C11.1929 11.25 10.2391 10.8549 9.53585 10.1517C8.83259 9.44839 8.4375 8.49456 8.4375 7.5V7.40625Z" fill="#033F2D"/>
<path d="M2.8125 26.25H1.40625C1.28193 26.25 1.1627 26.2006 1.07479 26.1127C0.986886 26.0248 0.9375 25.9056 0.9375 25.7812V11.7188C0.9375 11.5944 0.986886 11.4752 1.07479 11.3873C1.1627 11.2994 1.28193 11.25 1.40625 11.25H4.21875C4.34307 11.25 4.4623 11.2994 4.55021 11.3873C4.63811 11.4752 4.6875 11.5944 4.6875 11.7188C4.6875 11.8431 4.73689 11.9623 4.82479 12.0502C4.9127 12.1381 5.03193 12.1875 5.15625 12.1875C5.28057 12.1875 5.3998 12.1381 5.48771 12.0502C5.57561 11.9623 5.625 11.8431 5.625 11.7188C5.625 11.3458 5.47684 10.9881 5.21312 10.7244C4.9494 10.4607 4.59171 10.3125 4.21875 10.3125H3.28125V9.375H3.75C4.12296 9.375 4.48065 9.22684 4.74437 8.96312C5.00809 8.6994 5.15625 8.34171 5.15625 7.96875V7.03125C5.15625 6.65829 5.00809 6.3006 4.74437 6.03688C4.48065 5.77316 4.12296 5.625 3.75 5.625H1.875C1.50204 5.625 1.14435 5.77316 0.880631 6.03688C0.616908 6.3006 0.46875 6.65829 0.46875 7.03125V7.96875C0.46875 8.34171 0.616908 8.6994 0.880631 8.96312C1.14435 9.22684 1.50204 9.375 1.875 9.375H2.34375V10.3125H1.40625C1.03329 10.3125 0.675604 10.4607 0.411881 10.7244C0.148158 10.9881 0 11.3458 0 11.7188L0 25.7812C0 26.1542 0.148158 26.5119 0.411881 26.7756C0.675604 27.0393 1.03329 27.1875 1.40625 27.1875H2.8125C2.93682 27.1875 3.05605 27.1381 3.14396 27.0502C3.23186 26.9623 3.28125 26.8431 3.28125 26.7188C3.28125 26.5944 3.23186 26.4752 3.14396 26.3873C3.05605 26.2994 2.93682 26.25 2.8125 26.25ZM1.40625 7.96875V7.03125C1.40625 6.90693 1.45564 6.7877 1.54354 6.69979C1.63145 6.61189 1.75068 6.5625 1.875 6.5625H3.75C3.87432 6.5625 3.99355 6.61189 4.08146 6.69979C4.16936 6.7877 4.21875 6.90693 4.21875 7.03125V7.96875C4.21875 8.09307 4.16936 8.2123 4.08146 8.30021C3.99355 8.38811 3.87432 8.4375 3.75 8.4375H1.875C1.75068 8.4375 1.63145 8.38811 1.54354 8.30021C1.45564 8.2123 1.40625 8.09307 1.40625 7.96875Z" fill="#033F2D"/>
<path d="M21.0605 15.2944C21.0376 15.2372 21.0037 15.1851 20.9607 15.1411C20.9177 15.097 20.8664 15.0619 20.8099 15.0376C20.7533 15.0134 20.6925 15.0005 20.6309 14.9998C20.5694 14.999 20.5083 15.0104 20.4511 15.0333L18.8906 15.6563C18.5822 15.7798 18.3036 15.9674 18.0731 16.2066C17.8426 16.4459 17.6656 16.7314 17.5538 17.0442L15.6094 22.5H7.03125C6.90693 22.5 6.7877 22.5494 6.69979 22.6373C6.61189 22.7252 6.5625 22.8444 6.5625 22.9688C6.5625 23.0931 6.61189 23.2123 6.69979 23.3002C6.7877 23.3881 6.90693 23.4375 7.03125 23.4375H13.5938V26.25H5.15625C4.78329 26.25 4.42561 26.1018 4.16188 25.8381C3.89816 25.5744 3.75 25.2167 3.75 24.8438V15.5264C3.75004 15.2129 3.85486 14.9083 4.04783 14.6612C4.24079 14.414 4.51082 14.2384 4.815 14.1624L8.625 13.2103L9.41016 15.1744C9.43302 15.2315 9.46692 15.2836 9.50992 15.3277C9.55292 15.3717 9.60418 15.4069 9.66077 15.4311C9.71735 15.4554 9.77816 15.4683 9.83972 15.469C9.90128 15.4697 9.96238 15.4583 10.0195 15.4355L12.1875 14.5674L14.3569 15.4355C14.414 15.4583 14.4751 15.4697 14.5367 15.469C14.5982 15.4683 14.6591 15.4554 14.7156 15.4311C14.7722 15.4069 14.8235 15.3717 14.8665 15.3277C14.9095 15.2836 14.9434 15.2315 14.9663 15.1744L15.7514 13.2103L19.5595 14.1624C19.6802 14.1925 19.8079 14.1735 19.9145 14.1095C20.0211 14.0455 20.098 13.9418 20.1281 13.8211C20.1583 13.7004 20.1393 13.5728 20.0753 13.4661C20.0113 13.3595 19.9075 13.2827 19.7869 13.2525L15.5822 12.2016C15.4721 12.1746 15.356 12.1882 15.2551 12.2398C15.1542 12.2915 15.0753 12.3777 15.0328 12.4828L14.2702 14.3906L12.3619 13.627C12.2498 13.583 12.1252 13.583 12.0131 13.627L10.1048 14.3906L9.34172 12.4819C9.29972 12.3764 9.22089 12.2898 9.11985 12.2381C9.01882 12.1864 8.90245 12.1731 8.79234 12.2006L4.58813 13.2525C4.08072 13.3788 3.63019 13.6713 3.30838 14.0834C2.98657 14.4955 2.812 15.0035 2.8125 15.5264V24.8438C2.81325 25.4651 3.06041 26.0608 3.49979 26.5002C3.93917 26.9396 4.53488 27.1868 5.15625 27.1875H15.9375C16.5589 27.1868 17.1546 26.9396 17.594 26.5002C18.0333 26.0608 18.2805 25.4651 18.2813 24.8438V23.9063C18.2813 23.5333 18.1331 23.1756 17.8694 22.9119C17.6056 22.6482 17.248 22.5 16.875 22.5H16.6027L18.4383 17.3602C18.5053 17.1725 18.6115 17.0012 18.7498 16.8577C18.8881 16.7142 19.0553 16.6017 19.2403 16.5277L20.7994 15.9042C20.8566 15.8814 20.9087 15.8474 20.9528 15.8044C20.9969 15.7614 21.0321 15.7101 21.0564 15.6534C21.0806 15.5968 21.0934 15.5359 21.0942 15.4743C21.0949 15.4127 21.0834 15.3516 21.0605 15.2944ZM17.3438 23.9063V24.8438C17.3438 25.2167 17.1956 25.5744 16.9319 25.8381C16.6681 26.1018 16.3105 26.25 15.9375 26.25H14.5313V23.4375H16.875C16.9993 23.4375 17.1186 23.4869 17.2065 23.5748C17.2944 23.6627 17.3438 23.7819 17.3438 23.9063Z" fill="#033F2D"/>
<path d="M26.7188 16.875C26.5944 16.875 26.4752 16.9244 26.3873 17.0123C26.2994 17.1002 26.25 17.2195 26.25 17.3438C26.2501 17.4812 26.22 17.617 26.1618 17.7415C26.1036 17.866 26.0187 17.9761 25.9132 18.0642C25.8077 18.1523 25.6842 18.2161 25.5513 18.2511C25.4184 18.2861 25.2794 18.2914 25.1442 18.2668C24.9607 18.2319 24.7916 18.1436 24.6582 18.0129C24.5247 17.8822 24.4329 17.715 24.3942 17.5322C24.3187 17.0891 24.0899 16.6867 23.7478 16.3952C23.4056 16.1037 22.972 15.9417 22.5225 15.9375H22.5C22.439 15.9378 22.3787 15.9501 22.3226 15.9739C22.2665 15.9977 22.2156 16.0324 22.173 16.076C22.1304 16.1197 22.097 16.1713 22.0746 16.228C22.0522 16.2847 22.0413 16.3453 22.0425 16.4063C22.0451 16.5317 22.0968 16.6512 22.1866 16.7388C22.2764 16.8265 22.397 16.8754 22.5225 16.875C22.7587 16.8831 22.9845 16.9746 23.1597 17.1333C23.3349 17.2919 23.4483 17.5075 23.4797 17.7417C23.5584 18.1054 23.7435 18.4373 24.0115 18.6954C24.2794 18.9535 24.6181 19.1261 24.9844 19.1911C25.0911 19.2094 25.1991 19.2186 25.3073 19.2188C25.7302 19.2195 26.1409 19.0773 26.4728 18.8152C26.8047 18.5532 27.0382 18.1866 27.1355 17.775C27.6759 17.6772 28.1647 17.3927 28.5168 16.9712C28.8688 16.5497 29.0616 16.018 29.0616 15.4688C29.0616 14.9196 28.8688 14.3879 28.5168 13.9664C28.1647 13.5449 27.6759 13.2604 27.1355 13.1625C27.0373 12.7461 26.7996 12.3758 26.4619 12.1131C26.1243 11.8503 25.7069 11.711 25.2791 11.7182C24.8513 11.7253 24.4389 11.8786 24.1102 12.1525C23.7815 12.4264 23.5564 12.8045 23.4722 13.2239C23.4353 13.456 23.3175 13.6676 23.1395 13.8211C22.9616 13.9746 22.735 14.0601 22.5 14.0625C22.439 14.0628 22.3787 14.0751 22.3226 14.0989C22.2665 14.1227 22.2156 14.1574 22.173 14.201C22.1304 14.2447 22.097 14.2963 22.0746 14.353C22.0522 14.4097 22.0413 14.4703 22.0425 14.5313C22.0451 14.6567 22.0968 14.7762 22.1866 14.8638C22.2764 14.9515 22.397 15.0004 22.5225 15C22.9744 14.995 23.4101 14.8309 23.753 14.5365C24.0959 14.2421 24.3241 13.8363 24.3975 13.3903C24.4478 13.1651 24.5793 12.9663 24.7671 12.832C24.9548 12.6977 25.1854 12.6374 25.4148 12.6626C25.6443 12.6878 25.8563 12.7967 26.0104 12.9685C26.1645 13.1404 26.2498 13.363 26.25 13.5938C26.25 13.7181 26.2994 13.8373 26.3873 13.9252C26.4752 14.0131 26.5944 14.0625 26.7188 14.0625C27.0917 14.0625 27.4494 14.2107 27.7131 14.4744C27.9768 14.7381 28.125 15.0958 28.125 15.4688C28.125 15.8417 27.9768 16.1994 27.7131 16.4631C27.4494 16.7269 27.0917 16.875 26.7188 16.875Z" fill="#033F2D"/>
<path d="M28.627 21.998C28.5391 21.9101 28.4199 21.8607 28.2956 21.8607C28.1713 21.8607 28.0521 21.9101 27.9642 21.998L26.2852 23.6771C25.2314 22.8286 23.9883 22.6561 23.3236 23.3236C22.6589 23.9911 22.8291 25.2314 23.677 26.2852L22.3537 27.6094C21.8656 26.9814 21.59 26.2143 21.5669 25.4192C21.5438 24.6241 21.7743 23.8423 22.225 23.1869C22.6758 22.5315 23.3234 22.0366 24.0742 21.7738C24.8249 21.5111 25.6398 21.494 26.4009 21.7252C26.5196 21.7602 26.6473 21.7469 26.7562 21.6882C26.8651 21.6294 26.9464 21.53 26.9823 21.4116C27.0182 21.2931 27.0058 21.1653 26.9478 21.056C26.8898 20.9467 26.791 20.8647 26.6728 20.828C25.674 20.5241 24.6023 20.5625 23.6278 20.9373C22.6533 21.312 21.8319 22.0015 21.294 22.8963C20.7561 23.7911 20.5326 24.84 20.6588 25.8764C20.7851 26.9127 21.2539 27.8772 21.9909 28.6167C21.9924 28.621 21.9948 28.6248 21.998 28.628C22.0011 28.6312 22.005 28.6336 22.0092 28.635C22.8959 29.48 24.0781 29.9444 25.3028 29.9287C26.5276 29.9131 27.6975 29.4187 28.5624 28.5514C29.4272 27.684 29.9182 26.5126 29.9303 25.2879C29.9424 24.0631 29.4746 22.8822 28.627 21.998ZM26.6386 26.6386C26.3728 26.903 25.6748 26.7835 25.0064 26.2814L26.2814 25.0064C26.7839 25.6753 26.9034 26.3733 26.6386 26.6386ZM23.9864 23.9864C24.1008 23.8878 24.2496 23.8383 24.4003 23.8486C24.8478 23.8853 25.2733 24.0586 25.6191 24.345L24.3455 25.6186C23.8411 24.9497 23.7216 24.2517 23.9864 23.9864ZM25.3125 29.0625C24.48 29.0626 23.6714 28.7841 23.0156 28.2713L24.337 26.9499C24.8635 27.4072 25.5278 27.6755 26.2242 27.7121C26.4222 27.7191 26.6197 27.6864 26.8049 27.6159C26.99 27.5454 27.1592 27.4384 27.3023 27.3014C27.9698 26.6335 27.7969 25.3936 26.9489 24.3399L28.2727 23.0156C28.7036 23.5694 28.9703 24.2331 29.0424 24.931C29.1146 25.629 28.9893 26.3332 28.6808 26.9634C28.3723 27.5936 27.8929 28.1245 27.2974 28.4957C26.7019 28.8668 26.0142 29.0632 25.3125 29.0625Z" fill="#033F2D"/>
</g>
<defs>
<clipPath id="clip0_276_4648">
<rect width="30" height="30" fill="white"/>
</clipPath>
</defs>
</svg>
