<svg width="30" height="30" viewBox="0 0 30 30" fill="none" xmlns="http://www.w3.org/2000/svg">
<g clip-path="url(#clip0_276_4660)">
<path d="M18.3753 4.67816C18.4356 4.66585 18.4929 4.64177 18.5439 4.60731C18.5949 4.57285 18.6387 4.52868 18.6726 4.47732C18.7066 4.42596 18.7301 4.36841 18.7418 4.30797C18.7535 4.24752 18.7532 4.18536 18.7409 4.12503C18.7286 4.06471 18.7045 4.0074 18.67 3.95638C18.6356 3.90535 18.5914 3.86162 18.54 3.82767C18.4887 3.79371 18.4311 3.77021 18.3707 3.7585C18.3102 3.74679 18.2481 3.7471 18.1878 3.75941C17.5317 3.89091 16.9099 4.15657 16.3614 4.53973C15.8129 4.92288 15.3495 5.41526 15.0003 5.98597C14.6511 5.41519 14.1877 4.92275 13.6392 4.53959C13.0907 4.15642 12.4688 3.8908 11.8128 3.75941C11.6909 3.73455 11.5642 3.7591 11.4605 3.82767C11.3567 3.89623 11.2845 4.0032 11.2596 4.12503C11.2348 4.24687 11.2593 4.37359 11.3279 4.47732C11.3965 4.58105 11.5034 4.6533 11.6253 4.67816C12.1864 4.78939 12.7165 5.02182 13.1785 5.3592C13.6405 5.69658 14.0232 6.13078 14.2999 6.63144C13.2659 6.82597 12.6565 7.46582 12.6565 8.43753C12.6288 9.23069 12.9021 10.005 13.4215 10.605C13.1045 10.7762 12.8314 11.0184 12.6236 11.3127C12.4158 11.607 12.279 11.9454 12.2239 12.3014C10.804 12.7557 4.80917 14.7572 3.38089 16.5863C3.18729 16.8639 3.0712 17.1881 3.04459 17.5255C3.01798 17.8629 3.0818 18.2013 3.22948 18.5058C3.44464 18.9474 4.04229 19.6875 5.62526 19.6875C8.80854 19.6875 11.1762 16.3678 12.3223 14.3489C12.3622 14.4651 12.4108 14.578 12.4676 14.6869C12.4958 14.7425 12.5348 14.7918 12.5823 14.8322C12.6298 14.8725 12.6848 14.9029 12.7442 14.9217C12.8036 14.9405 12.8661 14.9473 12.9282 14.9416C12.9902 14.936 13.0505 14.918 13.1055 14.8888C13.1605 14.8596 13.2092 14.8197 13.2486 14.7714C13.288 14.7232 13.3174 14.6676 13.3351 14.6079C13.3528 14.5481 13.3584 14.4855 13.3516 14.4235C13.3448 14.3616 13.3257 14.3017 13.2954 14.2472C13.1857 14.0468 13.1272 13.8223 13.1253 13.5938V12.6563C13.1253 12.2833 13.2734 11.9256 13.5371 11.6619C13.8009 11.3982 14.1586 11.25 14.5315 11.25H15.469C15.6975 11.252 15.922 11.3105 16.1224 11.4202C16.2292 11.4675 16.3498 11.4732 16.4606 11.4362C16.5714 11.3993 16.6643 11.3223 16.7213 11.2204C16.7783 11.1185 16.7952 10.9989 16.7687 10.8852C16.7422 10.7715 16.6743 10.6717 16.5781 10.6055C17.098 10.0055 17.3716 9.23099 17.344 8.43753C17.344 7.46582 16.7346 6.82597 15.6987 6.63144C15.9757 6.1306 16.3587 5.69631 16.8211 5.35893C17.2834 5.02154 17.8138 4.7892 18.3753 4.67816ZM5.62526 18.75C4.81808 18.75 4.28089 18.5236 4.07229 18.0938C4.00242 17.9467 3.97013 17.7846 3.97831 17.6219C3.98649 17.4593 4.03489 17.3012 4.11917 17.1619C5.12136 15.8785 9.3012 14.2683 11.7434 13.4438C10.7989 15.2086 8.53808 18.75 5.62526 18.75ZM16.4065 8.43753C16.4065 8.75066 16.3385 10.3125 15.0003 10.3125C13.662 10.3125 13.594 8.75066 13.594 8.43753C13.594 8.20316 13.594 7.50003 15.0003 7.50003C16.4065 7.50003 16.4065 8.2055 16.4065 8.43753Z" fill="#033F2D"/>
<path d="M20.7623 5.29363L19.8248 6.23113C19.7369 6.31902 19.6875 6.43823 19.6875 6.56254V7.50004C19.6875 7.62436 19.7369 7.74359 19.8248 7.83149C19.9127 7.9194 20.0319 7.96879 20.1562 7.96879C20.2806 7.96879 20.3998 7.9194 20.4877 7.83149C20.5756 7.74359 20.625 7.62436 20.625 7.50004V6.7566L21.4252 5.95644C21.5105 5.86804 21.5578 5.74963 21.5567 5.62673C21.5557 5.50382 21.5064 5.38625 21.4194 5.29934C21.3325 5.21243 21.215 5.16313 21.0921 5.16207C20.9692 5.161 20.8508 5.20825 20.7623 5.29363Z" fill="#033F2D"/>
<path d="M10.1752 6.23113L9.2377 5.29363C9.14929 5.20825 9.03088 5.161 8.90798 5.16207C8.78507 5.16313 8.6675 5.21243 8.58059 5.29934C8.49368 5.38625 8.44438 5.50382 8.44332 5.62673C8.44225 5.74963 8.4895 5.86804 8.57488 5.95644L9.37504 6.7566V8.43754C9.37507 8.56185 9.42447 8.68106 9.51238 8.76895L11.3874 10.6439C11.4758 10.7293 11.5942 10.7766 11.7171 10.7755C11.84 10.7744 11.9576 10.7251 12.0445 10.6382C12.1314 10.5513 12.1807 10.4338 12.1818 10.3109C12.1828 10.1879 12.1356 10.0695 12.0502 9.98113L10.3125 8.24348V6.56254C10.3125 6.43823 10.2631 6.31902 10.1752 6.23113Z" fill="#033F2D"/>
<path d="M20.625 23.2434V20.1562C20.6249 20.0637 20.5975 19.9732 20.5463 19.8961L19.6088 18.4898C19.5398 18.3864 19.4325 18.3146 19.3106 18.2903C19.1886 18.2659 19.062 18.291 18.9586 18.36C18.8552 18.429 18.7834 18.5363 18.759 18.6582C18.7347 18.7801 18.7598 18.9067 18.8287 19.0102L19.6875 20.2969V23.4375C19.6875 23.5618 19.7369 23.681 19.8248 23.7689L21.6998 25.6439C21.7883 25.7293 21.9067 25.7765 22.0296 25.7755C22.1525 25.7744 22.27 25.7251 22.3569 25.6382C22.4439 25.5513 22.4932 25.4337 22.4942 25.3108C22.4953 25.1879 22.448 25.0695 22.3627 24.9811L20.625 23.2434Z" fill="#033F2D"/>
<path d="M16.8256 15.2648C16.7655 15.2786 16.7088 15.3041 16.6586 15.3398C16.6083 15.3755 16.5656 15.4208 16.5329 15.4731C16.5003 15.5253 16.4782 15.5835 16.468 15.6443C16.4578 15.7051 16.4597 15.7673 16.4736 15.8273C16.7491 17.0954 16.8838 18.3899 16.8753 19.6875C16.882 21.6454 16.2205 23.547 15.0003 25.0781C13.8408 23.6225 13.1865 21.8291 13.1361 19.9687C13.1342 19.9072 13.1201 19.8466 13.0948 19.7905C13.0694 19.7344 13.0333 19.6838 12.9884 19.6416C12.9435 19.5995 12.8907 19.5666 12.8331 19.5448C12.7755 19.523 12.7141 19.5128 12.6526 19.5148C12.591 19.5167 12.5305 19.5307 12.4743 19.5561C12.4182 19.5814 12.3676 19.6176 12.3254 19.6625C12.2833 19.7074 12.2504 19.7602 12.2286 19.8178C12.2069 19.8754 12.1967 19.9367 12.1986 19.9983C12.2388 22.2755 13.1219 24.4569 14.6773 26.1206C14.7644 26.2029 14.8796 26.2487 14.9994 26.2487C15.1191 26.2487 15.2344 26.2029 15.3214 26.1206C16.9546 24.3804 17.8478 22.0738 17.8128 19.6875C17.8215 18.3191 17.6787 16.9539 17.3872 15.6169C17.3594 15.4957 17.2846 15.3906 17.1793 15.3246C17.074 15.2586 16.9468 15.2371 16.8256 15.2648Z" fill="#033F2D"/>
<path d="M26.6192 16.5867C25.5762 15.2508 22.1661 13.8347 19.4853 12.8836C19.3681 12.8419 19.2392 12.8485 19.1269 12.9019C19.0146 12.9553 18.9281 13.0512 18.8864 13.1683C18.8448 13.2855 18.8514 13.4144 18.9048 13.5267C18.9582 13.639 19.054 13.7255 19.1712 13.7672C22.7398 15.0366 25.1853 16.2755 25.8804 17.1661C25.965 17.3052 26.0136 17.4632 26.0218 17.6259C26.03 17.7885 25.9975 17.9506 25.9273 18.0975C25.7192 18.5236 25.182 18.75 24.3748 18.75C21.7667 18.75 19.6728 15.8737 18.6561 14.1591C18.6247 14.1061 18.5831 14.0598 18.5339 14.0229C18.4846 13.986 18.4285 13.9591 18.3689 13.9439C18.3092 13.9286 18.2471 13.9252 18.1862 13.934C18.1252 13.9427 18.0666 13.9634 18.0136 13.9948C17.9607 14.0261 17.9144 14.0677 17.8775 14.1169C17.8405 14.1662 17.8137 14.2223 17.7984 14.2819C17.7832 14.3416 17.7798 14.4037 17.7886 14.4646C17.7973 14.5256 17.8179 14.5842 17.8493 14.6372C19.2153 16.9411 21.4554 19.6875 24.3748 19.6875C25.9578 19.6875 26.5554 18.9473 26.7706 18.5058C26.9183 18.2013 26.9821 17.863 26.9555 17.5257C26.9289 17.1884 26.8128 16.8642 26.6192 16.5867Z" fill="#033F2D"/>
<path d="M10.3123 21.5625C10.188 21.5625 10.0687 21.6119 9.98082 21.6998C9.89291 21.7877 9.84353 21.9069 9.84353 22.0312V23.2434L8.10587 24.9811C8.0611 25.0243 8.02539 25.0761 8.00083 25.1332C7.97626 25.1904 7.96333 25.2519 7.96279 25.3142C7.96225 25.3764 7.97411 25.4382 7.99767 25.4958C8.02124 25.5534 8.05605 25.6057 8.10006 25.6497C8.14407 25.6937 8.19641 25.7285 8.25402 25.7521C8.31163 25.7757 8.37335 25.7875 8.43559 25.787C8.49783 25.7865 8.55934 25.7735 8.61653 25.749C8.67372 25.7244 8.72544 25.6887 8.76869 25.6439L10.6437 23.7689C10.7316 23.681 10.781 23.5618 10.781 23.4375V22.0312C10.781 21.9069 10.7316 21.7877 10.6437 21.6998C10.5558 21.6119 10.4366 21.5625 10.3123 21.5625Z" fill="#033F2D"/>
<path d="M25.6064 4.39359C25.5185 4.30572 25.3993 4.25635 25.275 4.25635C25.1507 4.25635 25.0315 4.30572 24.9436 4.39359L4.73762 24.5995C2.33132 22.0288 0.977536 18.6485 0.944096 15.1274C0.910655 11.6063 2.19999 8.20087 4.55703 5.58485C6.91407 2.96883 10.1671 1.33274 13.6726 1.00026C17.1782 0.667782 20.6808 1.66312 23.4876 3.78938C23.5366 3.82754 23.5926 3.85559 23.6525 3.87192C23.7124 3.88825 23.7749 3.89252 23.8364 3.8845C23.898 3.87647 23.9573 3.85629 24.011 3.82515C24.0647 3.794 24.1117 3.75251 24.1492 3.70307C24.1867 3.65363 24.2141 3.59723 24.2296 3.53714C24.2452 3.47705 24.2486 3.41447 24.2398 3.35303C24.231 3.2916 24.21 3.23253 24.1782 3.17924C24.1464 3.12596 24.1043 3.07954 24.0543 3.04266C21.4531 1.06002 18.2706 -0.00942676 15 7.63976e-07C12.0365 -0.00160142 9.13907 0.875092 6.67362 2.51934C4.20817 4.16359 2.28532 6.50162 1.14796 9.23812C0.0105939 11.9746 -0.290258 14.9868 0.283406 17.8942C0.857069 20.8016 2.27951 23.4737 4.37105 25.5731C4.37996 25.5839 4.38371 25.5966 4.39355 25.6064C4.4034 25.6163 4.41605 25.62 4.42684 25.6289C7.2475 28.4142 11.0563 29.9694 15.0204 29.9543C18.9844 29.9393 22.7813 28.3552 25.5807 25.5485C28.3801 22.7419 29.9543 18.9409 29.9592 14.9768C29.964 11.0127 28.399 7.20798 25.6064 4.39453V4.39359ZM15 29.0625C11.4329 29.0645 7.99959 27.7053 5.40043 25.2623L25.2656 5.39578C27.139 7.39701 28.3865 9.90229 28.8546 12.6033C29.3226 15.3044 28.9908 18.0833 27.9 20.5982C26.8091 23.1131 25.0068 25.2542 22.7148 26.7581C20.4229 28.262 17.7413 29.063 15 29.0625Z" fill="#033F2D"/>
</g>
<defs>
<clipPath id="clip0_276_4660">
<rect width="30" height="30" fill="white"/>
</clipPath>
</defs>
</svg>
