<svg width="24" height="24" viewBox="0 0 24 24" fill="none" xmlns="http://www.w3.org/2000/svg">
<g clip-path="url(#clip0_471_621)">
<path d="M12.807 11.826C12.5527 11.9364 12.2785 11.9934 12.0013 11.9934C11.7241 11.9934 11.4499 11.9364 11.1956 11.826L1.42416 7.30031C1.26549 7.22028 1.13214 7.09778 1.03898 6.94644C0.945813 6.79511 0.896484 6.62088 0.896484 6.44317C0.896484 6.26546 0.945813 6.09123 1.03898 5.9399C1.13214 5.78856 1.26549 5.66606 1.42416 5.58603L11.1956 1.02603C11.4499 0.915616 11.7241 0.858643 12.0013 0.858643C12.2785 0.858643 12.5527 0.915616 12.807 1.02603L22.5784 5.55174C22.7371 5.63177 22.8705 5.75428 22.9636 5.90561C23.0568 6.05695 23.1061 6.23117 23.1061 6.40888C23.1061 6.5866 23.0568 6.76082 22.9636 6.91216C22.8705 7.06349 22.7371 7.186 22.5784 7.26603L12.807 11.826Z" stroke="#033F2D" stroke-width="1.5" stroke-linecap="round" stroke-linejoin="round"/>
<path d="M23.1431 12.5966L12.686 17.4137C12.4627 17.5156 12.22 17.5683 11.9746 17.5683C11.7291 17.5683 11.4865 17.5156 11.2631 17.4137L0.857422 12.5966" stroke="#033F2D" stroke-width="1.5" stroke-linecap="round" stroke-linejoin="round"/>
<path d="M23.1431 18.1683L12.686 22.9854C12.4627 23.0873 12.22 23.14 11.9746 23.14C11.7291 23.14 11.4865 23.0873 11.2631 22.9854L0.857422 18.1683" stroke="#033F2D" stroke-width="1.5" stroke-linecap="round" stroke-linejoin="round"/>
</g>
<defs>
<clipPath id="clip0_471_621">
<rect width="24" height="24" fill="white"/>
</clipPath>
</defs>
</svg>
