<svg width="25" height="25" viewBox="0 0 25 25" fill="none" xmlns="http://www.w3.org/2000/svg">
<g clip-path="url(#clip0_276_4980)">
<path d="M10.1562 10.1562C11.1919 10.1551 12.1848 9.7432 12.9171 9.01088C13.6494 8.27856 14.0614 7.28565 14.0625 6.25V3.90625H15.2344C15.338 3.90625 15.4373 3.86509 15.5106 3.79184C15.5838 3.71858 15.625 3.61923 15.625 3.51562C15.625 3.41202 15.5838 3.31267 15.5106 3.23941C15.4373 3.16616 15.338 3.125 15.2344 3.125H14.0625V2.73438C14.0617 2.00943 13.7733 1.31441 13.2607 0.801793C12.7481 0.289178 12.0531 0.000827094 11.3281 0L8.98438 0C8.25943 0.000827094 7.56441 0.289178 7.05179 0.801793C6.53918 1.31441 6.25083 2.00943 6.25 2.73438V6.25C6.25114 7.28565 6.66305 8.27856 7.39537 9.01088C8.12769 9.7432 9.1206 10.1551 10.1562 10.1562ZM7.03125 3.90625H13.2812V5.37266L10.241 4.69688C10.1852 4.68437 10.1273 4.68437 10.0715 4.69688L7.03125 5.37266V3.90625ZM7.03125 2.73438C7.03187 2.21656 7.23784 1.72014 7.60399 1.35399C7.97014 0.987845 8.46656 0.78187 8.98438 0.78125H11.3281C11.8459 0.78187 12.3424 0.987845 12.7085 1.35399C13.0747 1.72014 13.2806 2.21656 13.2812 2.73438V3.125H7.03125V2.73438ZM7.03125 6.17188L10.1562 5.47734L13.2812 6.17188V6.25C13.2812 7.0788 12.952 7.87366 12.366 8.45971C11.7799 9.04576 10.9851 9.375 10.1562 9.375C9.32745 9.375 8.53259 9.04576 7.94654 8.45971C7.36049 7.87366 7.03125 7.0788 7.03125 6.25V6.17188Z" fill="#033F2D"/>
<path d="M2.34375 21.875H1.17188C1.06827 21.875 0.968918 21.8338 0.895661 21.7606C0.822405 21.6873 0.78125 21.588 0.78125 21.4844V9.76562C0.78125 9.66202 0.822405 9.56267 0.895661 9.48941C0.968918 9.41615 1.06827 9.375 1.17188 9.375H3.51562C3.61923 9.375 3.71858 9.41615 3.79184 9.48941C3.86509 9.56267 3.90625 9.66202 3.90625 9.76562C3.90625 9.86923 3.94741 9.96858 4.02066 10.0418C4.09392 10.1151 4.19327 10.1562 4.29688 10.1562C4.40048 10.1562 4.49983 10.1151 4.57309 10.0418C4.64635 9.96858 4.6875 9.86923 4.6875 9.76562C4.6875 9.45482 4.56403 9.15675 4.34427 8.93698C4.1245 8.71722 3.82643 8.59375 3.51562 8.59375H2.73438V7.8125H3.125C3.4358 7.8125 3.73387 7.68904 3.95364 7.46927C4.17341 7.2495 4.29688 6.95143 4.29688 6.64062V5.85938C4.29688 5.54857 4.17341 5.2505 3.95364 5.03073C3.73387 4.81096 3.4358 4.6875 3.125 4.6875H1.5625C1.2517 4.6875 0.953628 4.81096 0.733859 5.03073C0.51409 5.2505 0.390625 5.54857 0.390625 5.85938V6.64062C0.390625 6.95143 0.51409 7.2495 0.733859 7.46927C0.953628 7.68904 1.2517 7.8125 1.5625 7.8125H1.95312V8.59375H1.17188C0.861074 8.59375 0.563003 8.71722 0.343234 8.93698C0.123465 9.15675 0 9.45482 0 9.76562L0 21.4844C0 21.7952 0.123465 22.0932 0.343234 22.313C0.563003 22.5328 0.861074 22.6562 1.17188 22.6562H2.34375C2.44735 22.6562 2.54671 22.6151 2.61996 22.5418C2.69322 22.4686 2.73438 22.3692 2.73438 22.2656C2.73438 22.162 2.69322 22.0627 2.61996 21.9894C2.54671 21.9162 2.44735 21.875 2.34375 21.875ZM1.17188 6.64062V5.85938C1.17188 5.75577 1.21303 5.65642 1.28629 5.58316C1.35954 5.50991 1.4589 5.46875 1.5625 5.46875H3.125C3.2286 5.46875 3.32796 5.50991 3.40121 5.58316C3.47447 5.65642 3.51562 5.75577 3.51562 5.85938V6.64062C3.51562 6.74423 3.47447 6.84358 3.40121 6.91684C3.32796 6.9901 3.2286 7.03125 3.125 7.03125H1.5625C1.4589 7.03125 1.35954 6.9901 1.28629 6.91684C1.21303 6.84358 1.17188 6.74423 1.17188 6.64062Z" fill="#033F2D"/>
<path d="M17.5504 12.7453C17.5313 12.6977 17.5031 12.6543 17.4673 12.6176C17.4314 12.5809 17.3887 12.5516 17.3416 12.5314C17.2944 12.5112 17.2437 12.5005 17.1924 12.4998C17.1411 12.4992 17.0902 12.5087 17.0426 12.5278L15.7422 13.0469C15.4852 13.1498 15.253 13.3062 15.0609 13.5056C14.8689 13.705 14.7213 13.9429 14.6281 14.2036L13.0078 18.75H5.85938C5.75578 18.75 5.65642 18.7912 5.58316 18.8644C5.50991 18.9377 5.46875 19.0371 5.46875 19.1407C5.46875 19.2443 5.50991 19.3436 5.58316 19.4169C5.65642 19.4901 5.75578 19.5313 5.85938 19.5313H11.3281V21.875H4.29688C3.98608 21.875 3.688 21.7516 3.46824 21.5318C3.24847 21.312 3.125 21.014 3.125 20.7032V12.9387C3.12503 12.6774 3.21239 12.4236 3.37319 12.2177C3.53399 12.0117 3.75901 11.8654 4.0125 11.802L7.1875 11.0086L7.8418 12.6454C7.86085 12.693 7.8891 12.7364 7.92494 12.7731C7.96077 12.8098 8.00348 12.8391 8.05064 12.8593C8.09779 12.8795 8.14847 12.8902 8.19976 12.8909C8.25106 12.8915 8.30198 12.882 8.34961 12.8629L10.1563 12.1395L11.9641 12.8629C12.0117 12.882 12.0626 12.8915 12.1139 12.8909C12.1652 12.8902 12.2159 12.8795 12.263 12.8593C12.3102 12.8391 12.3529 12.8098 12.3887 12.7731C12.4246 12.7364 12.4528 12.693 12.4719 12.6454L13.1262 11.0086L16.2996 11.802C16.4002 11.8271 16.5066 11.8113 16.5954 11.7579C16.6843 11.7046 16.7483 11.6182 16.7734 11.5176C16.7986 11.4171 16.7827 11.3107 16.7294 11.2218C16.6761 11.1329 16.5896 11.0689 16.4891 11.0438L12.9852 10.168C12.8934 10.1455 12.7967 10.1569 12.7126 10.1999C12.6285 10.2429 12.5627 10.3148 12.5273 10.4024L11.8918 11.9922L10.3016 11.3559C10.2082 11.3192 10.1043 11.3192 10.0109 11.3559L8.4207 11.9922L7.78477 10.4016C7.74977 10.3137 7.68407 10.2415 7.59988 10.1984C7.51568 10.1553 7.41871 10.1442 7.32695 10.1672L3.82344 11.0438C3.4006 11.149 3.02516 11.3928 2.75698 11.7362C2.48881 12.0796 2.34333 12.503 2.34375 12.9387V20.7032C2.34437 21.221 2.55035 21.7174 2.91649 22.0835C3.28264 22.4497 3.77907 22.6557 4.29688 22.6563H13.2813C13.7991 22.6557 14.2955 22.4497 14.6616 22.0835C15.0278 21.7174 15.2338 21.221 15.2344 20.7032V19.9219C15.2344 19.6111 15.1109 19.313 14.8911 19.0933C14.6714 18.8735 14.3733 18.75 14.0625 18.75H13.8355L15.3652 14.4668C15.4211 14.3104 15.5096 14.1677 15.6248 14.0481C15.7401 13.9285 15.8794 13.8348 16.0336 13.7731L17.3328 13.2536C17.3805 13.2345 17.4239 13.2062 17.4607 13.1704C17.4974 13.1345 17.5268 13.0918 17.547 13.0446C17.5672 12.9974 17.5779 12.9466 17.5785 12.8953C17.5791 12.844 17.5695 12.793 17.5504 12.7453ZM14.4531 19.9219V20.7032C14.4531 21.014 14.3297 21.312 14.1099 21.5318C13.8901 21.7516 13.5921 21.875 13.2813 21.875H12.1094V19.5313H14.0625C14.1661 19.5313 14.2655 19.5724 14.3387 19.6457C14.412 19.719 14.4531 19.8183 14.4531 19.9219Z" fill="#033F2D"/>
<path d="M22.2656 14.0625C22.162 14.0625 22.0627 14.1037 21.9894 14.1769C21.9161 14.2502 21.875 14.3495 21.875 14.4531C21.8751 14.5677 21.85 14.6808 21.8015 14.7845C21.753 14.8883 21.6823 14.9801 21.5944 15.0535C21.5064 15.1269 21.4035 15.18 21.2927 15.2092C21.182 15.2384 21.0662 15.2428 20.9535 15.2223C20.8006 15.1932 20.6597 15.1196 20.5485 15.0107C20.4373 14.9018 20.3607 14.7624 20.3285 14.6102C20.2656 14.2409 20.0749 13.9055 19.7898 13.6626C19.5047 13.4197 19.1433 13.2847 18.7687 13.2813H18.75C18.6992 13.2815 18.6489 13.2918 18.6021 13.3116C18.5554 13.3314 18.513 13.3603 18.4775 13.3967C18.442 13.433 18.4141 13.4761 18.3955 13.5233C18.3768 13.5706 18.3677 13.6211 18.3687 13.6719C18.3709 13.7764 18.414 13.876 18.4888 13.949C18.5636 14.0221 18.6642 14.0628 18.7687 14.0625C18.9656 14.0692 19.1537 14.1455 19.2997 14.2777C19.4457 14.4099 19.5402 14.5895 19.5664 14.7848C19.632 15.0878 19.7862 15.3644 20.0095 15.5795C20.2328 15.7946 20.515 15.9384 20.8203 15.9926C20.9092 16.0078 20.9992 16.0155 21.0894 16.0156C21.4418 16.0163 21.7841 15.8978 22.0607 15.6794C22.3372 15.4609 22.5318 15.1555 22.6129 14.8125C23.0632 14.731 23.4706 14.4939 23.7639 14.1426C24.0573 13.7914 24.218 13.3483 24.218 12.8906C24.218 12.433 24.0573 11.9899 23.7639 11.6386C23.4706 11.2874 23.0632 11.0503 22.6129 10.9688C22.531 10.6217 22.333 10.3131 22.0516 10.0942C21.7702 9.87526 21.4224 9.75914 21.0659 9.76511C20.7094 9.77109 20.3657 9.8988 20.0918 10.1271C19.8179 10.3553 19.6303 10.6704 19.5601 11.0199C19.5294 11.2133 19.4312 11.3896 19.2829 11.5176C19.1346 11.6455 18.9458 11.7167 18.75 11.7188C18.6992 11.719 18.6489 11.7293 18.6021 11.7491C18.5554 11.7689 18.513 11.7978 18.4775 11.8342C18.442 11.8705 18.4141 11.9136 18.3955 11.9608C18.3768 12.0081 18.3677 12.0586 18.3687 12.1094C18.3709 12.2139 18.414 12.3135 18.4888 12.3865C18.5636 12.4596 18.6642 12.5003 18.7687 12.5C19.1453 12.4958 19.5084 12.359 19.7942 12.1137C20.0799 11.8684 20.2701 11.5302 20.3312 11.1586C20.3731 10.9709 20.4828 10.8052 20.6392 10.6933C20.7956 10.5814 20.9878 10.5312 21.179 10.5521C21.3702 10.5731 21.5469 10.6639 21.6753 10.8071C21.8037 10.9503 21.8748 11.1358 21.875 11.3281C21.875 11.4317 21.9161 11.5311 21.9894 11.6043C22.0627 11.6776 22.162 11.7188 22.2656 11.7188C22.5764 11.7188 22.8745 11.8422 23.0942 12.062C23.314 12.2818 23.4375 12.5798 23.4375 12.8906C23.4375 13.2014 23.314 13.4995 23.0942 13.7193C22.8745 13.939 22.5764 14.0625 22.2656 14.0625Z" fill="#033F2D"/>
<path d="M23.8559 18.3316C23.7826 18.2583 23.6833 18.2172 23.5797 18.2172C23.4761 18.2172 23.3768 18.2583 23.3035 18.3316L21.9043 19.7308C21.0262 19.0237 19.9902 18.88 19.4363 19.4362C18.8824 19.9925 19.0242 21.0261 19.7309 21.9042L18.6281 23.0077C18.2214 22.4844 17.9917 21.8451 17.9724 21.1826C17.9531 20.52 18.1452 19.8685 18.5209 19.3223C18.8965 18.7762 19.4362 18.3638 20.0618 18.1448C20.6874 17.9258 21.3665 17.9116 22.0008 18.1042C22.0997 18.1334 22.2061 18.1223 22.2969 18.0734C22.3876 18.0244 22.4553 17.9415 22.4852 17.8429C22.5151 17.7442 22.5048 17.6377 22.4565 17.5466C22.4082 17.4555 22.3258 17.3872 22.2273 17.3566C21.395 17.1033 20.5019 17.1353 19.6898 17.4476C18.8777 17.7599 18.1933 18.3345 17.745 19.0801C17.2968 19.8258 17.1105 20.6999 17.2157 21.5635C17.3209 22.4272 17.7116 23.2309 18.3258 23.8472C18.327 23.8507 18.329 23.8539 18.3316 23.8566C18.3343 23.8592 18.3375 23.8612 18.341 23.8624C19.0799 24.5666 20.0651 24.9535 21.0857 24.9405C22.1063 24.9275 23.0813 24.5155 23.802 23.7927C24.5227 23.0699 24.9318 22.0938 24.9419 21.0731C24.952 20.0525 24.5622 19.0684 23.8559 18.3316ZM22.1988 22.1987C21.9773 22.4191 21.3957 22.3194 20.8387 21.9011L21.9012 20.8386C22.3199 21.396 22.4195 21.9777 22.1988 22.1987ZM19.9887 19.9886C20.084 19.9064 20.208 19.8651 20.3336 19.8737C20.7065 19.9043 21.0611 20.0487 21.3492 20.2874L20.2879 21.3487C19.8676 20.7913 19.768 20.2097 19.9887 19.9886ZM21.0937 24.2187C20.4 24.2188 19.7262 23.9866 19.1797 23.5593L20.2809 22.4581C20.7196 22.8393 21.2731 23.0628 21.8535 23.0933C22.0185 23.0992 22.1831 23.0719 22.3374 23.0132C22.4917 22.9544 22.6327 22.8653 22.752 22.7511C23.3082 22.1944 23.1641 21.1612 22.4574 20.2831L23.5605 19.1796C23.9196 19.6411 24.1419 20.1941 24.202 20.7758C24.2622 21.3574 24.1577 21.9442 23.9006 22.4694C23.6435 22.9946 23.2441 23.437 22.7479 23.7463C22.2516 24.0555 21.6785 24.2192 21.0937 24.2187Z" fill="#033F2D"/>
</g>
<defs>
<clipPath id="clip0_276_4980">
<rect width="25" height="25" fill="white"/>
</clipPath>
</defs>
</svg>
