<svg width="25" height="25" viewBox="0 0 25 25" fill="none" xmlns="http://www.w3.org/2000/svg">
<g clip-path="url(#clip0_426_195)">
<path d="M21.826 3.02732C21.859 3.05672 21.8919 3.08611 21.9259 3.11639C22.2209 3.39524 22.4632 3.72791 22.7049 4.05271C22.7257 4.08065 22.7466 4.10859 22.7681 4.13737C23.3601 4.94326 23.7688 5.87179 24.0232 6.83592C24.0386 6.89313 24.054 6.95034 24.0698 7.00929C24.5615 9.06036 24.1788 11.3123 23.0921 13.1124C22.9998 13.2538 22.9035 13.39 22.8025 13.5254C22.765 13.5767 22.7274 13.6281 22.6887 13.681C22.3068 14.1952 21.8871 14.6855 21.3865 15.0879C21.3417 15.1248 21.2968 15.1618 21.2505 15.1998C19.9782 16.2269 18.288 16.9434 16.6384 16.9533C16.6009 16.9535 16.5635 16.9538 16.5249 16.9541C16.4458 16.9546 16.3668 16.9549 16.2878 16.9551C16.17 16.9555 16.0523 16.9571 15.9346 16.9586C14.7367 16.9668 13.6549 16.6571 12.57 16.1664C12.4171 16.0981 12.2631 16.0326 12.1092 15.9668C12.0694 16.0068 12.0296 16.0468 11.9885 16.088C11.0423 17.0384 10.0956 17.9883 9.14832 18.9376C9.03159 19.0546 8.91487 19.1716 8.79815 19.2885C8.77491 19.3118 8.75168 19.3351 8.72774 19.3591C8.35205 19.7356 7.97671 20.1125 7.6015 20.4895C7.21618 20.8767 6.83048 21.2634 6.44445 21.6499C6.22776 21.8668 6.01125 22.0839 5.79516 22.3015C5.59159 22.5064 5.38756 22.7108 5.18318 22.9149C5.10841 22.9897 5.03381 23.0647 4.95939 23.1399C4.40477 23.6998 3.86244 24.2292 3.0277 24.2416C2.98925 24.2411 2.9508 24.2406 2.91119 24.2401C2.8504 24.2395 2.8504 24.2395 2.78838 24.239C2.17426 24.2225 1.67953 23.9681 1.25714 23.526C0.866344 23.0589 0.716317 22.5118 0.738146 21.9063C0.854069 20.9072 1.62664 20.2897 2.29799 19.6201C2.37167 19.5464 2.44533 19.4727 2.51899 19.3991C2.71769 19.2003 2.91654 19.0018 3.11542 18.8032C3.32372 18.5953 3.53187 18.3871 3.74004 18.179C4.13369 17.7855 4.52746 17.3921 4.92128 16.9988C5.36987 16.5508 5.81831 16.1026 6.26675 15.6544C7.18868 14.733 8.11079 13.8117 9.03301 12.8906C9.01193 12.8426 9.01193 12.8426 8.99042 12.7936C8.92605 12.6467 8.86185 12.4998 8.79765 12.3529C8.77554 12.3026 8.75342 12.2522 8.73064 12.2003C7.86027 10.2061 7.77146 7.98224 8.54039 5.93629C8.91469 5.00289 9.41813 4.1718 10.1019 3.43263C10.1947 3.33146 10.2821 3.22759 10.3697 3.12193C10.5819 2.87966 10.8297 2.68668 11.0838 2.49021C11.11 2.46937 11.1361 2.44853 11.1631 2.42705C14.3828 -0.131289 18.8671 0.368161 21.826 3.02732ZM13.1834 2.19724C13.1371 2.21788 13.1371 2.21788 13.0899 2.23894C12.2924 2.59794 11.6103 3.10199 10.9861 3.71091C10.9525 3.74157 10.9188 3.77222 10.8841 3.8038C9.60352 5.00058 8.89236 6.87027 8.82988 8.59659C8.77948 10.6063 9.50887 12.4591 10.8885 13.916C10.9448 13.9762 10.9448 13.9762 11.0024 14.0377C12.3293 15.4139 14.2148 16.137 16.11 16.1743C18.1483 16.1344 19.9952 15.3449 21.4274 13.8924C22.7203 12.5367 23.4694 10.6639 23.4373 8.78904C23.3804 7.23173 22.9207 5.66766 21.9236 4.44334C21.9032 4.41807 21.8827 4.39279 21.8617 4.36676C20.6425 2.86826 18.9349 1.82914 16.992 1.61131C15.686 1.47982 14.382 1.64934 13.1834 2.19724ZM9.43942 13.699C9.38624 13.7524 9.38624 13.7524 9.33198 13.8068C9.27186 13.8669 9.27186 13.8669 9.21054 13.9283C9.167 13.972 9.12346 14.0158 9.0786 14.061C9.01205 14.1276 9.01205 14.1276 8.94416 14.1956C8.82597 14.314 8.70793 14.4325 8.58991 14.5511C8.46956 14.6719 8.34907 14.7926 8.22859 14.9133C7.99204 15.1504 7.75564 15.3877 7.51934 15.625C7.58654 15.7759 7.66346 15.8787 7.78048 15.9949C7.81371 16.0281 7.84694 16.0613 7.88118 16.0955C7.91699 16.1308 7.9528 16.1661 7.9897 16.2025C8.02641 16.2391 8.06312 16.2757 8.10094 16.3133C8.21813 16.43 8.33565 16.5463 8.45318 16.6626C8.53274 16.7416 8.61228 16.8207 8.69179 16.8998C8.88666 17.0936 9.0818 17.2871 9.27715 17.4804C9.43908 17.4099 9.54531 17.3218 9.66945 17.1969C9.70756 17.1588 9.74567 17.1207 9.78494 17.0814C9.82558 17.0402 9.86623 16.9991 9.90811 16.9567C9.97109 16.8935 9.97109 16.8935 10.0354 16.829C10.1694 16.6944 10.3031 16.5595 10.4368 16.4245C10.5277 16.3332 10.6185 16.2419 10.7094 16.1506C10.9321 15.9268 11.1545 15.7028 11.3768 15.4785C11.2437 15.3437 11.1113 15.2117 10.9657 15.0905C10.4642 14.6678 10.0257 14.2285 9.63249 13.7003C9.60162 13.662 9.60162 13.662 9.57012 13.623C9.50864 13.6175 9.50864 13.6175 9.43942 13.699ZM6.79387 16.3449C6.75526 16.3838 6.71665 16.4226 6.67687 16.4627C6.63517 16.5045 6.59347 16.5464 6.55051 16.5895C6.50667 16.6338 6.46283 16.678 6.41766 16.7236C6.35162 16.79 6.35162 16.79 6.28424 16.8577C6.175 16.9675 6.06587 17.0774 5.95684 17.1875C6.02404 17.3384 6.10096 17.4412 6.21798 17.5574C6.25121 17.5906 6.28444 17.6238 6.31868 17.658C6.35449 17.6933 6.3903 17.7286 6.4272 17.765C6.48226 17.8199 6.48226 17.8199 6.53844 17.8758C6.65563 17.9925 6.77315 18.1088 6.89068 18.2251C6.97024 18.3041 7.04978 18.3832 7.12929 18.4623C7.32416 18.6561 7.5193 18.8496 7.71466 19.0429C7.877 18.966 7.98401 18.8827 8.11062 18.7542C8.14744 18.717 8.18426 18.6799 8.2222 18.6416C8.26016 18.6029 8.29811 18.5641 8.33721 18.5241C8.37592 18.485 8.41463 18.4458 8.45452 18.4055C8.54992 18.309 8.64508 18.2122 8.74005 18.1152C8.53315 17.8683 8.31715 17.6363 8.08907 17.4089C8.056 17.3758 8.02293 17.3427 7.98886 17.3086C7.91962 17.2393 7.85031 17.1701 7.78095 17.1009C7.67427 16.9945 7.56785 16.8878 7.46145 16.7811C7.39398 16.7137 7.32649 16.6463 7.25899 16.5788C7.22705 16.5468 7.19511 16.5148 7.16221 16.4818C6.99217 16.259 6.99217 16.259 6.79387 16.3449ZM4.99691 18.1364C4.96293 18.1699 4.92894 18.2033 4.89393 18.2377C4.53725 18.589 4.18211 18.9418 3.82709 19.2948C3.65869 19.4621 3.48983 19.6289 3.32054 19.7953C3.11615 19.9962 2.91262 20.198 2.70966 20.4003C2.6323 20.4772 2.55464 20.5537 2.47669 20.63C1.83364 21.2439 1.83364 21.2439 1.58978 22.0764C1.64143 22.5339 1.8009 22.8355 2.14825 23.1445C2.4693 23.3552 2.79314 23.4265 3.17364 23.3886C3.53744 23.2887 3.78107 23.1162 4.04008 22.8484C4.07444 22.8141 4.1088 22.7798 4.1442 22.7444C4.25639 22.6321 4.36751 22.5187 4.47865 22.4052C4.55671 22.3266 4.63483 22.2481 4.71302 22.1696C4.91772 21.9638 5.12153 21.7571 5.32516 21.5502C5.53347 21.3389 5.74262 21.1284 5.95169 20.9179C6.36114 20.5053 6.76963 20.0918 7.17755 19.6777C6.95239 19.4116 6.95239 19.4116 6.71314 19.1582C6.68302 19.1279 6.65289 19.0976 6.62185 19.0664C6.59041 19.0351 6.55897 19.0037 6.52657 18.9714C6.4935 18.9383 6.46043 18.9052 6.42636 18.8711C6.35712 18.8018 6.28781 18.7326 6.21845 18.6634C6.11177 18.557 6.00535 18.4503 5.89895 18.3436C5.83148 18.2762 5.76399 18.2088 5.69649 18.1413C5.66455 18.1093 5.63261 18.0773 5.59971 18.0443C5.29318 17.7393 5.27815 17.8583 4.99691 18.1364Z" fill="#033F2D"/>
<path d="M13.6964 4.36401C14.0196 4.42174 14.224 4.76323 14.4319 5.00488C14.4732 5.05256 14.4732 5.05256 14.5153 5.1012C14.661 5.26986 14.8037 5.44003 14.9415 5.61523C15.0766 5.55037 15.2009 5.4779 15.326 5.39551C15.6787 5.17653 15.9944 5.13418 16.4064 5.17578C16.7007 5.24898 16.9696 5.34843 17.1876 5.56641C17.2118 5.61475 17.2118 5.61475 17.2364 5.66406C17.5239 5.35378 17.8 5.04049 18.0614 4.70753C18.2084 4.53923 18.3315 4.40893 18.5548 4.36707C18.7568 4.40493 18.8258 4.4733 18.9454 4.63867C18.97 4.84289 18.9635 4.94947 18.8592 5.12867C18.8192 5.17745 18.7792 5.22623 18.7379 5.27649C18.7057 5.31647 18.7057 5.31647 18.6729 5.35725C18.5504 5.50799 18.4233 5.65474 18.296 5.80139C18.2695 5.83198 18.2429 5.86256 18.2156 5.89408C18.1639 5.95336 18.1117 6.01229 18.0591 6.07082C17.8925 6.25945 17.8925 6.25945 17.8224 6.49414C17.8637 6.62331 17.908 6.74465 17.9597 6.86951C18.0736 7.14802 18.1556 7.41912 18.213 7.71484C18.2635 7.71556 18.314 7.71627 18.366 7.717C18.5539 7.71984 18.7418 7.72361 18.9297 7.72766C19.011 7.72928 19.0922 7.73065 19.1734 7.73176C19.2904 7.7334 19.4073 7.73596 19.5243 7.73869C19.5785 7.73915 19.5785 7.73915 19.6338 7.73963C19.8515 7.74578 19.993 7.77592 20.1661 7.91016C20.2651 8.04615 20.2651 8.04615 20.3584 8.20618C20.3919 8.26327 20.4254 8.32037 20.4589 8.37746C20.5073 8.46035 20.5073 8.46035 20.5568 8.54492C20.5865 8.59112 20.6163 8.63732 20.647 8.68492C20.8976 9.07479 20.8976 9.07479 20.8497 9.32617C20.8088 9.44899 20.7731 9.50451 20.6727 9.58557C20.4916 9.638 20.339 9.64337 20.1661 9.57031C20.0107 9.40676 19.9057 9.20785 19.8183 9.00098C19.7518 8.85831 19.6914 8.75475 19.5802 8.64258C19.3601 8.58191 19.1533 8.59614 18.9271 8.61206C18.8679 8.61426 18.8087 8.61647 18.7476 8.61874C18.6017 8.62448 18.4563 8.63249 18.3107 8.64258C18.3112 8.67227 18.3117 8.70196 18.3123 8.73255C18.3152 9.02836 18.2983 9.31621 18.2649 9.60999C18.2585 9.66999 18.2585 9.66999 18.252 9.7312C18.2309 9.92428 18.204 10.1125 18.1642 10.3027C18.1984 10.302 18.2326 10.3012 18.2679 10.3004C18.4235 10.2974 18.5792 10.2955 18.7349 10.2936C18.7887 10.2924 18.8425 10.2911 18.898 10.2899C18.9501 10.2894 19.0022 10.2889 19.0559 10.2884C19.1037 10.2877 19.1515 10.2869 19.2008 10.2861C19.3613 10.3058 19.4502 10.3543 19.5802 10.4492C19.6792 10.5852 19.6792 10.5852 19.7725 10.7452C19.8059 10.8024 19.8395 10.8596 19.873 10.9167C19.9053 10.9719 19.9375 11.0271 19.9708 11.084C20.0006 11.1296 20.0304 11.1753 20.061 11.2223C20.1803 11.4059 20.2582 11.541 20.2974 11.7584C20.253 11.9641 20.1914 12.0376 20.0196 12.1582C19.8487 12.1887 19.8487 12.1887 19.6778 12.1582C19.5223 12.031 19.4266 11.9147 19.3532 11.73C19.2658 11.5167 19.1801 11.3258 18.9943 11.1816C18.6403 11.0592 18.2269 11.0683 17.8712 11.1816C17.7183 11.3146 17.6677 11.4184 17.5937 11.6056C17.4374 11.9995 17.0792 12.3203 16.6993 12.5C16.3199 12.6476 15.9193 12.6485 15.5385 12.5051C14.9965 12.236 14.655 11.7664 14.4044 11.2305C14.4044 11.1982 14.4044 11.166 14.4044 11.1328C14.0177 11.1328 13.631 11.1328 13.2325 11.1328C13.2003 11.2134 13.1681 11.2939 13.1349 11.377C13.0735 11.4953 13.011 11.6118 12.9457 11.7279C12.9291 11.7586 12.9126 11.7893 12.8955 11.8209C12.802 11.9871 12.7353 12.1 12.5489 12.1582C12.3507 12.1877 12.2803 12.1757 12.1156 12.0575C12.0139 11.9169 11.9835 11.8488 11.989 11.6778C12.0412 11.4366 12.1915 11.2301 12.3201 11.0229C12.3636 10.9503 12.3636 10.9503 12.4081 10.8761C12.7092 10.3795 12.7092 10.3795 12.9396 10.3027C13.0297 10.2987 13.12 10.2975 13.2102 10.298C13.2626 10.2981 13.315 10.2983 13.369 10.2984C13.4237 10.2989 13.4783 10.2993 13.5347 10.2997C13.6175 10.3 13.6175 10.3 13.702 10.3004C13.8385 10.3009 13.975 10.3017 14.1114 10.3027C14.0963 10.2614 14.0812 10.2202 14.0657 10.1776C13.9561 9.82304 13.9588 9.47687 13.9619 9.1095C13.9621 9.0598 13.9623 9.01011 13.9626 8.95891C13.9631 8.83719 13.9639 8.71547 13.965 8.59375C13.2407 8.50448 13.2407 8.50448 12.5849 8.72958C12.4135 8.94039 12.3001 9.17731 12.2041 9.43049C12.1583 9.52148 12.1583 9.52148 12.0118 9.61914C11.7988 9.64675 11.7043 9.64322 11.5266 9.51843C11.4281 9.37816 11.3979 9.30784 11.4032 9.13869C11.4551 8.89749 11.6056 8.691 11.7341 8.48389C11.7632 8.43542 11.7922 8.38696 11.8221 8.33702C12.1232 7.84047 12.1232 7.84047 12.3536 7.76367C12.4835 7.75952 12.612 7.75801 12.7418 7.7589C12.7795 7.75897 12.8172 7.75904 12.8561 7.75911C12.9765 7.75939 13.0969 7.76 13.2173 7.76062C13.2989 7.76086 13.3806 7.76109 13.4623 7.76129C13.6624 7.76183 13.8625 7.76267 14.0626 7.76367C14.0658 7.72219 14.0658 7.72219 14.069 7.67988C14.0921 7.42683 14.1408 7.21181 14.2335 6.97327C14.3597 6.66859 14.3597 6.66859 14.4044 6.34766C14.327 6.21669 14.2255 6.11228 14.1206 6.00281C14.062 5.93826 14.0035 5.8736 13.9451 5.80883C13.9157 5.77653 13.8862 5.74424 13.8559 5.71096C13.7278 5.56875 13.6053 5.42291 13.4858 5.27344C13.4264 5.20093 13.4264 5.20093 13.3659 5.12695C13.2631 4.94886 13.2574 4.84124 13.2814 4.63867C13.4079 4.45841 13.4787 4.40289 13.6964 4.36401ZM15.381 6.49414C14.7559 7.54408 14.6031 8.87384 14.8774 10.0616C15.0261 10.6465 15.2629 11.3635 15.8021 11.7035C15.9832 11.7739 16.0691 11.8057 16.2599 11.7676C16.7327 11.5455 16.9828 11.1518 17.1754 10.6812C17.6258 9.40838 17.5905 7.99179 17.0228 6.7627C16.8463 6.43458 16.6221 6.13187 16.2599 6.00586C15.8831 5.93645 15.5858 6.21069 15.381 6.49414Z" fill="#033F2D"/>
<path d="M13.5743 2.8808C13.7377 2.99904 13.8067 3.06998 13.849 3.26837C13.8084 3.46706 13.7248 3.58151 13.5743 3.71088C13.4616 3.78312 13.3459 3.84878 13.2296 3.91516C11.9699 4.69308 10.9703 6.02351 10.6093 7.46507C10.5657 7.65752 10.5236 7.84996 10.487 8.0439C10.4494 8.23306 10.4226 8.36796 10.308 8.52541C10.1437 8.63453 10.0046 8.63193 9.81453 8.59369C9.67111 8.49808 9.62934 8.4363 9.58508 8.2704C9.56666 8.06351 9.60156 7.89399 9.64974 7.69342C9.65882 7.65468 9.6679 7.61593 9.67726 7.57601C10.1484 5.62363 11.3287 4.03484 13.0372 2.97846C13.2249 2.87273 13.3564 2.85404 13.5743 2.8808Z" fill="#033F2D"/>
<path d="M15.2344 2.34379C15.3436 2.4319 15.3728 2.49508 15.3978 2.63199C15.4117 2.82254 15.404 2.90255 15.2771 3.0518C15.1117 3.1381 15.0277 3.15569 14.8438 3.12504C14.6769 3.02866 14.6132 2.96951 14.5508 2.7863C14.5508 2.60621 14.585 2.53202 14.6973 2.39262C14.8705 2.25652 15.0292 2.29156 15.2344 2.34379Z" fill="#033F2D"/>
</g>
<defs>
<clipPath id="clip0_426_195">
<rect width="25" height="25" fill="white"/>
</clipPath>
</defs>
</svg>
