<svg width="25" height="25" viewBox="0 0 25 25" fill="none" xmlns="http://www.w3.org/2000/svg">
<g clip-path="url(#clip0_426_240)">
<path d="M15.3127 3.89827C15.363 3.88801 15.4107 3.86795 15.4532 3.83924C15.4958 3.81052 15.5322 3.77371 15.5605 3.73091C15.5888 3.6881 15.6084 3.64015 15.6181 3.58978C15.6279 3.53941 15.6276 3.48761 15.6174 3.43734C15.6071 3.38706 15.5871 3.3393 15.5583 3.29679C15.5296 3.25427 15.4928 3.21782 15.45 3.18953C15.4072 3.16124 15.3593 3.14165 15.3089 3.13189C15.2585 3.12213 15.2067 3.12239 15.1564 3.13265C14.6097 3.24223 14.0916 3.46362 13.6345 3.78291C13.1774 4.10221 12.7912 4.51252 12.5002 4.98812C12.2092 4.51246 11.8231 4.1021 11.366 3.78279C10.9089 3.46349 10.3907 3.24214 9.84395 3.13265C9.74242 3.11193 9.63682 3.13239 9.55038 3.18953C9.46393 3.24667 9.40373 3.33581 9.38301 3.43734C9.36229 3.53886 9.38275 3.64446 9.43989 3.73091C9.49703 3.81735 9.58617 3.87755 9.6877 3.89827C10.1553 3.99097 10.5971 4.18466 10.982 4.46581C11.367 4.74696 11.686 5.10879 11.9166 5.52601C11.0549 5.68812 10.5471 6.22132 10.5471 7.03109C10.524 7.69205 10.7517 8.33728 11.1846 8.83734C10.9204 8.97993 10.6928 9.18177 10.5196 9.42703C10.3465 9.67229 10.2325 9.95432 10.1865 10.251C9.00332 10.6295 4.00762 12.2975 2.81739 13.8217C2.65605 14.053 2.55932 14.3232 2.53714 14.6044C2.51496 14.8856 2.56815 15.1675 2.69121 15.4213C2.87051 15.7893 3.36856 16.4061 4.6877 16.4061C7.34043 16.4061 9.31348 13.6397 10.2686 11.9573C10.3018 12.054 10.3423 12.1482 10.3897 12.2389C10.4131 12.2852 10.4456 12.3263 10.4852 12.3599C10.5248 12.3935 10.5706 12.4189 10.6201 12.4346C10.6696 12.4502 10.7218 12.4559 10.7734 12.4512C10.8251 12.4465 10.8754 12.4315 10.9212 12.4071C10.9671 12.3828 11.0076 12.3495 11.0405 12.3093C11.0733 12.2691 11.0978 12.2228 11.1126 12.173C11.1273 12.1232 11.132 12.071 11.1263 12.0194C11.1206 11.9678 11.1047 11.9179 11.0795 11.8725C10.988 11.7055 10.9393 11.5184 10.9377 11.328V10.5467C10.9377 10.2359 11.0612 9.93784 11.2809 9.71807C11.5007 9.4983 11.7988 9.37484 12.1096 9.37484H12.8908C13.0812 9.37651 13.2683 9.42522 13.4354 9.51663C13.5243 9.55603 13.6248 9.5608 13.7171 9.53C13.8094 9.4992 13.8869 9.43505 13.9344 9.35012C13.9819 9.26519 13.996 9.16558 13.9739 9.07081C13.9519 8.97603 13.8952 8.89292 13.815 8.83773C14.2483 8.33773 14.4763 7.69229 14.4533 7.03109C14.4533 6.22132 13.9455 5.68812 13.0822 5.52601C13.3131 5.10864 13.6323 4.74673 14.0175 4.46558C14.4028 4.18442 14.8448 3.99081 15.3127 3.89827ZM4.6877 15.6248C4.01504 15.6248 3.56739 15.4362 3.39356 15.078C3.33533 14.9554 3.30842 14.8203 3.31524 14.6848C3.32205 14.5492 3.36239 14.4175 3.43262 14.3014C4.26778 13.2319 7.75098 11.8901 9.78614 11.203C8.99903 12.6737 7.11504 15.6248 4.6877 15.6248ZM13.6721 7.03109C13.6721 7.29202 13.6154 8.59359 12.5002 8.59359C11.385 8.59359 11.3283 7.29202 11.3283 7.03109C11.3283 6.83577 11.3283 6.24984 12.5002 6.24984C13.6721 6.24984 13.6721 6.83773 13.6721 7.03109Z" fill="#033F2D"/>
<path d="M17.302 4.41117L16.5207 5.19242C16.4474 5.26566 16.4063 5.365 16.4062 5.46859V6.24984C16.4062 6.35344 16.4474 6.4528 16.5207 6.52605C16.5939 6.59931 16.6933 6.64046 16.7969 6.64046C16.9005 6.64046 16.9998 6.59931 17.0731 6.52605C17.1463 6.4528 17.1875 6.35344 17.1875 6.24984V5.63031L17.8543 4.96351C17.9255 4.88984 17.9648 4.79116 17.9639 4.68874C17.963 4.58632 17.922 4.48835 17.8495 4.41593C17.7771 4.3435 17.6791 4.30242 17.5767 4.30153C17.4743 4.30064 17.3756 4.34001 17.302 4.41117Z" fill="#033F2D"/>
<path d="M8.47914 5.19242L7.69789 4.41117C7.62421 4.34001 7.52554 4.30064 7.42312 4.30153C7.3207 4.30242 7.22273 4.3435 7.1503 4.41593C7.07788 4.48835 7.03679 4.58632 7.0359 4.68874C7.03501 4.79117 7.07439 4.88984 7.14554 4.96351L7.81234 5.63031V7.03109C7.81236 7.13468 7.85353 7.23402 7.92679 7.30726L9.48929 8.86976C9.56296 8.94092 9.66164 8.98029 9.76406 8.9794C9.86648 8.97851 9.96445 8.93743 10.0369 8.865C10.1093 8.79258 10.1504 8.6946 10.1513 8.59218C10.1522 8.48976 10.1128 8.39109 10.0416 8.31742L8.59359 6.86937V5.46859C8.59357 5.365 8.5524 5.26566 8.47914 5.19242Z" fill="#033F2D"/>
<path d="M17.1876 19.3696V16.7969C17.1874 16.7198 17.1646 16.6444 17.1219 16.5801L16.3407 15.4083C16.2832 15.3221 16.1938 15.2622 16.0922 15.2419C15.9906 15.2216 15.8851 15.2426 15.7989 15.3001C15.7127 15.3575 15.6529 15.4469 15.6326 15.5485C15.6123 15.6501 15.6332 15.7557 15.6907 15.8418L16.4063 16.9141V19.5313C16.4063 19.6349 16.4475 19.7342 16.5208 19.8075L18.0833 21.37C18.1569 21.4411 18.2556 21.4805 18.358 21.4796C18.4604 21.4787 18.5584 21.4376 18.6308 21.3652C18.7033 21.2928 18.7443 21.1948 18.7452 21.0924C18.7461 20.99 18.7068 20.8913 18.6356 20.8176L17.1876 19.3696Z" fill="#033F2D"/>
<path d="M14.0213 12.7206C13.9713 12.732 13.924 12.7533 13.8821 12.783C13.8403 12.8128 13.8047 12.8506 13.7774 12.8941C13.7502 12.9376 13.7318 12.9861 13.7233 13.0368C13.7148 13.0874 13.7164 13.1393 13.728 13.1893C13.9576 14.246 14.0698 15.3248 14.0627 16.4061C14.0683 18.0377 13.5171 19.6223 12.5002 20.8983C11.534 19.6852 10.9887 18.1907 10.9467 16.6405C10.9451 16.5892 10.9334 16.5387 10.9123 16.4919C10.8912 16.4452 10.861 16.403 10.8236 16.3679C10.7862 16.3327 10.7422 16.3053 10.6942 16.2872C10.6462 16.2691 10.5951 16.2605 10.5438 16.2622C10.4925 16.2638 10.442 16.2755 10.3952 16.2966C10.3485 16.3177 10.3063 16.3479 10.2712 16.3853C10.2361 16.4227 10.2086 16.4667 10.1905 16.5147C10.1724 16.5627 10.1639 16.6138 10.1655 16.6651C10.1989 18.5628 10.9349 20.3806 12.2311 21.767C12.3036 21.8356 12.3997 21.8738 12.4995 21.8738C12.5993 21.8738 12.6953 21.8356 12.7678 21.767C14.1288 20.3168 14.8732 18.3947 14.844 16.4061C14.8512 15.2658 14.7323 14.1281 14.4893 13.0139C14.4661 12.913 14.4038 12.8254 14.3161 12.7704C14.2283 12.7153 14.1223 12.6974 14.0213 12.7206Z" fill="#033F2D"/>
<path d="M22.1826 13.8221C21.3135 12.7088 18.4717 11.5288 16.2377 10.7362C16.1401 10.7015 16.0326 10.707 15.939 10.7515C15.8455 10.796 15.7734 10.8758 15.7387 10.9735C15.704 11.0711 15.7095 11.1786 15.754 11.2722C15.7985 11.3657 15.8783 11.4378 15.976 11.4725C18.9498 12.5303 20.9877 13.5627 21.567 14.3049C21.6375 14.4209 21.678 14.5526 21.6848 14.6881C21.6916 14.8236 21.6646 14.9587 21.6061 15.0811C21.4326 15.4362 20.985 15.6249 20.3123 15.6249C18.1389 15.6249 16.394 13.228 15.5467 11.7991C15.5205 11.7549 15.4859 11.7164 15.4449 11.6856C15.4038 11.6548 15.3571 11.6325 15.3074 11.6197C15.2577 11.607 15.2059 11.6042 15.1551 11.6115C15.1043 11.6188 15.0555 11.636 15.0113 11.6622C14.9672 11.6883 14.9286 11.7229 14.8979 11.764C14.8671 11.8051 14.8447 11.8518 14.832 11.9015C14.8193 11.9512 14.8165 12.0029 14.8238 12.0537C14.8311 12.1045 14.8483 12.1534 14.8744 12.1975C16.0127 14.1174 17.8795 16.4061 20.3123 16.4061C21.6315 16.4061 22.1295 15.7893 22.3088 15.4213C22.4319 15.1676 22.4851 14.8857 22.4629 14.6046C22.4407 14.3235 22.344 14.0534 22.1826 13.8221Z" fill="#033F2D"/>
<path d="M8.59342 17.9688C8.48982 17.9688 8.39047 18.0099 8.31721 18.0832C8.24395 18.1564 8.2028 18.2558 8.2028 18.3594V19.3695L6.75475 20.8176C6.71744 20.8536 6.68768 20.8967 6.66721 20.9444C6.64674 20.992 6.63596 21.0433 6.63551 21.0952C6.63506 21.147 6.64495 21.1985 6.66459 21.2465C6.68423 21.2945 6.71323 21.3381 6.74991 21.3748C6.78659 21.4114 6.8302 21.4404 6.87821 21.4601C6.92621 21.4797 6.97765 21.4896 7.02952 21.4892C7.08138 21.4887 7.13264 21.4779 7.1803 21.4575C7.22796 21.437 7.27106 21.4072 7.3071 21.3699L8.8696 19.8074C8.94286 19.7342 8.98403 19.6348 8.98405 19.5312V18.3594C8.98405 18.2558 8.94289 18.1564 8.86964 18.0832C8.79638 18.0099 8.69702 17.9688 8.59342 17.9688Z" fill="#033F2D"/>
<path d="M21.3385 3.66126C21.2653 3.58803 21.166 3.54689 21.0624 3.54689C20.9588 3.54689 20.8595 3.58803 20.7862 3.66126L3.94792 20.4995C1.94267 18.3572 0.814522 15.5403 0.786655 12.6061C0.758788 9.67182 1.83323 6.83399 3.79743 4.65397C5.76163 2.47395 8.47251 1.11055 11.3938 0.833481C14.315 0.556414 17.2339 1.38586 19.5729 3.15774C19.6137 3.18954 19.6604 3.21292 19.7103 3.22653C19.7602 3.24014 19.8123 3.2437 19.8636 3.23701C19.9149 3.23032 19.9644 3.21351 20.0091 3.18755C20.0538 3.1616 20.093 3.12702 20.1242 3.08582C20.1555 3.04462 20.1783 2.99762 20.1912 2.94754C20.2042 2.89747 20.2071 2.84532 20.1997 2.79412C20.1924 2.74293 20.1749 2.6937 20.1484 2.6493C20.1219 2.6049 20.0868 2.56621 20.0452 2.53548C17.8775 0.88328 15.2254 -0.00792684 12.4999 -7.0571e-05C10.0303 -0.00140573 7.6158 0.729172 5.56126 2.09938C3.50672 3.46958 1.90434 5.41795 0.95654 7.69836C0.0087367 9.97877 -0.241973 12.4889 0.23608 14.9118C0.714132 17.3346 1.8995 19.5614 3.64245 21.3109C3.64988 21.3199 3.653 21.3304 3.6612 21.3386C3.66941 21.3468 3.67995 21.3499 3.68894 21.3574C6.03949 23.6784 9.21347 24.9744 12.5169 24.9619C15.8203 24.9493 18.9843 23.6293 21.3172 21.2904C23.65 18.9515 24.9619 15.784 24.9659 12.4806C24.9699 9.1772 23.6657 6.00658 21.3385 3.66204V3.66126ZM12.4999 24.2187C9.52736 24.2203 6.66623 23.0877 4.50027 21.0519L21.0546 4.49641C22.6158 6.1641 23.6554 8.25183 24.0454 10.5027C24.4354 12.7536 24.1589 15.0694 23.2499 17.1651C22.3408 19.2609 20.8389 21.0451 18.9289 22.2984C17.019 23.5516 14.7843 24.2191 12.4999 24.2187Z" fill="#033F2D"/>
</g>
<defs>
<clipPath id="clip0_426_240">
<rect width="25" height="25" fill="white"/>
</clipPath>
</defs>
</svg>
