<svg width="25" height="25" viewBox="0 0 25 25" fill="none" xmlns="http://www.w3.org/2000/svg">
<g clip-path="url(#clip0_406_19086)">
<path d="M4.72213 15.7285C4.68453 15.6932 4.6403 15.6656 4.59199 15.6475C4.54368 15.6293 4.49225 15.6209 4.44067 15.6227C4.38909 15.6246 4.33839 15.6366 4.29149 15.6582C4.24459 15.6797 4.20242 15.7103 4.16743 15.7483C4.13243 15.7862 4.10531 15.8307 4.08761 15.8792C4.06991 15.9277 4.062 15.9792 4.06432 16.0307C4.06665 16.0823 4.07917 16.1329 4.10116 16.1796C4.12315 16.2263 4.15418 16.2681 4.19245 16.3028C4.88657 16.9589 5.47901 17.7149 5.95026 18.5457C7.4694 21.1762 7.46745 23.534 6.51276 24.0848C5.55807 24.6356 3.5151 23.459 1.99635 20.8281C1.33663 19.7408 0.925388 18.5211 0.792056 17.2563C0.724478 16.2797 0.958853 15.5637 1.43385 15.2895C1.90885 15.0153 2.52135 15.2113 2.9526 15.4215C2.99885 15.4464 3.04963 15.4616 3.10192 15.4664C3.15421 15.4712 3.20693 15.4654 3.25692 15.4494C3.30692 15.4333 3.35316 15.4074 3.3929 15.3731C3.43263 15.3387 3.46504 15.2968 3.48819 15.2496C3.51133 15.2025 3.52474 15.1512 3.5276 15.0988C3.53047 15.0463 3.52273 14.9939 3.50486 14.9445C3.48699 14.8951 3.45935 14.8499 3.42359 14.8114C3.38783 14.773 3.34469 14.7421 3.29674 14.7207C2.43424 14.2969 1.65612 14.2598 1.04323 14.6125C0.28854 15.0481 -0.0786474 16.0063 0.0127589 17.3102C0.154472 18.6935 0.600696 20.0283 1.3194 21.2188C2.65573 23.5356 4.53073 24.9977 5.98424 24.9973C6.30572 25.0019 6.62266 24.921 6.9026 24.7629C8.3901 23.9035 8.26979 21.002 6.62643 18.1563C6.11583 17.2569 5.47401 16.4387 4.72213 15.7285Z" fill="#033F2D"/>
<path d="M1.67201 16.1801C1.43295 16.7422 1.4935 18.3953 2.6724 20.4379C3.85678 22.489 5.23022 23.3516 5.86459 23.4308C5.88079 23.4329 5.8971 23.4339 5.91342 23.434C5.98974 23.4339 6.06438 23.4115 6.12811 23.3695C6.19184 23.3275 6.24186 23.2678 6.27201 23.1976C6.51303 22.6367 6.45522 20.9844 5.27318 18.9367C4.09897 16.9055 2.72318 16.0344 2.0849 15.9465C2.00003 15.9351 1.91376 15.9518 1.83923 15.9939C1.7647 16.0361 1.70598 16.1015 1.67201 16.1801ZM4.59662 19.3269C5.20052 20.2855 5.54821 21.383 5.60639 22.5144C4.65231 21.9021 3.87438 21.0516 3.34936 20.0469C2.74562 19.0884 2.39807 17.991 2.33998 16.8598C3.29479 17.4709 4.07283 18.3215 4.59662 19.3269Z" fill="#033F2D"/>
<path d="M23.9556 14.6125C22.4681 13.7531 20.0154 15.3098 18.3724 18.1551C16.7294 21.0004 16.6087 23.9023 18.0962 24.7617C18.3761 24.9199 18.6931 25.0008 19.0146 24.9961C20.4677 24.9961 22.3419 23.534 23.6794 21.2176C24.3981 20.0271 24.8443 18.6923 24.9861 17.309C25.0775 16.0062 24.7103 15.048 23.9556 14.6125ZM24.2068 17.2562C24.0734 18.5211 23.6622 19.7408 23.0025 20.8281C21.4837 23.459 19.4415 24.6367 18.4868 24.0848C17.5322 23.5328 17.5302 21.1762 19.0493 18.5457C20.5685 15.9152 22.6107 14.7379 23.565 15.2894C24.04 15.5637 24.2743 16.2805 24.2068 17.2562Z" fill="#033F2D"/>
<path d="M22.9178 15.9438C22.2834 16.0219 20.9099 16.8856 19.726 18.9363C18.542 20.9871 18.4857 22.6363 18.7267 23.1973C18.7569 23.2674 18.8069 23.3272 18.8706 23.3692C18.9344 23.4112 19.009 23.4336 19.0853 23.4336C19.1017 23.4335 19.118 23.4325 19.1342 23.4305C19.7681 23.3524 21.1416 22.4891 22.3263 20.4375C23.5111 18.386 23.5662 16.7379 23.3252 16.177C23.2917 16.0992 23.2339 16.0344 23.1604 15.9923C23.0869 15.9503 23.0018 15.9332 22.9178 15.9438ZM21.6494 20.0453C21.1245 21.0502 20.3465 21.9007 19.3924 22.5129C19.4505 21.3814 19.7984 20.2839 20.4025 19.3254C20.9275 18.3207 21.7055 17.4703 22.6595 16.8582C22.6017 17.9901 22.2538 19.0881 21.6494 20.0469V20.0453Z" fill="#033F2D"/>
<path d="M19.0391 15.8836C19.073 15.8451 19.0991 15.8003 19.1157 15.7518C19.1324 15.7033 19.1393 15.6519 19.1361 15.6007C19.1329 15.5495 19.1197 15.4994 19.0971 15.4533C19.0746 15.4072 19.0432 15.366 19.0047 15.332C18.9662 15.2981 18.9214 15.272 18.8729 15.2554C18.8243 15.2387 18.773 15.2318 18.7218 15.235C18.6706 15.2382 18.6205 15.2514 18.5744 15.274C18.5283 15.2965 18.4871 15.3279 18.4531 15.3664C17.9102 15.9865 17.4301 16.659 17.0199 17.3738C16.172 18.7693 15.6532 20.3397 15.5027 21.9656C14.5664 22.4184 13.5398 22.6535 12.4998 22.6535C11.4598 22.6535 10.4332 22.4184 9.49688 21.9656C9.3466 20.3397 8.82787 18.7694 7.98008 17.3738C6.91406 15.525 5.47266 14.0664 4.00195 13.3363C3.93877 12.7994 3.90681 12.2593 3.90625 11.7188C3.90625 5.55898 8.52578 0.78125 12.5 0.78125C16.4742 0.78125 21.0938 5.55898 21.0938 11.7188C21.0932 12.2593 21.0612 12.7994 20.998 13.3363C20.5495 13.5619 20.1257 13.8334 19.7332 14.1465C19.6915 14.1777 19.6565 14.217 19.6302 14.262C19.6039 14.307 19.5868 14.3568 19.5801 14.4085C19.5733 14.4601 19.577 14.5126 19.5908 14.5629C19.6046 14.6131 19.6284 14.6601 19.6607 14.701C19.6929 14.7419 19.7331 14.776 19.7787 14.8011C19.8243 14.8263 19.8745 14.8421 19.9263 14.8476C19.9782 14.8531 20.0306 14.8481 20.0804 14.833C20.1303 14.8179 20.1767 14.793 20.2168 14.7598C20.6167 14.4392 21.0542 14.1686 21.5195 13.9539C21.5801 13.9265 21.6328 13.8842 21.6724 13.8308C21.7121 13.7774 21.7374 13.7148 21.7461 13.6488C21.8314 13.009 21.8744 12.3642 21.875 11.7188C21.875 5.11719 16.8359 0 12.5 0C8.16406 0 3.125 5.11719 3.125 11.7188C3.12557 12.3642 3.16863 13.009 3.25391 13.6488C3.26258 13.7148 3.28794 13.7774 3.32759 13.8308C3.36724 13.8842 3.41986 13.9265 3.48047 13.9539C4.87422 14.5813 6.26719 15.9703 7.30312 17.7645C8.13258 19.1144 8.62148 20.6457 8.72773 22.2266C8.72995 22.2963 8.75079 22.3641 8.78809 22.4231C8.82539 22.482 8.87779 22.5299 8.93984 22.5617C10.0383 23.1372 11.2599 23.4379 12.5 23.4379C13.7401 23.4379 14.9617 23.1372 16.0602 22.5617C16.1222 22.5299 16.1746 22.482 16.2119 22.4231C16.2492 22.3641 16.2701 22.2963 16.2723 22.2266C16.3781 20.6459 16.8664 19.1146 17.6953 17.7645C18.0799 17.0946 18.53 16.4645 19.0391 15.8836Z" fill="#033F2D"/>
<path d="M18.3594 13.2812C18.463 13.2812 18.5623 13.2401 18.6356 13.1668C18.7088 13.0936 18.75 12.9942 18.75 12.8906V11.3281C18.75 6.72813 16.0047 3.125 12.5 3.125C8.99531 3.125 6.25 6.72813 6.25 11.3281V12.8906C6.25 12.9942 6.29115 13.0936 6.36441 13.1668C6.43767 13.2401 6.53702 13.2812 6.64062 13.2812C6.74423 13.2812 6.84358 13.2401 6.91684 13.1668C6.9901 13.0936 7.03125 12.9942 7.03125 12.8906V11.3281C7.03125 7.23555 9.48438 3.90625 12.5 3.90625C15.5156 3.90625 17.9688 7.23555 17.9688 11.3281V12.8906C17.9688 12.9942 18.0099 13.0936 18.0832 13.1668C18.1564 13.2401 18.2558 13.2812 18.3594 13.2812Z" fill="#033F2D"/>
<path d="M14.0625 7.03125C14.1661 7.03125 14.2655 6.9901 14.3387 6.91684C14.412 6.84358 14.4531 6.74423 14.4531 6.64062C14.4531 6.53702 14.412 6.43767 14.3387 6.36441C14.2655 6.29115 14.1661 6.25 14.0625 6.25H10.9375C10.8339 6.25 10.7345 6.29115 10.6613 6.36441C10.588 6.43767 10.5469 6.53702 10.5469 6.64062C10.5469 6.74423 10.588 6.84358 10.6613 6.91684C10.7345 6.9901 10.8339 7.03125 10.9375 7.03125H14.0625Z" fill="#033F2D"/>
<path d="M9.375 8.98438C9.375 9.08798 9.41615 9.18733 9.48941 9.26059C9.56267 9.33385 9.66202 9.375 9.76562 9.375H15.2344C15.338 9.375 15.4373 9.33385 15.5106 9.26059C15.5838 9.18733 15.625 9.08798 15.625 8.98438C15.625 8.88077 15.5838 8.78142 15.5106 8.70816C15.4373 8.6349 15.338 8.59375 15.2344 8.59375H9.76562C9.66202 8.59375 9.56267 8.6349 9.48941 8.70816C9.41615 8.78142 9.375 8.88077 9.375 8.98438Z" fill="#033F2D"/>
<path d="M16.7969 11.3281C16.7969 11.2245 16.7557 11.1252 16.6825 11.0519C16.6092 10.9787 16.5099 10.9375 16.4062 10.9375H8.59375C8.49015 10.9375 8.39079 10.9787 8.31754 11.0519C8.24428 11.1252 8.20312 11.2245 8.20312 11.3281C8.20312 11.4317 8.24428 11.5311 8.31754 11.6043C8.39079 11.6776 8.49015 11.7188 8.59375 11.7188H16.4062C16.5099 11.7188 16.6092 11.6776 16.6825 11.6043C16.7557 11.5311 16.7969 11.4317 16.7969 11.3281Z" fill="#033F2D"/>
<path d="M9.76562 18.3594C9.76562 18.9002 9.92599 19.4288 10.2265 19.8785C10.5269 20.3282 10.954 20.6786 11.4536 20.8856C11.9532 21.0926 12.503 21.1467 13.0334 21.0412C13.5639 20.9357 14.0511 20.6753 14.4335 20.2929C14.8159 19.9105 15.0763 19.4232 15.1818 18.8928C15.2873 18.3624 15.2332 17.8126 15.0262 17.313C14.8193 16.8133 14.4688 16.3863 14.0191 16.0858C13.5695 15.7854 13.0408 15.625 12.5 15.625C11.7751 15.6258 11.08 15.9142 10.5674 16.4268C10.0548 16.9394 9.76645 17.6344 9.76562 18.3594ZM14.4531 18.3594C14.4531 18.7457 14.3386 19.1233 14.124 19.4445C13.9094 19.7657 13.6043 20.016 13.2474 20.1638C12.8905 20.3117 12.4978 20.3503 12.119 20.275C11.7401 20.1996 11.3921 20.0136 11.1189 19.7404C10.8458 19.4673 10.6598 19.1193 10.5844 18.7404C10.509 18.3615 10.5477 17.9688 10.6955 17.6119C10.8434 17.2551 11.0937 16.95 11.4149 16.7354C11.7361 16.5208 12.1137 16.4062 12.5 16.4062C13.0178 16.4069 13.5142 16.6128 13.8804 16.979C14.2465 17.3451 14.4525 17.8416 14.4531 18.3594Z" fill="#033F2D"/>
</g>
<defs>
<clipPath id="clip0_406_19086">
<rect width="25" height="25" fill="white"/>
</clipPath>
</defs>
</svg>
