<svg width="40" height="40" viewBox="0 0 40 40" fill="none" xmlns="http://www.w3.org/2000/svg">
<g clip-path="url(#clip0_394_5466)">
<path d="M24.5003 6.23763C24.5807 6.22121 24.6571 6.18911 24.7251 6.14317C24.7932 6.09722 24.8515 6.03832 24.8968 5.96984C24.942 5.90136 24.9734 5.82463 24.989 5.74404C25.0046 5.66344 25.0042 5.58056 24.9878 5.50013C24.9714 5.41969 24.9393 5.34328 24.8933 5.27525C24.8474 5.20722 24.7885 5.1489 24.72 5.10364C24.6515 5.05837 24.5748 5.02703 24.4942 5.01142C24.4136 4.9958 24.3307 4.99621 24.2503 5.01263C23.3756 5.18796 22.5465 5.54218 21.8152 6.05305C21.0838 6.56392 20.4659 7.22043 20.0003 7.98138C19.5347 7.22033 18.9169 6.56375 18.1855 6.05286C17.4541 5.54198 16.625 5.18782 15.7503 5.01263C15.5878 4.97948 15.4189 5.01221 15.2806 5.10364C15.1422 5.19506 15.0459 5.33768 15.0128 5.50013C14.9796 5.66257 15.0124 5.83153 15.1038 5.96984C15.1952 6.10815 15.3378 6.20447 15.5003 6.23763C16.2485 6.38594 16.9552 6.69585 17.5712 7.14569C18.1872 7.59553 18.6975 8.17445 19.0665 8.842C17.6878 9.10138 16.8753 9.9545 16.8753 11.2501C16.8384 12.3077 17.2027 13.34 17.8953 14.1401C17.4725 14.3683 17.1084 14.6912 16.8314 15.0836C16.5543 15.4761 16.3719 15.9273 16.2984 16.402C14.4053 17.0076 6.41214 19.6764 4.50777 22.1151C4.24964 22.4853 4.09486 22.9175 4.05937 23.3674C4.02389 23.8173 4.10899 24.2685 4.30589 24.6745C4.59277 25.2633 5.38964 26.2501 7.50027 26.2501C11.7446 26.2501 14.9015 21.8239 16.4296 19.132C16.4829 19.2868 16.5477 19.4375 16.6234 19.5826C16.661 19.6567 16.7129 19.7225 16.7763 19.7763C16.8396 19.83 16.913 19.8706 16.9922 19.8957C17.0714 19.9208 17.1548 19.9298 17.2375 19.9222C17.3202 19.9147 17.4006 19.8908 17.4739 19.8518C17.5473 19.8128 17.6121 19.7596 17.6647 19.6953C17.7173 19.631 17.7565 19.5569 17.78 19.4772C17.8036 19.3976 17.8111 19.314 17.802 19.2315C17.7929 19.1489 17.7675 19.069 17.7271 18.9964C17.5808 18.7291 17.5029 18.4298 17.5003 18.1251V16.8751C17.5003 16.3778 17.6978 15.9009 18.0494 15.5493C18.4011 15.1977 18.878 15.0001 19.3753 15.0001H20.6253C20.9299 15.0028 21.2292 15.0807 21.4965 15.227C21.6389 15.29 21.7997 15.2977 21.9474 15.2484C22.0951 15.1991 22.219 15.0965 22.295 14.9606C22.371 14.8247 22.3936 14.6653 22.3582 14.5137C22.3229 14.362 22.2323 14.2291 22.104 14.1408C22.7973 13.3408 23.1621 12.3081 23.1253 11.2501C23.1253 9.9545 22.3128 9.10138 20.9315 8.842C21.3008 8.17422 21.8116 7.59516 22.428 7.14532C23.0444 6.69547 23.7517 6.38569 24.5003 6.23763ZM7.50027 25.0001C6.42402 25.0001 5.70777 24.6982 5.42965 24.1251C5.33648 23.929 5.29342 23.7128 5.30433 23.496C5.31524 23.2792 5.37977 23.0684 5.49214 22.8826C6.82839 21.1714 12.4015 19.0245 15.6578 17.9251C14.3984 20.2783 11.384 25.0001 7.50027 25.0001ZM21.8753 11.2501C21.8753 11.6676 21.7846 13.7501 20.0003 13.7501C18.2159 13.7501 18.1253 11.6676 18.1253 11.2501C18.1253 10.9376 18.1253 10.0001 20.0003 10.0001C21.8753 10.0001 21.8753 10.9408 21.8753 11.2501Z" fill="#033F2D"/>
<path d="M27.6831 7.05826L26.4331 8.30826C26.3159 8.42544 26.25 8.58439 26.25 8.75013V10.0001C26.25 10.1659 26.3158 10.3249 26.4331 10.4421C26.5503 10.5593 26.7092 10.6251 26.875 10.6251C27.0408 10.6251 27.1997 10.5593 27.3169 10.4421C27.4342 10.3249 27.5 10.1659 27.5 10.0001V9.00888L28.5669 7.94201C28.6807 7.82413 28.7437 7.66625 28.7423 7.50238C28.7409 7.33851 28.6751 7.18175 28.5593 7.06587C28.4434 6.94999 28.2866 6.88426 28.1228 6.88284C27.9589 6.88141 27.801 6.94441 27.6831 7.05826Z" fill="#033F2D"/>
<path d="M13.5668 8.30826L12.3168 7.05826C12.1989 6.94441 12.041 6.88141 11.8771 6.88284C11.7133 6.88426 11.5565 6.94999 11.4406 7.06587C11.3247 7.18175 11.259 7.33851 11.2576 7.50238C11.2562 7.66625 11.3192 7.82413 11.433 7.94201L12.4999 9.00888V11.2501C12.4999 11.4159 12.5658 11.5748 12.683 11.692L15.183 14.192C15.3009 14.3059 15.4588 14.3689 15.6226 14.3674C15.7865 14.366 15.9433 14.3003 16.0592 14.1844C16.175 14.0685 16.2408 13.9118 16.2422 13.7479C16.2436 13.584 16.1806 13.4261 16.0668 13.3083L13.7499 10.9914V8.75013C13.7499 8.58439 13.684 8.42544 13.5668 8.30826Z" fill="#033F2D"/>
<path d="M27.4998 30.9913V26.8751C27.4996 26.7517 27.4631 26.631 27.3948 26.5282L26.1448 24.6532C26.0528 24.5153 25.9098 24.4196 25.7473 24.3871C25.5847 24.3546 25.4159 24.3881 25.278 24.4801C25.14 24.5721 25.0443 24.7151 25.0119 24.8777C24.9794 25.0402 25.0128 25.209 25.1048 25.347L26.2498 27.0626V31.2501C26.2499 31.4158 26.3157 31.5748 26.433 31.692L28.933 34.192C29.0508 34.3058 29.2087 34.3688 29.3726 34.3674C29.5365 34.366 29.6932 34.3002 29.8091 34.1843C29.925 34.0685 29.9907 33.9117 29.9921 33.7478C29.9936 33.584 29.9306 33.4261 29.8167 33.3082L27.4998 30.9913Z" fill="#033F2D"/>
<path d="M22.4341 20.3532C22.354 20.3715 22.2783 20.4055 22.2113 20.4532C22.1444 20.5008 22.0874 20.5612 22.0439 20.6308C22.0003 20.7005 21.9708 20.7781 21.9572 20.8591C21.9437 20.9402 21.9462 21.0231 21.9647 21.1032C22.3321 22.7939 22.5117 24.52 22.5003 26.2501C22.5092 28.8606 21.6273 31.396 20.0003 33.4376C18.4544 31.4967 17.5819 29.1055 17.5147 26.6251C17.5121 26.543 17.4934 26.4622 17.4596 26.3874C17.4258 26.3126 17.3776 26.2451 17.3177 26.1889C17.2579 26.1327 17.1875 26.0888 17.1107 26.0598C17.0339 26.0308 16.9521 26.0172 16.87 26.0198C16.788 26.0223 16.7072 26.0411 16.6323 26.0749C16.5575 26.1087 16.4901 26.1569 16.4339 26.2167C16.3776 26.2766 16.3338 26.347 16.3048 26.4238C16.2757 26.5006 16.2621 26.5824 16.2647 26.6644C16.3183 29.7007 17.4958 32.6093 19.5697 34.8276C19.6858 34.9373 19.8394 34.9984 19.9991 34.9984C20.1588 34.9984 20.3124 34.9373 20.4285 34.8276C22.606 32.5072 23.797 29.4318 23.7503 26.2501C23.7619 24.4255 23.5716 22.6053 23.1828 20.8226C23.1458 20.6611 23.0461 20.5209 22.9056 20.4329C22.7652 20.3448 22.5956 20.3162 22.4341 20.3532Z" fill="#033F2D"/>
<path d="M35.4922 22.1157C34.1015 20.3344 29.5547 18.4463 25.9803 17.1782C25.8241 17.1227 25.6522 17.1315 25.5024 17.2027C25.3527 17.2739 25.2374 17.4017 25.1818 17.5579C25.1263 17.7141 25.1351 17.886 25.2063 18.0357C25.2775 18.1855 25.4053 18.3008 25.5615 18.3563C30.3197 20.0488 33.5803 21.7007 34.5072 22.8882C34.62 23.0737 34.6847 23.2844 34.6957 23.5012C34.7066 23.718 34.6633 23.9342 34.5697 24.1301C34.2922 24.6982 33.5759 25.0001 32.4997 25.0001C29.0222 25.0001 26.2303 21.1651 24.8747 18.8788C24.8328 18.8082 24.7774 18.7465 24.7117 18.6973C24.646 18.648 24.5713 18.6122 24.4917 18.5919C24.4122 18.5715 24.3294 18.5671 24.2482 18.5787C24.1669 18.5904 24.0887 18.6179 24.0181 18.6598C23.9475 18.7016 23.8858 18.757 23.8365 18.8227C23.7873 18.8884 23.7515 18.9631 23.7312 19.0427C23.7108 19.1222 23.7063 19.205 23.718 19.2862C23.7296 19.3675 23.7572 19.4457 23.799 19.5163C25.6203 22.5882 28.6072 26.2501 32.4997 26.2501C34.6103 26.2501 35.4072 25.2632 35.694 24.6744C35.891 24.2685 35.9761 23.8174 35.9406 23.3677C35.9051 22.9179 35.7503 22.4857 35.4922 22.1157Z" fill="#033F2D"/>
<path d="M13.7496 28.75C13.5839 28.75 13.4249 28.8158 13.3077 28.9331C13.1905 29.0503 13.1246 29.2092 13.1246 29.375V30.9912L10.8077 33.3081C10.7481 33.3658 10.7004 33.4347 10.6677 33.511C10.6349 33.5872 10.6177 33.6693 10.617 33.7522C10.6162 33.8352 10.6321 33.9175 10.6635 33.9943C10.6949 34.0712 10.7413 34.1409 10.8 34.1996C10.8587 34.2583 10.9285 34.3047 11.0053 34.3361C11.0821 34.3676 11.1644 34.3834 11.2474 34.3827C11.3304 34.3819 11.4124 34.3647 11.4886 34.3319C11.5649 34.2992 11.6338 34.2516 11.6915 34.1919L14.1915 31.6919C14.3087 31.5747 14.3746 31.4157 14.3746 31.25V29.375C14.3746 29.2092 14.3088 29.0503 14.1916 28.9331C14.0744 28.8158 13.9154 28.75 13.7496 28.75Z" fill="#033F2D"/>
<path d="M34.1418 5.85821C34.0246 5.74104 33.8657 5.67522 33.6999 5.67522C33.5342 5.67522 33.3753 5.74104 33.2581 5.85821L6.31682 32.7995C3.10842 29.3717 1.30338 24.8647 1.25879 20.1699C1.21421 15.4751 2.93332 10.9346 6.07604 7.44655C9.21876 3.95852 13.5562 1.77707 18.2302 1.33377C22.9042 0.890457 27.5744 2.21758 31.3168 5.05258C31.3821 5.10346 31.4568 5.14087 31.5367 5.16264C31.6165 5.18442 31.6999 5.19011 31.7819 5.17941C31.864 5.1687 31.9431 5.14181 32.0147 5.10028C32.0863 5.05875 32.1489 5.00343 32.1989 4.9375C32.249 4.87158 32.2854 4.79638 32.3061 4.71626C32.3269 4.63615 32.3315 4.55271 32.3197 4.47079C32.308 4.38888 32.28 4.31011 32.2376 4.23907C32.1951 4.16803 32.139 4.10613 32.0724 4.05696C28.6041 1.41344 24.3608 -0.0124876 19.9999 8.23988e-05C16.0487 -0.00205385 12.1854 1.16687 8.89816 3.3592C5.6109 5.55153 3.04709 8.66891 1.53061 12.3176C0.0141252 15.9662 -0.38701 19.9825 0.377874 23.859C1.14276 27.7355 3.03935 31.2984 5.82807 34.0976C5.83995 34.112 5.84495 34.1288 5.85807 34.142C5.8712 34.1551 5.88807 34.1601 5.90245 34.172C9.66333 37.8857 14.7417 39.9593 20.0271 39.9392C25.3126 39.9191 30.375 37.807 34.1076 34.0648C37.8402 30.3226 39.9391 25.2547 39.9455 19.9692C39.952 14.6837 37.8653 9.61073 34.1418 5.85946V5.85821ZM19.9999 38.7501C15.2439 38.7527 10.6661 36.9405 7.20057 33.6832L33.6874 7.19446C36.1854 9.86276 37.8487 13.2031 38.4728 16.8045C39.0969 20.4059 38.6544 24.1112 37.2 27.4644C35.7455 30.8176 33.3424 33.6724 30.2865 35.6776C27.2305 37.6827 23.655 38.7507 19.9999 38.7501Z" fill="#033F2D"/>
</g>
<defs>
<clipPath id="clip0_394_5466">
<rect width="40" height="40" fill="white"/>
</clipPath>
</defs>
</svg>
