<svg width="40" height="40" viewBox="0 0 40 40" fill="none" xmlns="http://www.w3.org/2000/svg">
<g clip-path="url(#clip0_471_344)">
<path d="M24.4995 6.23763C24.58 6.22121 24.6564 6.18911 24.7244 6.14317C24.7924 6.09722 24.8508 6.03832 24.896 5.96984C24.9413 5.90136 24.9726 5.82463 24.9882 5.74404C25.0039 5.66344 25.0035 5.58056 24.987 5.50013C24.9706 5.41969 24.9385 5.34328 24.8926 5.27525C24.8466 5.20722 24.7877 5.1489 24.7193 5.10364C24.6508 5.05837 24.574 5.02703 24.4934 5.01142C24.4129 4.9958 24.33 4.99621 24.2495 5.01263C23.3748 5.18796 22.5458 5.54218 21.8144 6.05305C21.0831 6.56392 20.4652 7.22043 19.9995 7.98138C19.534 7.22033 18.9162 6.56375 18.1848 6.05286C17.4534 5.54198 16.6243 5.18782 15.7495 5.01263C15.5871 4.97948 15.4181 5.01221 15.2798 5.10364C15.1415 5.19506 15.0452 5.33768 15.012 5.50013C14.9789 5.66257 15.0116 5.83153 15.103 5.96984C15.1945 6.10815 15.3371 6.20447 15.4995 6.23763C16.2477 6.38594 16.9545 6.69585 17.5705 7.14569C18.1865 7.59553 18.6968 8.17445 19.0658 8.842C17.687 9.10138 16.8745 9.9545 16.8745 11.2501C16.8376 12.3077 17.202 13.34 17.8945 14.1401C17.4718 14.3683 17.1077 14.6912 16.8306 15.0836C16.5536 15.4761 16.3712 15.9273 16.2977 16.402C14.4045 17.0076 6.41141 19.6764 4.50704 22.1151C4.24891 22.4853 4.09412 22.9175 4.05864 23.3674C4.02316 23.8173 4.10825 24.2685 4.30516 24.6745C4.59204 25.2633 5.38891 26.2501 7.49954 26.2501C11.7439 26.2501 14.9008 21.8239 16.4289 19.132C16.4822 19.2868 16.5469 19.4375 16.6227 19.5826C16.6602 19.6567 16.7122 19.7225 16.7755 19.7763C16.8389 19.83 16.9123 19.8706 16.9914 19.8957C17.0706 19.9208 17.154 19.9298 17.2367 19.9223C17.3195 19.9147 17.3998 19.8908 17.4732 19.8518C17.5466 19.8128 17.6114 19.7596 17.664 19.6953C17.7165 19.631 17.7557 19.5569 17.7793 19.4772C17.8029 19.3976 17.8104 19.314 17.8013 19.2315C17.7922 19.1489 17.7667 19.069 17.7264 18.9964C17.5801 18.7291 17.5021 18.4298 17.4995 18.1251V16.8751C17.4995 16.3778 17.6971 15.9009 18.0487 15.5493C18.4003 15.1977 18.8773 15.0001 19.3745 15.0001H20.6245C20.9292 15.0028 21.2285 15.0807 21.4958 15.227C21.6382 15.29 21.7989 15.2977 21.9466 15.2484C22.0943 15.1991 22.2183 15.0965 22.2943 14.9606C22.3703 14.8247 22.3929 14.6653 22.3575 14.5137C22.3222 14.362 22.2315 14.2291 22.1033 14.1408C22.7965 13.3408 23.1614 12.3081 23.1245 11.2501C23.1245 9.9545 22.312 9.10138 20.9308 8.842C21.3001 8.17422 21.8108 7.59516 22.4273 7.14532C23.0437 6.69547 23.7509 6.38569 24.4995 6.23763ZM7.49954 25.0001C6.42329 25.0001 5.70704 24.6983 5.42891 24.1251C5.33575 23.929 5.29269 23.7128 5.3036 23.496C5.31451 23.2792 5.37904 23.0684 5.49141 22.8826C6.82766 21.1714 12.4008 19.0245 15.657 17.9251C14.3977 20.2783 11.3833 25.0001 7.49954 25.0001ZM21.8745 11.2501C21.8745 11.6676 21.7839 13.7501 19.9995 13.7501C18.2152 13.7501 18.1245 11.6676 18.1245 11.2501C18.1245 10.9376 18.1245 10.0001 19.9995 10.0001C21.8745 10.0001 21.8745 10.9408 21.8745 11.2501Z" fill="#033F2D"/>
<path d="M27.6831 7.05826L26.4331 8.30826C26.3159 8.42544 26.25 8.58439 26.25 8.75013V10.0001C26.25 10.1659 26.3158 10.3249 26.4331 10.4421C26.5503 10.5593 26.7092 10.6251 26.875 10.6251C27.0408 10.6251 27.1997 10.5593 27.3169 10.4421C27.4342 10.3249 27.5 10.1659 27.5 10.0001V9.00888L28.5669 7.94201C28.6807 7.82413 28.7437 7.66625 28.7423 7.50238C28.7409 7.33851 28.6751 7.18175 28.5593 7.06587C28.4434 6.94999 28.2866 6.88426 28.1228 6.88284C27.9589 6.88141 27.801 6.94441 27.6831 7.05826Z" fill="#033F2D"/>
<path d="M13.567 8.30826L12.317 7.05826C12.1991 6.94441 12.0413 6.88141 11.8774 6.88284C11.7135 6.88426 11.5568 6.94999 11.4409 7.06587C11.325 7.18175 11.2593 7.33851 11.2578 7.50238C11.2564 7.66625 11.3194 7.82413 11.4333 7.94201L12.5001 9.00888V11.2501C12.5002 11.4159 12.566 11.5748 12.6833 11.692L15.1833 14.192C15.3011 14.3059 15.459 14.3689 15.6229 14.3674C15.7868 14.366 15.9435 14.3003 16.0594 14.1844C16.1753 14.0685 16.241 13.9118 16.2424 13.7479C16.2439 13.584 16.1809 13.4261 16.067 13.3083L13.7501 10.9914V8.75013C13.7501 8.58439 13.6842 8.42544 13.567 8.30826Z" fill="#033F2D"/>
<path d="M27.5001 30.9913V26.8751C27.4999 26.7517 27.4634 26.631 27.3951 26.5282L26.1451 24.6532C26.0531 24.5153 25.9101 24.4196 25.7475 24.3871C25.5849 24.3546 25.4161 24.3881 25.2782 24.4801C25.1403 24.5721 25.0446 24.7151 25.0121 24.8777C24.9796 25.0402 25.0131 25.209 25.1051 25.347L26.2501 27.0626V31.2501C26.2501 31.4158 26.316 31.5748 26.4332 31.692L28.9332 34.192C29.0511 34.3058 29.209 34.3688 29.3728 34.3674C29.5367 34.366 29.6935 34.3002 29.8093 34.1843C29.9252 34.0685 29.991 33.9117 29.9924 33.7478C29.9938 33.584 29.9308 33.4261 29.817 33.3082L27.5001 30.9913Z" fill="#033F2D"/>
<path d="M22.4353 20.3532C22.3552 20.3715 22.2795 20.4055 22.2125 20.4532C22.1456 20.5008 22.0887 20.5612 22.0451 20.6308C22.0015 20.7005 21.972 20.7781 21.9585 20.8591C21.9449 20.9402 21.9474 21.0231 21.9659 21.1032C22.3333 22.7939 22.5129 24.52 22.5016 26.2501C22.5104 28.8606 21.6285 31.396 20.0016 33.4376C18.4556 31.4967 17.5831 29.1055 17.5159 26.6251C17.5133 26.543 17.4946 26.4622 17.4608 26.3874C17.427 26.3126 17.3788 26.2451 17.319 26.1889C17.2591 26.1327 17.1887 26.0888 17.1119 26.0598C17.0351 26.0308 16.9533 26.0172 16.8712 26.0198C16.7892 26.0223 16.7084 26.0411 16.6336 26.0749C16.5587 26.1087 16.4913 26.1569 16.4351 26.2167C16.3789 26.2766 16.335 26.347 16.306 26.4238C16.277 26.5006 16.2633 26.5824 16.2659 26.6644C16.3195 29.7007 17.4971 32.6093 19.5709 34.8276C19.687 34.9373 19.8406 34.9984 20.0003 34.9984C20.16 34.9984 20.3136 34.9373 20.4297 34.8276C22.6072 32.5072 23.7983 29.4318 23.7516 26.2501C23.7631 24.4255 23.5728 22.6053 23.1841 20.8226C23.147 20.6611 23.0473 20.5209 22.9069 20.4329C22.7665 20.3448 22.5968 20.3162 22.4353 20.3532Z" fill="#033F2D"/>
<path d="M35.4914 22.1157C34.1008 20.3344 29.5539 18.4463 25.9796 17.1782C25.8233 17.1227 25.6514 17.1315 25.5017 17.2027C25.352 17.2739 25.2366 17.4017 25.1811 17.5579C25.1256 17.7141 25.1344 17.886 25.2056 18.0357C25.2768 18.1855 25.4046 18.3008 25.5608 18.3563C30.3189 20.0488 33.5796 21.7007 34.5064 22.8882C34.6192 23.0737 34.684 23.2844 34.6949 23.5012C34.7058 23.718 34.6625 23.9342 34.5689 24.1301C34.2914 24.6982 33.5752 25.0001 32.4989 25.0001C29.0214 25.0001 26.2295 21.1651 24.8739 18.8788C24.8321 18.8082 24.7767 18.7465 24.711 18.6973C24.6453 18.648 24.5706 18.6122 24.491 18.5919C24.4115 18.5715 24.3287 18.5671 24.2474 18.5787C24.1662 18.5904 24.088 18.6179 24.0174 18.6598C23.9467 18.7016 23.885 18.757 23.8358 18.8227C23.7866 18.8884 23.7508 18.9631 23.7304 19.0427C23.7101 19.1222 23.7056 19.205 23.7173 19.2862C23.7289 19.3675 23.7564 19.4457 23.7983 19.5163C25.6195 22.5882 28.6064 26.2501 32.4989 26.2501C34.6096 26.2501 35.4064 25.2632 35.6933 24.6744C35.8902 24.2685 35.9753 23.8174 35.9398 23.3677C35.9044 22.9179 35.7496 22.4857 35.4914 22.1157Z" fill="#033F2D"/>
<path d="M13.7499 28.75C13.5841 28.75 13.4251 28.8158 13.3079 28.9331C13.1907 29.0503 13.1249 29.2092 13.1249 29.375V30.9912L10.808 33.3081C10.7483 33.3658 10.7007 33.4347 10.6679 33.511C10.6352 33.5872 10.6179 33.6693 10.6172 33.7522C10.6165 33.8352 10.6323 33.9175 10.6637 33.9943C10.6952 34.0712 10.7416 34.1409 10.8002 34.1996C10.8589 34.2583 10.9287 34.3047 11.0055 34.3361C11.0823 34.3676 11.1646 34.3834 11.2476 34.3827C11.3306 34.3819 11.4126 34.3647 11.4889 34.3319C11.5651 34.2992 11.6341 34.2516 11.6917 34.1919L14.1917 31.6919C14.309 31.5747 14.3748 31.4157 14.3749 31.25V29.375C14.3749 29.2092 14.309 29.0503 14.1918 28.9331C14.0746 28.8158 13.9156 28.75 13.7499 28.75Z" fill="#033F2D"/>
<path d="M34.1421 5.85821C34.0249 5.74104 33.8659 5.67522 33.7002 5.67522C33.5345 5.67522 33.3755 5.74104 33.2583 5.85821L6.31707 32.7995C3.10867 29.3717 1.30363 24.8647 1.25904 20.1699C1.21445 15.4751 2.93356 10.9346 6.07628 7.44655C9.21901 3.95852 13.5564 1.77707 18.2304 1.33377C22.9045 0.890457 27.5746 2.21758 31.3171 5.05258C31.3823 5.10346 31.4571 5.14087 31.5369 5.16264C31.6167 5.18442 31.7001 5.19011 31.7822 5.17941C31.8642 5.1687 31.9434 5.14181 32.0149 5.10028C32.0865 5.05875 32.1491 5.00343 32.1992 4.9375C32.2492 4.87158 32.2856 4.79638 32.3064 4.71626C32.3271 4.63615 32.3317 4.55271 32.32 4.47079C32.3082 4.38888 32.2803 4.31011 32.2378 4.23907C32.1954 4.16803 32.1393 4.10613 32.0727 4.05696C28.6044 1.41344 24.3611 -0.0124876 20.0002 8.23988e-05C16.0489 -0.00205385 12.1857 1.16687 8.89841 3.3592C5.61114 5.55153 3.04734 8.66891 1.53085 12.3176C0.0143693 15.9662 -0.386766 19.9825 0.378118 23.859C1.143 27.7355 3.03959 31.2984 5.82832 34.0976C5.84019 34.112 5.84519 34.1288 5.85832 34.142C5.87144 34.1551 5.88832 34.1601 5.90269 34.172C9.66358 37.8857 14.7419 39.9593 20.0274 39.9392C25.3128 39.9191 30.3753 37.807 34.1079 34.0648C37.8404 30.3226 39.9394 25.2547 39.9458 19.9692C39.9522 14.6837 37.8655 9.61073 34.1421 5.85946V5.85821ZM20.0002 38.7501C15.2442 38.7527 10.6664 36.9405 7.20082 33.6832L33.6877 7.19446C36.1856 9.86276 37.849 13.2031 38.473 16.8045C39.0971 20.4059 38.6547 24.1112 37.2002 27.4644C35.7457 30.8176 33.3427 33.6724 30.2867 35.6776C27.2308 37.6827 23.6553 38.7507 20.0002 38.7501Z" fill="#033F2D"/>
</g>
<defs>
<clipPath id="clip0_471_344">
<rect width="40" height="40" fill="white"/>
</clipPath>
</defs>
</svg>
