<svg width="24" height="24" viewBox="0 0 24 24" fill="none" xmlns="http://www.w3.org/2000/svg">
<g clip-path="url(#clip0_471_784)">
<path d="M8.57199 8.5714C10.7022 8.5714 12.4291 6.8445 12.4291 4.71426C12.4291 2.58402 10.7022 0.857117 8.57199 0.857117C6.44175 0.857117 4.71484 2.58402 4.71484 4.71426C4.71484 6.8445 6.44175 8.5714 8.57199 8.5714Z" stroke="#033F2D" stroke-width="1.5" stroke-linecap="round" stroke-linejoin="round"/>
<path d="M6.00028 21.4285H0.857422V18.8571C0.871069 17.5505 1.21567 16.2686 1.85903 15.1312C2.5024 13.9939 3.42354 13.0382 4.53641 12.3533C5.64928 11.6685 6.91757 11.2769 8.22282 11.2151C9.52807 11.1533 10.8277 11.4233 12.0003 12" stroke="#033F2D" stroke-width="1.5" stroke-linecap="round" stroke-linejoin="round"/>
<path d="M23.1437 14.5714L15.0694 22.6457L11.418 23.1428L11.9323 19.4914L19.9894 11.4171L23.1437 14.5714Z" stroke="#033F2D" stroke-width="1.5" stroke-linecap="round" stroke-linejoin="round"/>
</g>
<defs>
<clipPath id="clip0_471_784">
<rect width="24" height="24" fill="white"/>
</clipPath>
</defs>
</svg>
