<svg width="25" height="25" viewBox="0 0 25 25" fill="none" xmlns="http://www.w3.org/2000/svg">
<path d="M17.6305 11.7242L14.3438 10.1734C14.1432 10.0782 13.9736 9.92813 13.8547 9.7406C13.7359 9.55307 13.6725 9.33572 13.6719 9.11367V5.23984L15.7867 3.125H16.4062V6.96445C16.1779 6.88337 15.9803 6.73363 15.8404 6.53579C15.7005 6.33794 15.6253 6.10167 15.625 5.85938C15.625 5.75577 15.5838 5.65642 15.5106 5.58316C15.4373 5.5099 15.338 5.46875 15.2344 5.46875C15.1308 5.46875 15.0314 5.5099 14.9582 5.58316C14.8849 5.65642 14.8438 5.75577 14.8438 5.85938C14.8444 6.37719 15.0503 6.87361 15.4165 7.23976C15.7826 7.60591 16.2791 7.81188 16.7969 7.8125C16.9005 7.8125 16.9998 7.77135 17.0731 7.69809C17.1463 7.62483 17.1875 7.52548 17.1875 7.42188V3.125H17.9688C18.0724 3.125 18.1717 3.08384 18.245 3.01059C18.3182 2.93733 18.3594 2.83798 18.3594 2.73438V0.390625C18.3594 0.287025 18.3182 0.187668 18.245 0.114411C18.1717 0.041155 18.0724 0 17.9688 0L10.4734 0C10.1654 0.000327808 9.86172 0.0732633 9.58711 0.212891L6.85274 1.60508C6.78877 1.63794 6.73511 1.68783 6.69769 1.74924C6.66026 1.81066 6.64052 1.88121 6.64063 1.95312V3.51562C6.64063 3.61923 6.68178 3.71858 6.75504 3.79184C6.82829 3.86509 6.92765 3.90625 7.03125 3.90625C7.74536 3.90914 8.42981 4.19216 8.93743 4.69444C9.44504 5.19672 9.73527 5.87815 9.7457 6.59219L9.7625 7.30391L6.59844 11.8742C6.3712 12.2011 6.2496 12.5898 6.25 12.9879V19.9219C6.25 20.0255 6.29116 20.1248 6.36441 20.1981C6.43767 20.2713 6.53703 20.3125 6.64063 20.3125C6.74423 20.3125 6.84358 20.2713 6.91684 20.1981C6.9901 20.1248 7.03125 20.0255 7.03125 19.9219V12.9879C7.03105 12.7496 7.1037 12.5169 7.23945 12.3211L10.3609 7.8125H12.8906V9.11367C12.8916 9.48373 12.9972 9.84597 13.1953 10.1585C13.3934 10.4711 13.6759 10.7213 14.0102 10.8801L17.2969 12.4305C17.4975 12.5258 17.667 12.676 17.7859 12.8635C17.9048 13.0511 17.9682 13.2685 17.9688 13.4906V23.0469C17.9688 23.3577 17.8453 23.6557 17.6255 23.8755C17.4057 24.0953 17.1077 24.2188 16.7969 24.2188H8.20313C7.89233 24.2188 7.59425 24.0953 7.37449 23.8755C7.15472 23.6557 7.03125 23.3577 7.03125 23.0469V21.4844C7.03125 21.3808 6.9901 21.2814 6.91684 21.2082C6.84358 21.1349 6.74423 21.0938 6.64063 21.0938C6.53703 21.0938 6.43767 21.1349 6.36441 21.2082C6.29116 21.2814 6.25 21.3808 6.25 21.4844V23.0469C6.25062 23.5647 6.4566 24.0611 6.82274 24.4273C7.18889 24.7934 7.68532 24.9994 8.20313 25H16.7969C17.3147 24.9994 17.8111 24.7934 18.1773 24.4273C18.5434 24.0611 18.7494 23.5647 18.75 23.0469V13.4906C18.7491 13.1206 18.6435 12.7583 18.4454 12.4457C18.2473 12.1331 17.9647 11.883 17.6305 11.7242ZM17.5781 2.34375H16.0156V0.78125H17.5781V2.34375ZM10.5379 7.03125L10.527 6.57812C10.5132 5.72698 10.1908 4.9098 9.61963 4.27862C9.04845 3.64744 8.26743 3.24525 7.42188 3.14687V2.19258L9.94141 0.908984C10.1063 0.825299 10.2885 0.781545 10.4734 0.78125H15.2344V2.57266L13.0051 4.80195C12.9318 4.87519 12.8906 4.97453 12.8906 5.07812V7.03125H10.5379Z" fill="#033F2D"/>
<path d="M12.5003 14.8438C12.8077 14.844 13.1135 14.8894 13.4077 14.9786C13.506 15.0056 13.6109 14.9931 13.7001 14.9438C13.7893 14.8945 13.8557 14.8124 13.8852 14.7148C13.9146 14.6173 13.9048 14.5121 13.8578 14.4217C13.8108 14.3313 13.7303 14.2628 13.6335 14.2309C12.8014 13.9778 11.9085 14.0099 11.0967 14.3221C10.2848 14.6342 9.60049 15.2085 9.15221 15.9539C8.70392 16.6992 8.51739 17.5729 8.6222 18.4364C8.72702 19.2998 9.11717 20.1035 9.73076 20.72C9.73389 20.7231 9.73467 20.7278 9.73819 20.7309C9.7417 20.734 9.746 20.7352 9.74912 20.7383C10.4888 21.4388 11.4729 21.8226 12.4915 21.8079C13.5101 21.7932 14.4827 21.3811 15.2018 20.6596C15.9209 19.9381 16.3298 18.9641 16.3411 17.9455C16.3524 16.9268 15.9653 15.944 15.2624 15.2067C15.1892 15.1335 15.0898 15.0923 14.9862 15.0923C14.8827 15.0923 14.7833 15.1335 14.7101 15.2067L13.3124 16.6043C12.9885 16.3351 12.6106 16.1383 12.2042 16.0274C11.9743 15.9372 11.723 15.9161 11.4813 15.9666C11.2395 16.0171 11.0178 16.137 10.8431 16.3116C10.6685 16.4863 10.5486 16.708 10.4981 16.9498C10.4476 17.1915 10.4688 17.4428 10.5589 17.6727C10.6698 18.0791 10.8666 18.457 11.1358 18.7809L10.0347 19.8829C9.67485 19.4217 9.45194 18.8686 9.39136 18.2868C9.33078 17.705 9.43498 17.1179 9.69207 16.5925C9.94916 16.067 10.3488 15.6245 10.8453 15.3153C11.3419 15.0061 11.9153 14.8427 12.5003 14.8438ZM12.5003 21.0938C11.8065 21.0939 11.1327 20.8618 10.5862 20.4344L11.6874 19.3332C12.0113 19.6025 12.3892 19.7993 12.7956 19.9102C12.9456 19.9485 13.0998 19.9683 13.2546 19.9692C13.4202 19.9748 13.5853 19.9474 13.7402 19.8884C13.8951 19.8295 14.0366 19.7402 14.1565 19.6258C14.3187 19.4436 14.4304 19.2221 14.4803 18.9833C14.5302 18.7445 14.5166 18.4968 14.4409 18.2649C14.33 17.8585 14.1332 17.4806 13.864 17.1567L14.9671 16.0547C15.3262 16.5162 15.5485 17.0693 15.6086 17.6509C15.6687 18.2325 15.5643 18.8194 15.3072 19.3445C15.0501 19.8697 14.6507 20.3121 14.1544 20.6214C13.6582 20.9307 13.085 21.0943 12.5003 21.0938ZM13.3077 17.7137C13.4801 17.9336 13.6079 18.185 13.6839 18.4539C13.7233 18.5556 13.7368 18.6654 13.7232 18.7736C13.7095 18.8818 13.6692 18.9848 13.6058 19.0735C13.517 19.1366 13.4139 19.1768 13.3058 19.1904C13.1977 19.2041 13.0879 19.1907 12.9862 19.1516C12.7173 19.0756 12.4659 18.9479 12.246 18.7754L13.3077 17.7137ZM11.3155 17.4836C11.2761 17.382 11.2626 17.2721 11.2762 17.164C11.2899 17.0558 11.3302 16.9528 11.3937 16.8641C11.489 16.7809 11.6134 16.7387 11.7397 16.7469C11.832 16.748 11.9239 16.7603 12.0132 16.7836C12.2821 16.8596 12.5335 16.9874 12.7534 17.1598L11.6909 18.2223C11.5194 18.0027 11.3923 17.7518 11.3167 17.4836H11.3155Z" fill="#033F2D"/>
</svg>
