<svg width="25" height="25" viewBox="0 0 25 25" fill="none" xmlns="http://www.w3.org/2000/svg">
<g clip-path="url(#clip0_276_8611)">
<path d="M21.826 3.02732C21.859 3.05672 21.8919 3.08611 21.9259 3.11639C22.2209 3.39524 22.4632 3.72791 22.7049 4.05271C22.7257 4.08065 22.7466 4.10859 22.7681 4.13737C23.3601 4.94326 23.7688 5.87179 24.0232 6.83592C24.0386 6.89313 24.054 6.95034 24.0698 7.00929C24.5615 9.06036 24.1788 11.3123 23.0921 13.1124C22.9998 13.2538 22.9035 13.39 22.8025 13.5254C22.765 13.5767 22.7274 13.6281 22.6887 13.681C22.3068 14.1952 21.8871 14.6855 21.3865 15.0879C21.3417 15.1248 21.2968 15.1618 21.2505 15.1998C19.9782 16.2269 18.288 16.9434 16.6384 16.9533C16.6009 16.9535 16.5635 16.9538 16.5249 16.9541C16.4458 16.9546 16.3668 16.9549 16.2878 16.9551C16.17 16.9555 16.0523 16.9571 15.9346 16.9586C14.7367 16.9668 13.6549 16.6571 12.57 16.1664C12.4171 16.0981 12.2631 16.0326 12.1092 15.9668C12.0694 16.0068 12.0296 16.0468 11.9885 16.088C11.0423 17.0384 10.0956 17.9883 9.14832 18.9376C9.03159 19.0546 8.91487 19.1716 8.79815 19.2885C8.77491 19.3118 8.75168 19.3351 8.72774 19.3591C8.35205 19.7356 7.97671 20.1125 7.6015 20.4895C7.21618 20.8767 6.83048 21.2634 6.44445 21.6499C6.22776 21.8668 6.01125 22.0839 5.79516 22.3015C5.59159 22.5064 5.38756 22.7108 5.18318 22.9149C5.10841 22.9897 5.03381 23.0647 4.95939 23.1399C4.40477 23.6998 3.86244 24.2292 3.0277 24.2416C2.98925 24.2411 2.9508 24.2406 2.91119 24.2401C2.8504 24.2395 2.8504 24.2395 2.78838 24.239C2.17426 24.2225 1.67953 23.9681 1.25714 23.526C0.866344 23.0589 0.716317 22.5118 0.738146 21.9063C0.854069 20.9072 1.62664 20.2897 2.29799 19.6201C2.37167 19.5464 2.44533 19.4727 2.51899 19.3991C2.71769 19.2003 2.91654 19.0018 3.11542 18.8032C3.32372 18.5953 3.53187 18.3871 3.74004 18.179C4.13369 17.7855 4.52746 17.3921 4.92128 16.9988C5.36987 16.5508 5.81831 16.1026 6.26675 15.6544C7.18868 14.733 8.11079 13.8117 9.03301 12.8906C9.01193 12.8426 9.01193 12.8426 8.99042 12.7936C8.92605 12.6467 8.86185 12.4998 8.79765 12.3529C8.77554 12.3026 8.75342 12.2522 8.73064 12.2003C7.86027 10.2061 7.77146 7.98224 8.54039 5.93629C8.91469 5.00289 9.41813 4.1718 10.1019 3.43263C10.1947 3.33146 10.2821 3.22759 10.3697 3.12193C10.5819 2.87966 10.8297 2.68668 11.0838 2.49021C11.11 2.46937 11.1361 2.44853 11.1631 2.42705C14.3828 -0.131289 18.8671 0.368161 21.826 3.02732ZM13.1834 2.19724C13.1371 2.21788 13.1371 2.21788 13.0899 2.23894C12.2924 2.59794 11.6103 3.10199 10.9861 3.71091C10.9525 3.74157 10.9188 3.77222 10.8841 3.8038C9.60352 5.00058 8.89236 6.87027 8.82988 8.59659C8.77948 10.6063 9.50887 12.4591 10.8885 13.916C10.9448 13.9762 10.9448 13.9762 11.0024 14.0377C12.3293 15.4139 14.2148 16.137 16.11 16.1743C18.1483 16.1344 19.9952 15.3449 21.4274 13.8924C22.7203 12.5367 23.4694 10.6639 23.4373 8.78904C23.3804 7.23173 22.9207 5.66766 21.9236 4.44334C21.9032 4.41807 21.8827 4.39279 21.8617 4.36676C20.6425 2.86826 18.9349 1.82914 16.992 1.61131C15.686 1.47982 14.382 1.64934 13.1834 2.19724ZM9.43942 13.699C9.38624 13.7524 9.38624 13.7524 9.33198 13.8068C9.27186 13.8669 9.27186 13.8669 9.21054 13.9283C9.167 13.972 9.12346 14.0158 9.0786 14.061C9.01205 14.1276 9.01205 14.1276 8.94416 14.1956C8.82597 14.314 8.70793 14.4325 8.58991 14.5511C8.46956 14.6719 8.34907 14.7926 8.22859 14.9133C7.99204 15.1504 7.75564 15.3877 7.51934 15.625C7.58654 15.7759 7.66346 15.8787 7.78048 15.9949C7.81371 16.0281 7.84694 16.0613 7.88118 16.0955C7.91699 16.1308 7.9528 16.1661 7.9897 16.2025C8.02641 16.2391 8.06312 16.2757 8.10094 16.3133C8.21813 16.43 8.33565 16.5463 8.45318 16.6626C8.53274 16.7416 8.61228 16.8207 8.69179 16.8998C8.88666 17.0936 9.0818 17.2871 9.27715 17.4804C9.43908 17.4099 9.54531 17.3218 9.66945 17.1969C9.70756 17.1588 9.74567 17.1207 9.78494 17.0814C9.82558 17.0402 9.86623 16.9991 9.90811 16.9567C9.97109 16.8935 9.97109 16.8935 10.0354 16.829C10.1694 16.6944 10.3031 16.5595 10.4368 16.4245C10.5277 16.3332 10.6185 16.2419 10.7094 16.1506C10.9321 15.9268 11.1545 15.7028 11.3768 15.4785C11.2437 15.3437 11.1113 15.2117 10.9657 15.0905C10.4642 14.6678 10.0257 14.2285 9.63249 13.7003C9.60162 13.662 9.60162 13.662 9.57012 13.623C9.50864 13.6175 9.50864 13.6175 9.43942 13.699ZM6.79387 16.3449C6.75526 16.3838 6.71665 16.4226 6.67687 16.4627C6.63517 16.5045 6.59347 16.5464 6.55051 16.5895C6.50667 16.6338 6.46283 16.678 6.41766 16.7236C6.35162 16.79 6.35162 16.79 6.28424 16.8577C6.175 16.9675 6.06587 17.0774 5.95684 17.1875C6.02404 17.3384 6.10096 17.4412 6.21798 17.5574C6.25121 17.5906 6.28444 17.6238 6.31868 17.658C6.35449 17.6933 6.3903 17.7286 6.4272 17.765C6.48226 17.8199 6.48226 17.8199 6.53844 17.8758C6.65563 17.9925 6.77315 18.1088 6.89068 18.2251C6.97024 18.3041 7.04978 18.3832 7.12929 18.4623C7.32416 18.6561 7.5193 18.8496 7.71466 19.0429C7.877 18.966 7.98401 18.8827 8.11062 18.7542C8.14744 18.717 8.18426 18.6799 8.2222 18.6416C8.26016 18.6029 8.29811 18.5641 8.33721 18.5241C8.37592 18.485 8.41463 18.4458 8.45452 18.4055C8.54992 18.309 8.64508 18.2122 8.74005 18.1152C8.53315 17.8683 8.31715 17.6363 8.08907 17.4089C8.056 17.3758 8.02293 17.3427 7.98886 17.3086C7.91962 17.2393 7.85031 17.1701 7.78095 17.1009C7.67427 16.9945 7.56785 16.8878 7.46145 16.7811C7.39398 16.7137 7.32649 16.6463 7.25899 16.5788C7.22705 16.5468 7.19511 16.5148 7.16221 16.4818C6.99217 16.259 6.99217 16.259 6.79387 16.3449ZM4.99691 18.1364C4.96293 18.1699 4.92894 18.2033 4.89393 18.2377C4.53725 18.589 4.18211 18.9418 3.82709 19.2948C3.65869 19.4621 3.48983 19.6289 3.32054 19.7953C3.11615 19.9962 2.91262 20.198 2.70966 20.4003C2.6323 20.4772 2.55464 20.5537 2.47669 20.63C1.83364 21.2439 1.83364 21.2439 1.58978 22.0764C1.64143 22.5339 1.8009 22.8355 2.14825 23.1445C2.4693 23.3552 2.79314 23.4265 3.17364 23.3886C3.53744 23.2887 3.78107 23.1162 4.04008 22.8484C4.07444 22.8141 4.1088 22.7798 4.1442 22.7444C4.25639 22.6321 4.36751 22.5187 4.47865 22.4052C4.55671 22.3266 4.63483 22.2481 4.71302 22.1696C4.91772 21.9638 5.12153 21.7571 5.32516 21.5502C5.53347 21.3389 5.74262 21.1284 5.95169 20.9179C6.36114 20.5053 6.76963 20.0918 7.17755 19.6777C6.95239 19.4116 6.95239 19.4116 6.71314 19.1582C6.68302 19.1279 6.65289 19.0976 6.62185 19.0664C6.59041 19.0351 6.55897 19.0037 6.52657 18.9714C6.4935 18.9383 6.46043 18.9052 6.42636 18.8711C6.35712 18.8018 6.28781 18.7326 6.21845 18.6634C6.11177 18.557 6.00535 18.4503 5.89895 18.3436C5.83148 18.2762 5.76399 18.2088 5.69649 18.1413C5.66455 18.1093 5.63261 18.0773 5.59971 18.0443C5.29318 17.7393 5.27815 17.8583 4.99691 18.1364Z" fill="#033F2D"/>
<path d="M13.6963 4.36426C14.0195 4.42198 14.2238 4.76348 14.4318 5.00513C14.4731 5.05281 14.4731 5.05281 14.5152 5.10145C14.6609 5.2701 14.8036 5.44028 14.9414 5.61548C15.0765 5.55062 15.2008 5.47815 15.3259 5.39575C15.6786 5.17677 15.9943 5.13443 16.4062 5.17603C16.7006 5.24923 16.9695 5.34868 17.1875 5.56665C17.2117 5.61499 17.2117 5.61499 17.2363 5.66431C17.5238 5.35402 17.7999 5.04073 18.0612 4.70777C18.2083 4.53947 18.3314 4.40918 18.5547 4.36731C18.7566 4.40518 18.8257 4.47355 18.9453 4.63892C18.9699 4.84313 18.9633 4.94971 18.8591 5.12891C18.8191 5.17769 18.779 5.22647 18.7378 5.27673C18.7056 5.31671 18.7056 5.31671 18.6728 5.3575C18.5502 5.50823 18.4232 5.65498 18.2959 5.80164C18.2693 5.83222 18.2428 5.86281 18.2155 5.89432C18.1638 5.95361 18.1116 6.01254 18.059 6.07106C17.8924 6.2597 17.8924 6.2597 17.8223 6.49438C17.8636 6.62355 17.9078 6.7449 17.9596 6.86975C18.0735 7.14827 18.1555 7.41936 18.2129 7.71509C18.2634 7.7158 18.3139 7.71651 18.3659 7.71725C18.5538 7.72008 18.7417 7.72385 18.9296 7.7279C19.0108 7.72952 19.0921 7.73089 19.1733 7.732C19.2903 7.73365 19.4072 7.7362 19.5242 7.73893C19.5784 7.7394 19.5784 7.7394 19.6336 7.73988C19.8514 7.74603 19.9929 7.77617 20.166 7.9104C20.265 8.04639 20.265 8.04639 20.3583 8.20642C20.3918 8.26352 20.4253 8.32061 20.4588 8.3777C20.5072 8.4606 20.5072 8.4606 20.5566 8.54517C20.5864 8.59137 20.6162 8.63757 20.6468 8.68517C20.8975 9.07504 20.8975 9.07504 20.8496 9.32642C20.8087 9.44923 20.773 9.50476 20.6726 9.58582C20.4915 9.63825 20.3389 9.64361 20.166 9.57056C20.0106 9.407 19.9055 9.2081 19.8182 9.00122C19.7517 8.85856 19.6912 8.75499 19.5801 8.64282C19.36 8.58215 19.1531 8.59638 18.927 8.6123C18.8678 8.61451 18.8085 8.61671 18.7475 8.61898C18.6016 8.62472 18.4562 8.63274 18.3105 8.64282C18.3111 8.67251 18.3116 8.7022 18.3121 8.73279C18.3151 9.0286 18.2981 9.31645 18.2648 9.61023C18.2584 9.67023 18.2584 9.67023 18.2519 9.73144C18.2308 9.92453 18.2038 10.1127 18.1641 10.303C18.1983 10.3022 18.2325 10.3014 18.2678 10.3007C18.4234 10.2976 18.5791 10.2957 18.7347 10.2938C18.7886 10.2926 18.8424 10.2914 18.8979 10.2901C18.95 10.2896 19.0021 10.2892 19.0557 10.2887C19.1036 10.2879 19.1514 10.2871 19.2006 10.2863C19.3612 10.3061 19.4501 10.3546 19.5801 10.4495C19.6791 10.5855 19.6791 10.5855 19.7723 10.7455C19.8058 10.8026 19.8393 10.8598 19.8728 10.917C19.9051 10.9722 19.9374 11.0274 19.9707 11.0842C20.0005 11.1299 20.0302 11.1755 20.0609 11.2225C20.1802 11.4061 20.258 11.5413 20.2972 11.7587C20.2529 11.9644 20.1913 12.0379 20.0195 12.1584C19.8486 12.189 19.8486 12.189 19.6777 12.1584C19.5221 12.0312 19.4265 11.9149 19.3531 11.7302C19.2657 11.517 19.1799 11.3261 18.9941 11.1819C18.6402 11.0594 18.2268 11.0685 17.8711 11.1819C17.7182 11.3149 17.6676 11.4187 17.5936 11.6059C17.4372 11.9997 17.0791 12.3205 16.6992 12.5002C16.3198 12.6478 15.9192 12.6487 15.5384 12.5054C14.9963 12.2363 14.6549 11.7666 14.4043 11.2307C14.4043 11.1985 14.4043 11.1663 14.4043 11.1331C14.0176 11.1331 13.6309 11.1331 13.2324 11.1331C13.2002 11.2136 13.168 11.2942 13.1348 11.3772C13.0734 11.4956 13.0108 11.612 12.9455 11.7281C12.929 11.7588 12.9124 11.7895 12.8954 11.8211C12.8019 11.9873 12.7352 12.1002 12.5488 12.1584C12.3505 12.188 12.2802 12.1759 12.1155 12.0577C12.0137 11.9171 11.9834 11.8491 11.9889 11.678C12.0411 11.4368 12.1914 11.2303 12.3199 11.0232C12.3635 10.9505 12.3635 10.9505 12.408 10.8763C12.7091 10.3798 12.7091 10.3798 12.9394 10.303C13.0296 10.299 13.1199 10.2977 13.2101 10.2982C13.2625 10.2984 13.3149 10.2985 13.3689 10.2987C13.4235 10.2991 13.4782 10.2995 13.5345 10.2999C13.6174 10.3003 13.6174 10.3003 13.7019 10.3006C13.8384 10.3012 13.9748 10.302 14.1113 10.303C14.0962 10.2617 14.0811 10.2204 14.0655 10.1779C13.9559 9.82329 13.9587 9.47711 13.9618 9.10974C13.962 9.06005 13.9622 9.01035 13.9625 8.95916C13.963 8.83743 13.9638 8.71571 13.9648 8.59399C13.2406 8.50473 13.2406 8.50473 12.5848 8.72982C12.4133 8.94064 12.3 9.17755 12.204 9.43074C12.1582 9.52173 12.1582 9.52173 12.0117 9.61938C11.7987 9.647 11.7042 9.64347 11.5265 9.51868C11.428 9.3784 11.3978 9.30808 11.403 9.13894C11.455 8.89774 11.6054 8.69125 11.734 8.48413C11.763 8.43567 11.7921 8.3872 11.822 8.33727C12.1231 7.84071 12.1231 7.84071 12.3535 7.76392C12.4833 7.75977 12.6118 7.75825 12.7417 7.75915C12.7794 7.75922 12.8171 7.75929 12.856 7.75936C12.9764 7.75963 13.0968 7.76024 13.2172 7.76086C13.2988 7.76111 13.3805 7.76133 13.4622 7.76153C13.6623 7.76207 13.8624 7.76291 14.0625 7.76392C14.0657 7.72244 14.0657 7.72244 14.0689 7.68012C14.092 7.42707 14.1407 7.21205 14.2334 6.97351C14.3596 6.66884 14.3596 6.66884 14.4043 6.3479C14.3268 6.21694 14.2254 6.11252 14.1205 6.00305C14.0619 5.9385 14.0034 5.87384 13.945 5.80907C13.9155 5.77678 13.8861 5.74448 13.8557 5.7112C13.7277 5.56899 13.6052 5.42315 13.4857 5.27368C13.4263 5.20117 13.4263 5.20117 13.3657 5.1272C13.263 4.94911 13.2573 4.84148 13.2812 4.63892C13.4078 4.45865 13.4786 4.40313 13.6963 4.36426ZM15.3809 6.49438C14.7558 7.54433 14.603 8.87409 14.8773 10.0619C15.026 10.6467 15.2628 11.3637 15.802 11.7037C15.9831 11.7742 16.069 11.806 16.2598 11.7678C16.7326 11.5457 16.9826 11.1521 17.1753 10.6814C17.6257 9.40862 17.5904 7.99203 17.0227 6.76294C16.8462 6.43482 16.622 6.13211 16.2598 6.0061C15.883 5.93669 15.5857 6.21093 15.3809 6.49438Z" fill="#033F2D"/>
<path d="M13.5742 2.88104C13.7376 2.99928 13.8066 3.07022 13.8488 3.26862C13.8083 3.46731 13.7247 3.58176 13.5742 3.71112C13.4614 3.78337 13.3458 3.84902 13.2295 3.9154C11.9698 4.69332 10.9702 6.02375 10.6092 7.46531C10.5655 7.65776 10.5234 7.8502 10.4869 8.04414C10.4493 8.2333 10.4225 8.3682 10.3078 8.52565C10.1435 8.63478 10.0044 8.63218 9.81441 8.59394C9.67099 8.49832 9.62921 8.43655 9.58496 8.27064C9.56654 8.06376 9.60144 7.89424 9.64962 7.69367C9.6587 7.65492 9.66778 7.61618 9.67714 7.57626C10.1483 5.62388 11.3286 4.03509 13.0371 2.9787C13.2248 2.87297 13.3563 2.85428 13.5742 2.88104Z" fill="#033F2D"/>
<path d="M15.2344 2.34367C15.3436 2.43178 15.3728 2.49496 15.3978 2.63187C15.4117 2.82241 15.404 2.90243 15.2771 3.05168C15.1117 3.13798 15.0277 3.15557 14.8438 3.12492C14.6769 3.02854 14.6132 2.96938 14.5508 2.78617C14.5508 2.60609 14.585 2.5319 14.6973 2.3925C14.8705 2.2564 15.0292 2.29143 15.2344 2.34367Z" fill="#033F2D"/>
</g>
<defs>
<clipPath id="clip0_276_8611">
<rect width="25" height="25" fill="white"/>
</clipPath>
</defs>
</svg>
