<svg width="50" height="50" viewBox="0 0 50 50" fill="none" xmlns="http://www.w3.org/2000/svg">
<g clip-path="url(#clip0_276_9127)">
<path d="M20.3125 20.3125C22.3838 20.3102 24.3696 19.4864 25.8343 18.0218C27.2989 16.5571 28.1227 14.5713 28.125 12.5V7.8125H30.4688C30.676 7.8125 30.8747 7.73019 31.0212 7.58368C31.1677 7.43716 31.25 7.23845 31.25 7.03125C31.25 6.82405 31.1677 6.62534 31.0212 6.47882C30.8747 6.33231 30.676 6.25 30.4688 6.25H28.125V5.46875C28.1233 4.01886 27.5466 2.62882 26.5214 1.60359C25.4962 0.578356 24.1061 0.00165419 22.6562 0L17.9688 0C16.5189 0.00165419 15.1288 0.578356 14.1036 1.60359C13.0784 2.62882 12.5017 4.01886 12.5 5.46875V12.5C12.5023 14.5713 13.3261 16.5571 14.7907 18.0218C16.2554 19.4864 18.2412 20.3102 20.3125 20.3125ZM14.0625 7.8125H26.5625V10.7453L20.482 9.39375C20.3704 9.36875 20.2546 9.36875 20.143 9.39375L14.0625 10.7453V7.8125ZM14.0625 5.46875C14.0637 4.43313 14.4757 3.44028 15.208 2.70798C15.9403 1.97569 16.9331 1.56374 17.9688 1.5625H22.6562C23.6919 1.56374 24.6847 1.97569 25.417 2.70798C26.1493 3.44028 26.5613 4.43313 26.5625 5.46875V6.25H14.0625V5.46875ZM14.0625 12.3438L20.3125 10.9547L26.5625 12.3438V12.5C26.5625 14.1576 25.904 15.7473 24.7319 16.9194C23.5598 18.0915 21.9701 18.75 20.3125 18.75C18.6549 18.75 17.0652 18.0915 15.8931 16.9194C14.721 15.7473 14.0625 14.1576 14.0625 12.5V12.3438Z" fill="#C7F268"/>
<path d="M4.6875 43.75H2.34375C2.13655 43.75 1.93784 43.6677 1.79132 43.5212C1.64481 43.3747 1.5625 43.1759 1.5625 42.9688V19.5312C1.5625 19.324 1.64481 19.1253 1.79132 18.9788C1.93784 18.8323 2.13655 18.75 2.34375 18.75H7.03125C7.23845 18.75 7.43716 18.8323 7.58368 18.9788C7.73019 19.1253 7.8125 19.324 7.8125 19.5312C7.8125 19.7385 7.89481 19.9372 8.04132 20.0837C8.18784 20.2302 8.38655 20.3125 8.59375 20.3125C8.80095 20.3125 8.99966 20.2302 9.14618 20.0837C9.29269 19.9372 9.375 19.7385 9.375 19.5312C9.375 18.9096 9.12807 18.3135 8.68853 17.874C8.24899 17.4344 7.65285 17.1875 7.03125 17.1875H5.46875V15.625H6.25C6.8716 15.625 7.46774 15.3781 7.90728 14.9385C8.34682 14.499 8.59375 13.9029 8.59375 13.2812V11.7188C8.59375 11.0971 8.34682 10.501 7.90728 10.0615C7.46774 9.62193 6.8716 9.375 6.25 9.375H3.125C2.5034 9.375 1.90726 9.62193 1.46772 10.0615C1.02818 10.501 0.78125 11.0971 0.78125 11.7188V13.2812C0.78125 13.9029 1.02818 14.499 1.46772 14.9385C1.90726 15.3781 2.5034 15.625 3.125 15.625H3.90625V17.1875H2.34375C1.72215 17.1875 1.12601 17.4344 0.686468 17.874C0.24693 18.3135 0 18.9096 0 19.5312L0 42.9688C0 43.5904 0.24693 44.1865 0.686468 44.626C1.12601 45.0656 1.72215 45.3125 2.34375 45.3125H4.6875C4.8947 45.3125 5.09341 45.2302 5.23993 45.0837C5.38644 44.9372 5.46875 44.7384 5.46875 44.5312C5.46875 44.3241 5.38644 44.1253 5.23993 43.9788C5.09341 43.8323 4.8947 43.75 4.6875 43.75ZM2.34375 13.2812V11.7188C2.34375 11.5115 2.42606 11.3128 2.57257 11.1663C2.71909 11.0198 2.9178 10.9375 3.125 10.9375H6.25C6.4572 10.9375 6.65591 11.0198 6.80243 11.1663C6.94894 11.3128 7.03125 11.5115 7.03125 11.7188V13.2812C7.03125 13.4885 6.94894 13.6872 6.80243 13.8337C6.65591 13.9802 6.4572 14.0625 6.25 14.0625H3.125C2.9178 14.0625 2.71909 13.9802 2.57257 13.8337C2.42606 13.6872 2.34375 13.4885 2.34375 13.2812Z" fill="#C7F268"/>
<path d="M35.1008 25.4907C35.0627 25.3954 35.0062 25.3086 34.9345 25.2352C34.8628 25.1618 34.7774 25.1032 34.6831 25.0628C34.5888 25.0224 34.4874 25.0009 34.3848 24.9997C34.2823 24.9984 34.1804 25.0174 34.0852 25.0555L31.4844 26.0938C30.9704 26.2997 30.5059 26.6123 30.1218 27.0111C29.7377 27.4099 29.4427 27.8857 29.2563 28.4071L26.0156 37.5001H11.7188C11.5116 37.5001 11.3128 37.5824 11.1663 37.7289C11.0198 37.8754 10.9375 38.0741 10.9375 38.2813C10.9375 38.4885 11.0198 38.6872 11.1663 38.8338C11.3128 38.9803 11.5116 39.0626 11.7188 39.0626H22.6563V43.7501H8.59375C7.97215 43.7501 7.37601 43.5031 6.93647 43.0636C6.49693 42.6241 6.25 42.0279 6.25 41.4063V25.8774C6.25006 25.3548 6.42477 24.8472 6.74638 24.4353C7.06798 24.0234 7.51803 23.7308 8.025 23.604L14.375 22.0173L15.6836 25.2907C15.7217 25.386 15.7782 25.4728 15.8499 25.5462C15.9215 25.6196 16.007 25.6782 16.1013 25.7186C16.1956 25.759 16.2969 25.7805 16.3995 25.7817C16.5021 25.783 16.604 25.764 16.6992 25.7259L20.3125 24.279L23.9281 25.7259C24.0234 25.764 24.1252 25.783 24.2278 25.7817C24.3304 25.7805 24.4318 25.759 24.5261 25.7186C24.6204 25.6782 24.7058 25.6196 24.7775 25.5462C24.8491 25.4728 24.9056 25.386 24.9438 25.2907L26.2523 22.0173L32.5992 23.604C32.8003 23.6542 33.0131 23.6225 33.1908 23.5159C33.3686 23.4092 33.4966 23.2363 33.5469 23.0352C33.5971 22.8341 33.5654 22.6213 33.4588 22.4436C33.3521 22.2659 33.1792 22.1378 32.9781 22.0876L25.9703 20.336C25.7868 20.2911 25.5933 20.3137 25.4252 20.3998C25.257 20.4859 25.1255 20.6296 25.0547 20.8048L23.7836 23.9845L20.6031 22.7118C20.4163 22.6384 20.2087 22.6384 20.0219 22.7118L16.8414 23.9845L15.5695 20.8032C15.4995 20.6275 15.3681 20.4831 15.1998 20.3969C15.0314 20.3107 14.8374 20.2885 14.6539 20.3344L7.64688 22.0876C6.8012 22.298 6.05032 22.7855 5.51397 23.4724C4.97762 24.1593 4.68666 25.0059 4.6875 25.8774V41.4063C4.68874 42.4419 5.10069 43.4348 5.83299 44.1671C6.56528 44.8994 7.55813 45.3113 8.59375 45.3126H26.5625C27.5981 45.3113 28.591 44.8994 29.3233 44.1671C30.0556 43.4348 30.4675 42.4419 30.4688 41.4063V39.8438C30.4688 39.2222 30.2218 38.6261 29.7823 38.1865C29.3427 37.747 28.7466 37.5001 28.125 37.5001H27.6711L30.7305 28.9337C30.8422 28.6209 31.0192 28.3354 31.2497 28.0962C31.4801 27.857 31.7588 27.6695 32.0672 27.5462L34.6656 26.5071C34.761 26.469 34.8479 26.4125 34.9214 26.3407C34.9949 26.269 35.0535 26.1835 35.0939 26.0891C35.1343 25.9947 35.1557 25.8933 35.1569 25.7906C35.1581 25.6879 35.139 25.586 35.1008 25.4907ZM28.9063 39.8438V41.4063C28.9063 42.0279 28.6593 42.6241 28.2198 43.0636C27.7802 43.5031 27.1841 43.7501 26.5625 43.7501H24.2188V39.0626H28.125C28.3322 39.0626 28.5309 39.1449 28.6774 39.2914C28.8239 39.4379 28.9063 39.6366 28.9063 39.8438Z" fill="#C7F268"/>
<path d="M44.5312 28.125C44.324 28.125 44.1253 28.2073 43.9788 28.3538C43.8323 28.5003 43.75 28.6991 43.75 28.9063C43.7502 29.1353 43.7 29.3616 43.603 29.5691C43.506 29.7766 43.3646 29.9602 43.1887 30.107C43.0129 30.2537 42.8069 30.3601 42.5854 30.4184C42.364 30.4767 42.1323 30.4857 41.907 30.4445C41.6012 30.3864 41.3194 30.2392 41.097 30.0214C40.8745 29.8036 40.7215 29.5249 40.657 29.2203C40.5312 28.4818 40.1498 27.8111 39.5796 27.3253C39.0094 26.8394 38.2866 26.5695 37.5375 26.5625H37.5C37.3984 26.5629 37.2979 26.5835 37.2043 26.6232C37.1108 26.6628 37.026 26.7206 36.955 26.7934C36.8841 26.8661 36.8283 26.9522 36.7909 27.0467C36.7536 27.1412 36.7354 27.2422 36.7375 27.3438C36.7418 27.5529 36.8281 27.7519 36.9777 27.898C37.1273 28.0442 37.3284 28.1257 37.5375 28.125C37.9312 28.1385 38.3074 28.291 38.5995 28.5554C38.8915 28.8198 39.0804 29.1791 39.1328 29.5695C39.264 30.1756 39.5725 30.7288 40.0191 31.159C40.4657 31.5892 41.0301 31.8767 41.6406 31.9852C41.8184 32.0156 41.9985 32.031 42.1789 32.0313C42.8837 32.0325 43.5682 31.7955 44.1214 31.3587C44.6745 30.9219 45.0637 30.3109 45.2258 29.625C46.1264 29.4619 46.9412 28.9878 47.5279 28.2853C48.1147 27.5828 48.4361 26.6965 48.4361 25.7813C48.4361 24.866 48.1147 23.9797 47.5279 23.2772C46.9412 22.5747 46.1264 22.1006 45.2258 21.9375C45.0621 21.2435 44.666 20.6263 44.1032 20.1884C43.5404 19.7505 42.8448 19.5183 42.1318 19.5302C41.4189 19.5422 40.7314 19.7976 40.1836 20.2541C39.6358 20.7106 39.2606 21.3407 39.1203 22.0399C39.0589 22.4267 38.8624 22.7793 38.5658 23.0351C38.2693 23.2909 37.8917 23.4335 37.5 23.4375C37.3984 23.4379 37.2979 23.4585 37.2043 23.4982C37.1108 23.5378 37.026 23.5957 36.955 23.6684C36.8841 23.7411 36.8283 23.8272 36.7909 23.9217C36.7536 24.0162 36.7354 24.1172 36.7375 24.2188C36.7418 24.4279 36.8281 24.6269 36.9777 24.773C37.1273 24.9192 37.3284 25.0007 37.5375 25C38.2907 24.9916 39.0168 24.7181 39.5883 24.2274C40.1599 23.7368 40.5402 23.0604 40.6625 22.3172C40.7463 21.9418 40.9656 21.6104 41.2784 21.3866C41.5913 21.1628 41.9757 21.0623 42.3581 21.1043C42.7404 21.1463 43.0939 21.3278 43.3507 21.6142C43.6075 21.9006 43.7497 22.2716 43.75 22.6563C43.75 22.8635 43.8323 23.0622 43.9788 23.2087C44.1253 23.3552 44.324 23.4375 44.5312 23.4375C45.1528 23.4375 45.749 23.6844 46.1885 24.124C46.6281 24.5635 46.875 25.1597 46.875 25.7813C46.875 26.4029 46.6281 26.999 46.1885 27.4385C45.749 27.8781 45.1528 28.125 44.5312 28.125Z" fill="#C7F268"/>
<path d="M47.7117 36.6631C47.5652 36.5167 47.3665 36.4344 47.1594 36.4344C46.9522 36.4344 46.7535 36.5167 46.607 36.6631L43.8086 39.4616C42.0523 38.0475 39.9805 37.76 38.8727 38.8725C37.7648 39.985 38.0484 42.0522 39.4617 43.8084L37.2562 46.0155C36.4427 44.9687 35.9834 43.6902 35.9448 42.3651C35.9063 41.04 36.2904 39.7369 37.0417 38.6447C37.793 37.5524 38.8724 36.7275 40.1236 36.2895C41.3749 35.8516 42.7331 35.8231 44.0016 36.2084C44.1994 36.2668 44.4122 36.2446 44.5937 36.1467C44.7752 36.0488 44.9107 35.8831 44.9705 35.6857C45.0303 35.4883 45.0096 35.2753 44.913 35.0931C44.8164 34.9109 44.6516 34.7743 44.4547 34.7131C42.79 34.2066 41.0038 34.2707 39.3796 34.8952C37.7555 35.5197 36.3865 36.6689 35.49 38.1603C34.5936 39.6517 34.221 41.3997 34.4314 43.127C34.6418 44.8543 35.4232 46.4619 36.6516 47.6944C36.654 47.7014 36.658 47.7078 36.6633 47.7131C36.6686 47.7184 36.675 47.7224 36.682 47.7248C38.1598 49.1331 40.1302 49.9071 42.1714 49.881C44.2126 49.855 46.1626 49.031 47.604 47.5854C49.0454 46.1398 49.8637 44.1875 49.8838 42.1462C49.904 40.1049 49.1243 38.1368 47.7117 36.6631ZM44.3977 44.3975C43.9547 44.8381 42.7914 44.6389 41.6773 43.8022L43.8023 41.6772C44.6398 42.792 44.8391 43.9553 44.3977 44.3975ZM39.9773 39.9772C40.1681 39.8128 40.416 39.7302 40.6672 39.7475C41.4131 39.8086 42.1221 40.0974 42.6984 40.5748L40.5758 42.6975C39.7352 41.5826 39.5359 40.4194 39.9773 39.9772ZM42.1875 48.4373C40.8 48.4375 39.4524 47.9733 38.3594 47.1186L40.5617 44.9162C41.4392 45.6785 42.5463 46.1256 43.707 46.1866C44.0371 46.1983 44.3661 46.1439 44.6748 46.0263C44.9834 45.9088 45.2653 45.7305 45.5039 45.5022C46.6164 44.3889 46.3281 42.3225 44.9148 40.5662L47.1211 38.3592C47.8393 39.2822 48.2838 40.3883 48.4041 41.5515C48.5243 42.7148 48.3155 43.8885 47.8013 44.9388C47.2871 45.9892 46.4882 46.874 45.4957 47.4926C44.5032 48.1111 43.357 48.4384 42.1875 48.4373Z" fill="#C7F268"/>
</g>
<defs>
<clipPath id="clip0_276_9127">
<rect width="50" height="50" fill="white"/>
</clipPath>
</defs>
</svg>
