<svg width="25" height="25" viewBox="0 0 25 25" fill="none" xmlns="http://www.w3.org/2000/svg">
<path d="M5.85938 16.0156C5.39583 16.0156 4.94269 16.1531 4.55726 16.4106C4.17183 16.6682 3.87143 17.0342 3.69403 17.4625C3.51664 17.8907 3.47023 18.362 3.56066 18.8166C3.65109 19.2713 3.87432 19.6889 4.20209 20.0167C4.52987 20.3444 4.94749 20.5677 5.40213 20.6581C5.85678 20.7485 6.32803 20.7021 6.75629 20.5247C7.18455 20.3473 7.5506 20.0469 7.80813 19.6615C8.06567 19.2761 8.20313 18.8229 8.20313 18.3594C8.20251 17.738 7.95538 17.1422 7.51597 16.7028C7.07657 16.2634 6.48079 16.0162 5.85938 16.0156ZM5.85938 19.9219C5.55034 19.9219 5.24825 19.8302 4.9913 19.6585C4.73435 19.4869 4.53408 19.2428 4.41581 18.9573C4.29755 18.6718 4.26661 18.3576 4.3269 18.0545C4.38719 17.7515 4.536 17.473 4.75452 17.2545C4.97304 17.036 5.25145 16.8872 5.55455 16.8269C5.85764 16.7666 6.17181 16.7976 6.45732 16.9158C6.74283 17.0341 6.98686 17.2343 7.15855 17.4913C7.33024 17.7482 7.42188 18.0503 7.42188 18.3594C7.42188 18.7738 7.25726 19.1712 6.96423 19.4642C6.6712 19.7573 6.27378 19.9219 5.85938 19.9219Z" fill="#033F2D"/>
<path d="M19.9219 16.0156C19.4583 16.0156 19.0052 16.1531 18.6198 16.4106C18.2343 16.6682 17.9339 17.0342 17.7565 17.4625C17.5791 17.8907 17.5327 18.362 17.6232 18.8166C17.7136 19.2713 17.9368 19.6889 18.2646 20.0167C18.5924 20.3444 19.01 20.5677 19.4646 20.6581C19.9193 20.7485 20.3905 20.7021 20.8188 20.5247C21.2471 20.3473 21.6131 20.0469 21.8706 19.6615C22.1282 19.2761 22.2656 18.8229 22.2656 18.3594C22.265 17.738 22.0179 17.1422 21.5785 16.7028C21.1391 16.2634 20.5433 16.0162 19.9219 16.0156ZM19.9219 19.9219C19.6128 19.9219 19.3107 19.8302 19.0538 19.6585C18.7968 19.4869 18.5966 19.2428 18.4783 18.9573C18.3601 18.6718 18.3291 18.3576 18.3894 18.0545C18.4497 17.7515 18.5985 17.473 18.817 17.2545C19.0355 17.036 19.314 16.8872 19.617 16.8269C19.9201 16.7666 20.2343 16.7976 20.5198 16.9158C20.8053 17.0341 21.0494 17.2343 21.221 17.4913C21.3927 17.7482 21.4844 18.0503 21.4844 18.3594C21.4844 18.7738 21.3198 19.1712 21.0267 19.4642C20.7337 19.7573 20.3363 19.9219 19.9219 19.9219Z" fill="#033F2D"/>
<path d="M23.0469 11.3281H22.5602L21.2406 6.70938C21.1699 6.4649 21.0219 6.24993 20.8187 6.09668C20.6155 5.94343 20.3682 5.86017 20.1137 5.85938H15.625V5.46875C15.625 5.15795 15.5015 4.85988 15.2818 4.64011C15.062 4.42034 14.7639 4.29688 14.4531 4.29688H1.17188C0.861074 4.29687 0.563003 4.42034 0.343234 4.64011C0.123465 4.85988 0 5.15795 0 5.46875L0 17.9688C0 18.0724 0.041155 18.1717 0.114411 18.245C0.187668 18.3182 0.287025 18.3594 0.390625 18.3594H2.34375C2.44735 18.3594 2.54671 18.3182 2.61996 18.245C2.69322 18.1717 2.73438 18.0724 2.73438 17.9688C2.73438 17.8651 2.69322 17.7658 2.61996 17.6925C2.54671 17.6193 2.44735 17.5781 2.34375 17.5781H0.78125V5.46875C0.78125 5.36515 0.822405 5.26579 0.895661 5.19254C0.968918 5.11928 1.06827 5.07812 1.17188 5.07812H14.4531C14.5567 5.07812 14.6561 5.11928 14.7293 5.19254C14.8026 5.26579 14.8438 5.36515 14.8438 5.46875V8.20312C14.8438 8.30673 14.8849 8.40608 14.9582 8.47934C15.0314 8.5526 15.1308 8.59375 15.2344 8.59375C15.338 8.59375 15.4373 8.5526 15.5106 8.47934C15.5838 8.40608 15.625 8.30673 15.625 8.20312V6.64062H20.1137C20.1986 6.64069 20.2811 6.6684 20.3489 6.71957C20.4166 6.77074 20.4658 6.84258 20.4891 6.92422L20.6313 7.42188H17.5781C17.4745 7.42188 17.3752 7.46303 17.3019 7.53629C17.2287 7.60954 17.1875 7.7089 17.1875 7.8125V11.7188C17.1875 11.8224 17.2287 11.9217 17.3019 11.995C17.3752 12.0682 17.4745 12.1094 17.5781 12.1094H20.3125H23.0469C23.3577 12.1094 23.6557 12.2328 23.8755 12.4526C24.0953 12.6724 24.2188 12.9704 24.2188 13.2812V17.5781H23.4375C23.3339 17.5781 23.2345 17.6193 23.1613 17.6925C23.088 17.7658 23.0469 17.8651 23.0469 17.9688C23.0469 18.0724 23.088 18.1717 23.1613 18.245C23.2345 18.3182 23.3339 18.3594 23.4375 18.3594H24.6094C24.713 18.3594 24.8123 18.3182 24.8856 18.245C24.9588 18.1717 25 18.0724 25 17.9688V13.2812C24.9994 12.7634 24.7934 12.267 24.4273 11.9009C24.0611 11.5347 23.5647 11.3287 23.0469 11.3281ZM17.9688 8.20312H20.8547L21.7477 11.3281H17.9688V8.20312Z" fill="#033F2D"/>
<path d="M16.4062 17.5781H9.375C9.2714 17.5781 9.17204 17.6193 9.09879 17.6925C9.02553 17.7658 8.98438 17.8651 8.98438 17.9688C8.98438 18.0724 9.02553 18.1717 9.09879 18.245C9.17204 18.3182 9.2714 18.3594 9.375 18.3594H16.4062C16.5099 18.3594 16.6092 18.3182 16.6825 18.245C16.7557 18.1717 16.7969 18.0724 16.7969 17.9688C16.7969 17.8651 16.7557 17.7658 16.6825 17.6925C16.6092 17.6193 16.5099 17.5781 16.4062 17.5781Z" fill="#033F2D"/>
<path d="M7.81247 7.81271C8.11979 7.81279 8.42543 7.8582 8.7195 7.94747C8.76871 7.96277 8.82046 7.96818 8.87177 7.96339C8.92308 7.9586 8.97293 7.9437 9.01846 7.91956C9.06399 7.89542 9.10429 7.8625 9.13704 7.82272C9.16979 7.78293 9.19434 7.73706 9.20929 7.68774C9.22423 7.63842 9.22927 7.58663 9.22411 7.53536C9.21896 7.48409 9.2037 7.43434 9.17924 7.38899C9.15477 7.34363 9.12157 7.30357 9.08155 7.2711C9.04153 7.23864 8.99549 7.21441 8.94606 7.19982C8.1137 6.94656 7.2206 6.97861 6.40853 7.29087C5.59646 7.60313 4.91197 8.17772 4.46374 8.9234C4.0155 9.66909 3.8292 10.5431 3.93442 11.4068C4.03964 12.2704 4.43034 13.0742 5.0445 13.6904C5.04572 13.694 5.04772 13.6972 5.05036 13.6998C5.053 13.7025 5.05621 13.7045 5.05973 13.7057C5.79922 14.4063 6.78316 14.7904 7.80177 14.776C8.82037 14.7616 9.79305 14.3498 10.5124 13.6284C11.2317 12.9071 11.6408 11.9333 11.6524 10.9147C11.6641 9.89603 11.2773 8.91315 10.5746 8.1756C10.5013 8.10237 10.402 8.06123 10.2984 8.06123C10.1948 8.06123 10.0955 8.10237 10.0222 8.1756L8.62301 9.57482C7.74489 8.86779 6.71091 8.72404 6.15505 9.28029C5.59919 9.83654 5.74294 10.8701 6.44958 11.7483L5.34684 12.8518C4.98703 12.3906 4.76411 11.8375 4.70353 11.2557C4.64295 10.6739 4.74716 10.0868 5.00425 9.56139C5.26134 9.03597 5.66096 8.5934 6.15751 8.2842C6.65405 7.975 7.22752 7.81162 7.81247 7.81271ZM7.81247 14.0627C7.11872 14.0628 6.44491 13.8307 5.89841 13.4033L6.99958 12.3022C7.43832 12.6833 7.99186 12.9069 8.57223 12.9373C8.73726 12.9432 8.90179 12.916 9.0561 12.8572C9.21041 12.7984 9.35138 12.7093 9.47067 12.5951C10.0269 12.0385 9.88278 11.0053 9.17614 10.1272L10.2793 9.02365C10.6384 9.48513 10.8606 10.0382 10.9208 10.6198C10.9809 11.2014 10.8765 11.7883 10.6194 12.3135C10.3623 12.8386 9.96284 13.2811 9.46659 13.5903C8.97033 13.8996 8.3972 14.0633 7.81247 14.0627ZM8.61989 10.6826C9.03864 11.2401 9.13825 11.8217 8.91755 12.0428C8.69684 12.2639 8.11442 12.1635 7.55739 11.7451L8.61989 10.6826ZM6.70583 9.83263C6.8012 9.75043 6.92514 9.70916 7.05075 9.71779C7.42368 9.74835 7.77822 9.89275 8.06637 10.1315L7.00505 11.1928C6.5863 10.6354 6.48669 10.0537 6.70739 9.83263H6.70583Z" fill="#033F2D"/>
</svg>
