<svg width="25" height="25" viewBox="0 0 25 25" fill="none" xmlns="http://www.w3.org/2000/svg">
<g clip-path="url(#clip0_276_8337)">
<path d="M15.3127 3.89852C15.363 3.88826 15.4107 3.8682 15.4532 3.83948C15.4958 3.81076 15.5322 3.77395 15.5605 3.73115C15.5888 3.68835 15.6084 3.64039 15.6181 3.59002C15.6279 3.53965 15.6276 3.48785 15.6174 3.43758C15.6071 3.38731 15.5871 3.33955 15.5583 3.29703C15.5296 3.25451 15.4928 3.21807 15.45 3.18977C15.4072 3.16148 15.3593 3.14189 15.3089 3.13213C15.2585 3.12238 15.2067 3.12263 15.1564 3.13289C14.6097 3.24248 14.0916 3.46386 13.6345 3.78316C13.1774 4.10245 12.7912 4.51277 12.5002 4.98836C12.2092 4.51271 11.8231 4.10234 11.366 3.78304C10.9089 3.46373 10.3907 3.24239 9.84395 3.13289C9.74242 3.11217 9.63682 3.13263 9.55038 3.18977C9.46393 3.24691 9.40373 3.33605 9.38301 3.43758C9.36229 3.53911 9.38275 3.64471 9.43989 3.73115C9.49703 3.81759 9.58617 3.8778 9.6877 3.89852C10.1553 3.99121 10.5971 4.1849 10.982 4.46605C11.367 4.7472 11.686 5.10903 11.9166 5.52625C11.0549 5.68836 10.5471 6.22156 10.5471 7.03133C10.524 7.69229 10.7517 8.33752 11.1846 8.83758C10.9204 8.98018 10.6928 9.18201 10.5196 9.42727C10.3465 9.67254 10.2325 9.95456 10.1865 10.2513C9.00332 10.6298 4.00762 12.2977 2.81739 13.822C2.65605 14.0533 2.55932 14.3235 2.53714 14.6046C2.51496 14.8858 2.56815 15.1678 2.69121 15.4216C2.87051 15.7895 3.36856 16.4063 4.6877 16.4063C7.34043 16.4063 9.31348 13.6399 10.2686 11.9575C10.3018 12.0543 10.3423 12.1484 10.3897 12.2391C10.4131 12.2854 10.4456 12.3266 10.4852 12.3602C10.5248 12.3938 10.5706 12.4191 10.6201 12.4348C10.6696 12.4505 10.7218 12.4561 10.7734 12.4514C10.8251 12.4467 10.8754 12.4317 10.9212 12.4074C10.9671 12.383 11.0076 12.3498 11.0405 12.3096C11.0733 12.2694 11.0978 12.223 11.1126 12.1733C11.1273 12.1235 11.132 12.0713 11.1263 12.0197C11.1206 11.9681 11.1047 11.9181 11.0795 11.8727C10.988 11.7057 10.9393 11.5186 10.9377 11.3282V10.547C10.9377 10.2362 11.0612 9.93808 11.2809 9.71831C11.5007 9.49854 11.7988 9.37508 12.1096 9.37508H12.8908C13.0812 9.37675 13.2683 9.42546 13.4354 9.51688C13.5243 9.55627 13.6248 9.56104 13.7171 9.53024C13.8094 9.49944 13.8869 9.4353 13.9344 9.35037C13.9819 9.26543 13.996 9.16583 13.9739 9.07105C13.9519 8.97628 13.8952 8.89316 13.815 8.83797C14.2483 8.33797 14.4763 7.69254 14.4533 7.03133C14.4533 6.22156 13.9455 5.68836 13.0822 5.52625C13.3131 5.10889 13.6323 4.74698 14.0175 4.46582C14.4028 4.18467 14.8448 3.99105 15.3127 3.89852ZM4.6877 15.6251C4.01504 15.6251 3.56739 15.4364 3.39356 15.0782C3.33533 14.9556 3.30842 14.8205 3.31524 14.685C3.32205 14.5495 3.36239 14.4178 3.43262 14.3016C4.26778 13.2321 7.75098 11.8903 9.78614 11.2032C8.99903 12.6739 7.11504 15.6251 4.6877 15.6251ZM13.6721 7.03133C13.6721 7.29227 13.6154 8.59383 12.5002 8.59383C11.385 8.59383 11.3283 7.29227 11.3283 7.03133C11.3283 6.83602 11.3283 6.25008 12.5002 6.25008C13.6721 6.25008 13.6721 6.83797 13.6721 7.03133Z" fill="#033F2D"/>
<path d="M17.302 4.41141L16.5207 5.19266C16.4474 5.2659 16.4063 5.36524 16.4062 5.46883V6.25008C16.4062 6.35368 16.4474 6.45304 16.5207 6.5263C16.5939 6.59955 16.6933 6.64071 16.7969 6.64071C16.9005 6.64071 16.9998 6.59955 17.0731 6.5263C17.1463 6.45304 17.1875 6.35368 17.1875 6.25008V5.63055L17.8543 4.96375C17.9255 4.89008 17.9648 4.79141 17.9639 4.68899C17.963 4.58657 17.922 4.48859 17.8495 4.41617C17.7771 4.34374 17.6791 4.30266 17.5767 4.30177C17.4743 4.30088 17.3756 4.34026 17.302 4.41141Z" fill="#033F2D"/>
<path d="M8.47932 5.19266L7.69807 4.41141C7.6244 4.34026 7.52572 4.30088 7.4233 4.30177C7.32088 4.30266 7.22291 4.34374 7.15048 4.41617C7.07806 4.48859 7.03698 4.58657 7.03609 4.68899C7.0352 4.79141 7.07457 4.89008 7.14572 4.96375L7.81252 5.63055V7.03133C7.81254 7.13492 7.85371 7.23427 7.92697 7.3075L9.48947 8.87001C9.56315 8.94116 9.66182 8.98053 9.76424 8.97964C9.86666 8.97875 9.96464 8.93767 10.0371 8.86525C10.1095 8.79282 10.1506 8.69485 10.1515 8.59243C10.1523 8.49001 10.113 8.39133 10.0418 8.31766L8.59377 6.86961V5.46883C8.59375 5.36524 8.55258 5.2659 8.47932 5.19266Z" fill="#033F2D"/>
<path d="M17.1875 19.3696V16.7969C17.1874 16.7198 17.1645 16.6444 17.1219 16.5801L16.3406 15.4083C16.2831 15.3221 16.1937 15.2622 16.0921 15.2419C15.9905 15.2216 15.885 15.2426 15.7988 15.3001C15.7126 15.3575 15.6528 15.4469 15.6325 15.5485C15.6122 15.6501 15.6331 15.7557 15.6906 15.8418L16.4062 16.9141V19.5313C16.4063 19.6349 16.4474 19.7342 16.5207 19.8075L18.0832 21.37C18.1569 21.4411 18.2555 21.4805 18.358 21.4796C18.4604 21.4787 18.5584 21.4376 18.6308 21.3652C18.7032 21.2928 18.7443 21.1948 18.7452 21.0924C18.7461 20.99 18.7067 20.8913 18.6355 20.8176L17.1875 19.3696Z" fill="#033F2D"/>
<path d="M14.0213 12.7208C13.9713 12.7323 13.924 12.7535 13.8821 12.7833C13.8403 12.8131 13.8047 12.8508 13.7774 12.8943C13.7502 12.9379 13.7318 12.9864 13.7233 13.037C13.7148 13.0877 13.7164 13.1395 13.728 13.1896C13.9576 14.2462 14.0698 15.325 14.0627 16.4064C14.0683 18.0379 13.5171 19.6226 12.5002 20.8985C11.534 19.6855 10.9887 18.191 10.9467 16.6407C10.9451 16.5894 10.9334 16.539 10.9123 16.4922C10.8912 16.4454 10.861 16.4032 10.8236 16.3681C10.7862 16.333 10.7422 16.3056 10.6942 16.2874C10.6462 16.2693 10.5951 16.2608 10.5438 16.2624C10.4925 16.264 10.442 16.2757 10.3952 16.2969C10.3485 16.318 10.3063 16.3481 10.2712 16.3855C10.2361 16.4229 10.2086 16.4669 10.1905 16.5149C10.1724 16.5629 10.1639 16.614 10.1655 16.6653C10.1989 18.563 10.9349 20.3808 12.2311 21.7673C12.3036 21.8359 12.3997 21.8741 12.4995 21.8741C12.5993 21.8741 12.6953 21.8359 12.7678 21.7673C14.1288 20.3171 14.8732 18.3949 14.844 16.4064C14.8512 15.266 14.7323 14.1284 14.4893 13.0142C14.4661 12.9132 14.4038 12.8256 14.3161 12.7706C14.2283 12.7156 14.1223 12.6977 14.0213 12.7208Z" fill="#033F2D"/>
<path d="M22.1826 13.8224C21.3135 12.7091 18.4717 11.529 16.2377 10.7364C16.1401 10.7017 16.0326 10.7072 15.939 10.7517C15.8455 10.7962 15.7734 10.8761 15.7387 10.9737C15.704 11.0714 15.7095 11.1788 15.754 11.2724C15.7985 11.366 15.8783 11.4381 15.976 11.4728C18.9498 12.5306 20.9877 13.563 21.567 14.3052C21.6375 14.4211 21.678 14.5528 21.6848 14.6883C21.6916 14.8238 21.6646 14.9589 21.6061 15.0814C21.4326 15.4364 20.985 15.6251 20.3123 15.6251C18.1389 15.6251 16.394 13.2282 15.5467 11.7993C15.5205 11.7552 15.4859 11.7166 15.4449 11.6859C15.4038 11.6551 15.3571 11.6327 15.3074 11.62C15.2577 11.6073 15.2059 11.6045 15.1551 11.6118C15.1043 11.619 15.0555 11.6362 15.0113 11.6624C14.9672 11.6886 14.9286 11.7232 14.8979 11.7642C14.8671 11.8053 14.8447 11.852 14.832 11.9017C14.8193 11.9514 14.8165 12.0032 14.8238 12.054C14.8311 12.1048 14.8483 12.1536 14.8744 12.1978C16.0127 14.1177 17.8795 16.4064 20.3123 16.4064C21.6315 16.4064 22.1295 15.7896 22.3088 15.4216C22.4319 15.1679 22.4851 14.886 22.4629 14.6048C22.4407 14.3237 22.344 14.0536 22.1826 13.8224Z" fill="#033F2D"/>
<path d="M8.59355 17.9688C8.48995 17.9688 8.39059 18.0099 8.31733 18.0832C8.24408 18.1564 8.20292 18.2558 8.20292 18.3594V19.3695L6.75487 20.8176C6.71756 20.8536 6.68781 20.8967 6.66733 20.9444C6.64686 20.992 6.63609 21.0433 6.63563 21.0952C6.63518 21.147 6.64507 21.1985 6.66471 21.2465C6.68435 21.2945 6.71335 21.3381 6.75003 21.3748C6.78671 21.4114 6.83032 21.4404 6.87833 21.4601C6.92634 21.4797 6.97777 21.4896 7.02964 21.4892C7.08151 21.4887 7.13276 21.4779 7.18042 21.4575C7.22808 21.437 7.27118 21.4072 7.30722 21.3699L8.86972 19.8074C8.94298 19.7342 8.98415 19.6348 8.98417 19.5312V18.3594C8.98417 18.2558 8.94302 18.1564 8.86976 18.0832C8.7965 18.0099 8.69715 17.9688 8.59355 17.9688Z" fill="#033F2D"/>
<path d="M21.3386 3.66138C21.2654 3.58815 21.166 3.54701 21.0624 3.54701C20.9589 3.54701 20.8595 3.58815 20.7863 3.66138L3.94798 20.4997C1.94273 18.3573 0.814583 15.5404 0.786716 12.6062C0.758849 9.67194 1.83329 6.83411 3.79749 4.65409C5.76169 2.47407 8.47258 1.11067 11.3938 0.833603C14.3151 0.556536 17.234 1.38599 19.573 3.15786C19.6138 3.18966 19.6605 3.21305 19.7104 3.22665C19.7603 3.24026 19.8124 3.24382 19.8637 3.23713C19.915 3.23044 19.9644 3.21363 20.0092 3.18768C20.0539 3.16172 20.093 3.12714 20.1243 3.08594C20.1556 3.04474 20.1783 2.99774 20.1913 2.94767C20.2043 2.89759 20.2072 2.84544 20.1998 2.79425C20.1924 2.74305 20.175 2.69382 20.1485 2.64942C20.1219 2.60502 20.0869 2.56633 20.0452 2.5356C17.8776 0.883402 15.2255 -0.00780477 12.4999 5.14993e-05C10.0304 -0.00128366 7.61586 0.729294 5.56132 2.0995C3.50678 3.46971 1.9044 5.41807 0.956601 7.69848C0.00879773 9.97889 -0.241912 12.4891 0.236141 14.9119C0.714194 17.3347 1.89956 19.5615 3.64251 21.311C3.64994 21.32 3.65306 21.3305 3.66126 21.3387C3.66947 21.3469 3.68001 21.3501 3.689 21.3575C6.03955 23.6786 9.21353 24.9745 12.5169 24.962C15.8203 24.9494 18.9844 23.6294 21.3172 21.2905C23.6501 18.9516 24.9619 15.7842 24.9659 12.4807C24.9699 9.17732 23.6658 6.0067 21.3386 3.66216V3.66138ZM12.4999 24.2188C9.52742 24.2204 6.66629 23.0878 4.50033 21.052L21.0546 4.49654C22.6158 6.16422 23.6554 8.25196 24.0455 10.5028C24.4355 12.7537 24.159 15.0695 23.2499 17.1652C22.3409 19.261 20.839 21.0453 18.929 22.2985C17.019 23.5517 14.7843 24.2192 12.4999 24.2188Z" fill="#033F2D"/>
</g>
<defs>
<clipPath id="clip0_276_8337">
<rect width="25" height="25" fill="white"/>
</clipPath>
</defs>
</svg>
