<svg width="50" height="50" viewBox="0 0 50 50" fill="none" xmlns="http://www.w3.org/2000/svg">
<g clip-path="url(#clip0_276_9171)">
<path d="M37.9024 26.674C37.7248 26.5674 37.5122 26.5356 37.3111 26.5857C37.1101 26.6358 36.9373 26.7637 36.8305 26.9412L34.4868 30.8475C34.4317 30.9355 34.3948 31.0335 34.378 31.1359C34.3613 31.2384 34.3651 31.3431 34.3893 31.444C34.4135 31.545 34.4576 31.64 34.5189 31.7238C34.5803 31.8075 34.6577 31.8781 34.7466 31.9316C34.8356 31.985 34.9343 32.0202 35.037 32.0351C35.1397 32.05 35.2444 32.0442 35.3448 32.0182C35.4453 31.9922 35.5396 31.9465 35.6222 31.8836C35.7048 31.8208 35.774 31.7421 35.8258 31.6522L38.1696 27.7459C38.2763 27.5683 38.308 27.3557 38.2579 27.1547C38.2078 26.9537 38.08 26.7808 37.9024 26.674Z" fill="#C7F268"/>
<path d="M35.7087 25.2287C35.5622 25.0823 35.3635 25 35.1563 25C34.9492 25 34.7505 25.0823 34.604 25.2287L30.6977 29.135C30.6231 29.2071 30.5636 29.2933 30.5227 29.3886C30.4817 29.4839 30.4602 29.5864 30.4593 29.6901C30.4584 29.7939 30.4781 29.8968 30.5174 29.9928C30.5567 30.0888 30.6147 30.176 30.6881 30.2494C30.7614 30.3227 30.8486 30.3807 30.9446 30.42C31.0407 30.4593 31.1435 30.4791 31.2473 30.4782C31.351 30.4773 31.4535 30.4557 31.5488 30.4148C31.6441 30.3738 31.7304 30.3143 31.8024 30.2397L35.7087 26.3334C35.8551 26.1869 35.9374 25.9882 35.9374 25.7811C35.9374 25.5739 35.8551 25.3752 35.7087 25.2287Z" fill="#C7F268"/>
<path d="M42.6775 7.32276C42.531 7.1763 42.3323 7.09402 42.1251 7.09402C41.918 7.09402 41.7193 7.1763 41.5728 7.32276L7.89621 40.9993C3.88571 36.7147 1.62941 31.0809 1.57368 25.2124C1.51794 19.3439 3.66683 13.6682 7.59523 9.30818C11.5236 4.94815 16.9454 2.22134 22.7879 1.6672C28.6305 1.11307 34.4682 2.77197 39.1462 6.31573C39.2276 6.38111 39.3213 6.4295 39.4218 6.45806C39.5222 6.48661 39.6274 6.49473 39.731 6.48195C39.8346 6.46917 39.9347 6.43574 40.0252 6.38364C40.1157 6.33155 40.1948 6.26184 40.2579 6.17863C40.321 6.09543 40.3668 6.00042 40.3925 5.89922C40.4183 5.79802 40.4235 5.69269 40.4078 5.58945C40.3921 5.48621 40.3559 5.38715 40.3014 5.29814C40.2468 5.20912 40.1749 5.13195 40.09 5.07119C35.7548 1.76697 30.4509 -0.0154398 25.0001 0.000100766C20.061 -0.00256955 15.232 1.45859 11.1229 4.199C7.0138 6.93941 3.80905 10.8361 1.91345 15.397C0.0178396 19.9578 -0.48358 24.9781 0.472526 29.8237C1.42863 34.6694 3.79937 39.123 7.28527 42.622C7.30012 42.6399 7.30637 42.661 7.32277 42.6774C7.33918 42.6939 7.36027 42.7001 7.37824 42.7149C12.0794 47.3571 18.4273 49.9491 25.0341 49.924C31.6409 49.8989 37.969 47.2588 42.6347 42.581C47.3004 37.9032 49.9241 31.5683 49.9321 24.9615C49.9401 18.3546 47.3318 12.0134 42.6775 7.32432V7.32276ZM25.0001 48.4376C19.0551 48.4409 13.3328 46.1756 9.0009 42.104L42.1095 8.99307C45.2319 12.3284 47.3111 16.5039 48.0912 21.0056C48.8713 25.5074 48.3182 30.139 46.5001 34.3305C44.682 38.522 41.6782 42.0905 37.8583 44.5969C34.0383 47.1034 29.5689 48.4384 25.0001 48.4376Z" fill="#C7F268"/>
<path d="M34.2531 19.644C34.1515 19.6296 34.048 19.6353 33.9486 19.6608C33.8492 19.6863 33.7558 19.7312 33.6737 19.7928C33.5916 19.8544 33.5224 19.9316 33.4702 20.02C33.4179 20.1083 33.3836 20.2061 33.3691 20.3077C33.3547 20.4093 33.3604 20.5128 33.3859 20.6122C33.4114 20.7116 33.4563 20.8051 33.5179 20.8871C33.5795 20.9692 33.6567 21.0384 33.7451 21.0906C33.8334 21.1429 33.9312 21.1772 34.0328 21.1917C35.9424 21.472 37.7028 22.3843 39.033 23.7828C40.3631 25.1813 41.186 26.9853 41.3703 28.9065H39.8437C39.6365 28.9065 39.4378 28.9888 39.2913 29.1354C39.1448 29.2819 39.0625 29.4806 39.0625 29.6878C39.0625 29.895 39.1448 30.0937 39.2913 30.2402C39.4378 30.3867 39.6365 30.469 39.8437 30.469H42.1875C42.3947 30.469 42.5934 30.3867 42.7399 30.2402C42.8864 30.0937 42.9687 29.895 42.9687 29.6878C42.9583 27.2477 42.0731 24.8923 40.4738 23.0494C38.8746 21.2064 36.6674 19.9981 34.2531 19.644Z" fill="#C7F268"/>
<path d="M28.125 28.9062H24.7328C24.5256 28.9062 24.3269 28.9886 24.1804 29.1351C24.0338 29.2816 23.9515 29.4803 23.9515 29.6875C23.9515 29.8947 24.0338 30.0934 24.1804 30.2399C24.3269 30.3864 24.5256 30.4688 24.7328 30.4688H28.125C28.3322 30.4688 28.5309 30.3864 28.6774 30.2399C28.8239 30.0934 28.9062 29.8947 28.9062 29.6875C28.9062 29.4803 28.8239 29.2816 28.6774 29.1351C28.5309 28.9886 28.3322 28.9062 28.125 28.9062Z" fill="#C7F268"/>
<path d="M22.6562 18.7499C22.6468 17.7368 22.9217 16.7414 23.4497 15.8767C23.9777 15.0121 24.7377 14.3128 25.6432 13.8584C26.5487 13.4041 27.5635 13.2128 28.5723 13.3062C29.5811 13.3997 30.5434 13.7743 31.35 14.3874C31.4321 14.4489 31.5255 14.4937 31.6249 14.5192C31.7242 14.5446 31.8277 14.5503 31.9292 14.5358C32.0308 14.5212 32.1285 14.4869 32.2168 14.4346C32.3051 14.3823 32.3822 14.3132 32.4438 14.2311C32.5053 14.149 32.5501 14.0556 32.5756 13.9562C32.601 13.8569 32.6067 13.7534 32.5921 13.6519C32.5776 13.5503 32.5433 13.4526 32.491 13.3643C32.4387 13.276 32.3696 13.1989 32.2875 13.1374C31.2488 12.3502 30.0104 11.8697 28.7126 11.7501C27.4148 11.6306 26.1095 11.8768 24.9444 12.461C23.7794 13.0451 22.8012 13.9438 22.1207 15.0553C21.4401 16.1668 21.0844 17.4466 21.0938 18.7499C21.0953 18.9981 21.1099 19.2461 21.1375 19.4928C21.1375 19.5061 21.1375 19.5178 21.1375 19.5311H14.0625C12.1983 19.5332 10.4111 20.2746 9.09294 21.5928C7.77477 22.911 7.03332 24.6982 7.03125 26.5624V32.8124C7.03307 33.5673 7.19077 34.3136 7.49445 35.0048C7.79814 35.6959 8.24127 36.3169 8.79609 36.8288C8.94877 36.9669 9.14982 37.0392 9.35552 37.0299C9.56122 37.0207 9.75494 36.9306 9.89455 36.7792C10.0342 36.6279 10.1084 36.4275 10.1011 36.2217C10.0937 36.0159 10.0055 35.8214 9.85547 35.6803C9.45663 35.3168 9.13831 34.8739 8.92101 34.3799C8.70371 33.886 8.59223 33.352 8.59375 32.8124V30.4686H14.8438C15.6726 30.4686 16.4674 30.1394 17.0535 29.5533C17.6395 28.9673 17.9688 28.1724 17.9688 27.3436C17.9688 26.5148 17.6395 25.7199 17.0535 25.1339C16.4674 24.5478 15.6726 24.2186 14.8438 24.2186H12.5C12.2928 24.2186 12.0941 24.3009 11.9476 24.4474C11.8011 24.5939 11.7188 24.7927 11.7188 24.9999C11.7188 25.2071 11.8011 25.4058 11.9476 25.5523C12.0941 25.6988 12.2928 25.7811 12.5 25.7811H14.8438C15.2582 25.7811 15.6556 25.9457 15.9486 26.2388C16.2416 26.5318 16.4062 26.9292 16.4062 27.3436C16.4062 27.758 16.2416 28.1554 15.9486 28.4485C15.6556 28.7415 15.2582 28.9061 14.8438 28.9061H8.59375V26.5624C8.5954 25.1125 9.17211 23.7224 10.1973 22.6972C11.2226 21.672 12.6126 21.0953 14.0625 21.0936H21.5016C21.7357 21.7527 22.0667 22.3733 22.4836 22.935C22.6072 23.1014 22.7918 23.2119 22.9969 23.2421C23.2019 23.2724 23.4106 23.2199 23.577 23.0963C23.7433 22.9727 23.8538 22.7881 23.8841 22.5831C23.9143 22.378 23.8619 22.1694 23.7383 22.003C23.2755 21.3757 22.9528 20.6564 22.7922 19.8936C22.7641 19.7631 22.7352 19.6327 22.7141 19.503C22.6774 19.2536 22.6581 19.0019 22.6562 18.7499Z" fill="#C7F268"/>
<path d="M23.4375 36.7188H16.9203C16.7131 36.7188 16.5144 36.8011 16.3679 36.9476C16.2213 37.0941 16.139 37.2928 16.139 37.5C16.139 37.7072 16.2213 37.9059 16.3679 38.0524C16.5144 38.1989 16.7131 38.2812 16.9203 38.2812H23.4375C23.6447 38.2812 23.8434 38.1989 23.9899 38.0524C24.1364 37.9059 24.2187 37.7072 24.2187 37.5C24.2187 37.2928 24.1364 37.0941 23.9899 36.9476C23.8434 36.8011 23.6447 36.7188 23.4375 36.7188Z" fill="#C7F268"/>
</g>
<defs>
<clipPath id="clip0_276_9171">
<rect width="50" height="50" fill="white"/>
</clipPath>
</defs>
</svg>
