<svg width="25" height="25" viewBox="0 0 25 25" fill="none" xmlns="http://www.w3.org/2000/svg">
<g clip-path="url(#clip0_406_19036)">
<path d="M15.3127 3.89846C15.363 3.8882 15.4107 3.86814 15.4532 3.83942C15.4958 3.8107 15.5322 3.77389 15.5605 3.73109C15.5888 3.68829 15.6084 3.64033 15.6181 3.58996C15.6279 3.53959 15.6276 3.48779 15.6174 3.43752C15.6071 3.38725 15.5871 3.33949 15.5583 3.29697C15.5296 3.25445 15.4928 3.218 15.45 3.18971C15.4072 3.16142 15.3593 3.14183 15.3089 3.13207C15.2585 3.12231 15.2067 3.12257 15.1564 3.13283C14.6097 3.24241 14.0916 3.4638 13.6345 3.78309C13.1774 4.10239 12.7912 4.51271 12.5002 4.9883C12.2092 4.51264 11.8231 4.10228 11.366 3.78298C10.9089 3.46367 10.3907 3.24233 9.84395 3.13283C9.74242 3.11211 9.63682 3.13257 9.55038 3.18971C9.46393 3.24685 9.40373 3.33599 9.38301 3.43752C9.36229 3.53905 9.38275 3.64465 9.43989 3.73109C9.49703 3.81753 9.58617 3.87774 9.6877 3.89846C10.1553 3.99115 10.5971 4.18484 10.982 4.46599C11.367 4.74714 11.686 5.10897 11.9166 5.52619C11.0549 5.6883 10.5471 6.2215 10.5471 7.03127C10.524 7.69223 10.7517 8.33746 11.1846 8.83752C10.9204 8.98012 10.6928 9.18195 10.5196 9.42721C10.3465 9.67247 10.2325 9.9545 10.1865 10.2512C9.00332 10.6297 4.00762 12.2977 2.81739 13.8219C2.65605 14.0532 2.55932 14.3234 2.53714 14.6046C2.51496 14.8857 2.56815 15.1677 2.69121 15.4215C2.87051 15.7895 3.36856 16.4063 4.6877 16.4063C7.34043 16.4063 9.31348 13.6399 10.2686 11.9574C10.3018 12.0542 10.3423 12.1483 10.3897 12.2391C10.4131 12.2854 10.4456 12.3265 10.4852 12.3601C10.5248 12.3937 10.5706 12.4191 10.6201 12.4348C10.6696 12.4504 10.7218 12.4561 10.7734 12.4513C10.8251 12.4466 10.8754 12.4317 10.9212 12.4073C10.9671 12.383 11.0076 12.3497 11.0405 12.3095C11.0733 12.2693 11.0978 12.223 11.1126 12.1732C11.1273 12.1234 11.132 12.0712 11.1263 12.0196C11.1206 11.968 11.1047 11.9181 11.0795 11.8727C10.988 11.7056 10.9393 11.5186 10.9377 11.3281V10.5469C10.9377 10.2361 11.0612 9.93802 11.2809 9.71825C11.5007 9.49848 11.7988 9.37502 12.1096 9.37502H12.8908C13.0812 9.37669 13.2683 9.4254 13.4354 9.51682C13.5243 9.55621 13.6248 9.56098 13.7171 9.53018C13.8094 9.49938 13.8869 9.43524 13.9344 9.35031C13.9819 9.26537 13.996 9.16577 13.9739 9.07099C13.9519 8.97622 13.8952 8.8931 13.815 8.83791C14.2483 8.33791 14.4763 7.69248 14.4533 7.03127C14.4533 6.2215 13.9455 5.6883 13.0822 5.52619C13.3131 5.10883 13.6323 4.74692 14.0175 4.46576C14.4028 4.18461 14.8448 3.99099 15.3127 3.89846ZM4.6877 15.625C4.01504 15.625 3.56739 15.4363 3.39356 15.0781C3.33533 14.9556 3.30842 14.8205 3.31524 14.6849C3.32205 14.5494 3.36239 14.4177 3.43262 14.3016C4.26778 13.232 7.75098 11.8903 9.78614 11.2031C8.99903 12.6738 7.11504 15.625 4.6877 15.625ZM13.6721 7.03127C13.6721 7.29221 13.6154 8.59377 12.5002 8.59377C11.385 8.59377 11.3283 7.29221 11.3283 7.03127C11.3283 6.83596 11.3283 6.25002 12.5002 6.25002C13.6721 6.25002 13.6721 6.83791 13.6721 7.03127Z" fill="#033F2D"/>
<path d="M17.302 4.41135L16.5207 5.1926C16.4474 5.26584 16.4063 5.36518 16.4062 5.46877V6.25002C16.4062 6.35362 16.4474 6.45298 16.5207 6.52624C16.5939 6.59949 16.6933 6.64065 16.7969 6.64065C16.9005 6.64065 16.9998 6.59949 17.0731 6.52624C17.1463 6.45298 17.1875 6.35362 17.1875 6.25002V5.63049L17.8543 4.96369C17.9255 4.89002 17.9648 4.79135 17.9639 4.68893C17.963 4.58651 17.922 4.48853 17.8495 4.41611C17.7771 4.34368 17.6791 4.3026 17.5767 4.30171C17.4743 4.30082 17.3756 4.34019 17.302 4.41135Z" fill="#033F2D"/>
<path d="M8.47938 5.1926L7.69813 4.41135C7.62446 4.34019 7.52578 4.30082 7.42336 4.30171C7.32094 4.3026 7.22297 4.34368 7.15054 4.41611C7.07812 4.48853 7.03704 4.58651 7.03615 4.68893C7.03526 4.79135 7.07463 4.89002 7.14579 4.96369L7.81258 5.63049V7.03127C7.81261 7.13486 7.85377 7.2342 7.92704 7.30744L9.48954 8.86994C9.56321 8.9411 9.66188 8.98047 9.7643 8.97958C9.86672 8.97869 9.9647 8.93761 10.0371 8.86519C10.1095 8.79276 10.1506 8.69479 10.1515 8.59237C10.1524 8.48995 10.113 8.39127 10.0419 8.3176L8.59383 6.86955V5.46877C8.59381 5.36518 8.55264 5.26584 8.47938 5.1926Z" fill="#033F2D"/>
<path d="M17.1876 19.3696V16.7969C17.1874 16.7198 17.1646 16.6444 17.1219 16.5801L16.3407 15.4083C16.2832 15.3221 16.1938 15.2622 16.0922 15.2419C15.9906 15.2216 15.8851 15.2426 15.7989 15.3001C15.7127 15.3575 15.6529 15.4469 15.6326 15.5485C15.6123 15.6501 15.6332 15.7557 15.6907 15.8418L16.4063 16.9141V19.5313C16.4063 19.6349 16.4475 19.7342 16.5208 19.8075L18.0833 21.37C18.1569 21.4411 18.2556 21.4805 18.358 21.4796C18.4604 21.4787 18.5584 21.4376 18.6308 21.3652C18.7033 21.2928 18.7443 21.1948 18.7452 21.0924C18.7461 20.99 18.7068 20.8913 18.6356 20.8176L17.1876 19.3696Z" fill="#033F2D"/>
<path d="M14.0216 12.7207C13.9715 12.7322 13.9242 12.7534 13.8823 12.7832C13.8405 12.8129 13.8049 12.8507 13.7777 12.8942C13.7504 12.9378 13.732 12.9862 13.7236 13.0369C13.7151 13.0876 13.7167 13.1394 13.7282 13.1894C13.9578 14.2461 14.0701 15.3249 14.063 16.4062C14.0685 18.0378 13.5173 19.6225 12.5005 20.8984C11.5343 19.6854 10.989 18.1909 10.947 16.6406C10.9454 16.5893 10.9337 16.5388 10.9125 16.4921C10.8914 16.4453 10.8613 16.4031 10.8239 16.368C10.7864 16.3329 10.7425 16.3054 10.6945 16.2873C10.6465 16.2692 10.5953 16.2607 10.544 16.2623C10.4927 16.2639 10.4423 16.2756 10.3955 16.2967C10.3487 16.3179 10.3066 16.348 10.2714 16.3854C10.2363 16.4228 10.2089 16.4668 10.1907 16.5148C10.1726 16.5628 10.1641 16.6139 10.1657 16.6652C10.1992 18.5629 10.9352 20.3807 12.2313 21.7672C12.3039 21.8357 12.3999 21.8739 12.4997 21.8739C12.5995 21.8739 12.6955 21.8357 12.7681 21.7672C14.129 20.317 14.8734 18.3948 14.8442 16.4062C14.8515 15.2659 14.7325 14.1282 14.4895 13.014C14.4664 12.9131 14.4041 12.8255 14.3163 12.7705C14.2285 12.7155 14.1225 12.6976 14.0216 12.7207Z" fill="#033F2D"/>
<path d="M22.1826 13.8222C21.3135 12.709 18.4717 11.5289 16.2377 10.7363C16.1401 10.7016 16.0326 10.7071 15.939 10.7516C15.8455 10.7961 15.7734 10.876 15.7387 10.9736C15.704 11.0713 15.7095 11.1787 15.754 11.2723C15.7985 11.3659 15.8783 11.4379 15.976 11.4726C18.9498 12.5305 20.9877 13.5629 21.567 14.3051C21.6375 14.421 21.678 14.5527 21.6848 14.6882C21.6916 14.8237 21.6646 14.9588 21.6061 15.0812C21.4326 15.4363 20.985 15.625 20.3123 15.625C18.1389 15.625 16.394 13.2281 15.5467 11.7992C15.5205 11.7551 15.4859 11.7165 15.4449 11.6857C15.4038 11.655 15.3571 11.6326 15.3074 11.6199C15.2577 11.6072 15.2059 11.6044 15.1551 11.6116C15.1043 11.6189 15.0555 11.6361 15.0113 11.6623C14.9672 11.6884 14.9286 11.723 14.8979 11.7641C14.8671 11.8052 14.8447 11.8519 14.832 11.9016C14.8193 11.9513 14.8165 12.003 14.8238 12.0538C14.8311 12.1046 14.8483 12.1535 14.8744 12.1976C16.0127 14.1176 17.8795 16.4062 20.3123 16.4062C21.6315 16.4062 22.1295 15.7894 22.3088 15.4215C22.4319 15.1678 22.4851 14.8858 22.4629 14.6047C22.4407 14.3236 22.344 14.0535 22.1826 13.8222Z" fill="#033F2D"/>
<path d="M8.59367 17.9688C8.49007 17.9688 8.39071 18.0099 8.31745 18.0832C8.2442 18.1564 8.20304 18.2558 8.20304 18.3594V19.3695L6.755 20.8176C6.71769 20.8536 6.68793 20.8967 6.66746 20.9444C6.64698 20.992 6.63621 21.0433 6.63576 21.0952C6.63531 21.147 6.64519 21.1985 6.66483 21.2465C6.68447 21.2945 6.71348 21.3381 6.75015 21.3748C6.78683 21.4114 6.83045 21.4404 6.87845 21.4601C6.92646 21.4797 6.97789 21.4896 7.02976 21.4892C7.08163 21.4887 7.13289 21.4779 7.18054 21.4575C7.2282 21.437 7.27131 21.4072 7.30734 21.3699L8.86984 19.8074C8.9431 19.7342 8.98427 19.6348 8.98429 19.5312V18.3594C8.98429 18.2558 8.94314 18.1564 8.86988 18.0832C8.79663 18.0099 8.69727 17.9688 8.59367 17.9688Z" fill="#033F2D"/>
<path d="M21.3388 3.66132C21.2655 3.58809 21.1662 3.54695 21.0626 3.54695C20.959 3.54695 20.8597 3.58809 20.7864 3.66132L3.94817 20.4996C1.94292 18.3573 0.814766 15.5404 0.786899 12.6061C0.759032 9.67188 1.83348 6.83405 3.79768 4.65403C5.76188 2.47401 8.47276 1.11061 11.394 0.833542C14.3153 0.556475 17.2341 1.38592 19.5732 3.1578C19.614 3.1896 19.6607 3.21298 19.7106 3.22659C19.7605 3.2402 19.8126 3.24376 19.8639 3.23707C19.9151 3.23038 19.9646 3.21357 20.0093 3.18761C20.0541 3.16166 20.0932 3.12708 20.1245 3.08588C20.1558 3.04468 20.1785 2.99768 20.1915 2.9476C20.2044 2.89753 20.2073 2.84538 20.2 2.79419C20.1926 2.74299 20.1752 2.69376 20.1486 2.64936C20.1221 2.60496 20.087 2.56627 20.0454 2.53554C17.8777 0.883341 15.2257 -0.00786581 12.5001 -9.53588e-06C10.0306 -0.00134469 7.61605 0.729233 5.5615 2.09944C3.50696 3.46965 1.90459 5.41801 0.956784 7.69842C0.00898084 9.97883 -0.241729 12.489 0.236324 14.9118C0.714377 17.3346 1.89975 19.5614 3.6427 21.3109C3.65012 21.3199 3.65324 21.3305 3.66145 21.3387C3.66965 21.3469 3.6802 21.35 3.68918 21.3574C6.03974 23.6785 9.21372 24.9745 12.5171 24.9619C15.8205 24.9494 18.9846 23.6293 21.3174 21.2904C23.6503 18.9515 24.9621 15.7841 24.9661 12.4807C24.9701 9.17726 23.666 6.00664 21.3388 3.6621V3.66132ZM12.5001 24.2187C9.5276 24.2204 6.66647 23.0877 4.50051 21.0519L21.0548 4.49647C22.616 6.16416 23.6556 8.25189 24.0456 10.5028C24.4357 12.7536 24.1592 15.0694 23.2501 17.1652C22.3411 19.2609 20.8392 21.0452 18.9292 22.2984C17.0192 23.5516 14.7845 24.2191 12.5001 24.2187Z" fill="#033F2D"/>
</g>
<defs>
<clipPath id="clip0_406_19036">
<rect width="25" height="25" fill="white"/>
</clipPath>
</defs>
</svg>
