<svg width="25" height="25" viewBox="0 0 25 25" fill="none" xmlns="http://www.w3.org/2000/svg">
<g clip-path="url(#clip0_409_19228)">
<path d="M21.8262 3.02732C21.8592 3.05672 21.8922 3.08611 21.9262 3.11639C22.2212 3.39524 22.4634 3.72791 22.7051 4.05271C22.726 4.08065 22.7468 4.10859 22.7683 4.13737C23.3603 4.94326 23.7691 5.87179 24.0235 6.83592C24.0389 6.89313 24.0542 6.95034 24.07 7.00929C24.5617 9.06036 24.1791 11.3123 23.0923 13.1124C23 13.2538 22.9037 13.39 22.8028 13.5254C22.7652 13.5767 22.7276 13.6281 22.6889 13.681C22.307 14.1952 21.8873 14.6855 21.3868 15.0879C21.3419 15.1248 21.297 15.1618 21.2508 15.1998C19.9785 16.2269 18.2882 16.9434 16.6386 16.9533C16.6012 16.9535 16.5637 16.9538 16.5251 16.9541C16.4461 16.9546 16.367 16.9549 16.288 16.9551C16.1703 16.9555 16.0525 16.9571 15.9348 16.9586C14.737 16.9668 13.6551 16.6571 12.5702 16.1664C12.4173 16.0981 12.2633 16.0326 12.1094 15.9668C12.0696 16.0068 12.0298 16.0468 11.9888 16.088C11.0426 17.0384 10.0959 17.9883 9.14857 18.9376C9.03184 19.0546 8.91511 19.1716 8.79839 19.2885C8.77516 19.3118 8.75192 19.3351 8.72798 19.3591C8.3523 19.7356 7.97696 20.1125 7.60175 20.4895C7.21643 20.8767 6.83072 21.2634 6.44469 21.6499C6.22801 21.8668 6.0115 22.0839 5.7954 22.3015C5.59183 22.5064 5.3878 22.7108 5.18342 22.9149C5.10865 22.9897 5.03405 23.0647 4.95963 23.1399C4.40501 23.6998 3.86269 24.2292 3.02795 24.2416C2.9895 24.2411 2.95105 24.2406 2.91143 24.2401C2.85064 24.2395 2.85064 24.2395 2.78862 24.239C2.17451 24.2225 1.67977 23.9681 1.25738 23.526C0.866589 23.0589 0.716561 22.5118 0.73839 21.9063C0.854314 20.9072 1.62688 20.2897 2.29823 19.6201C2.37191 19.5464 2.44558 19.4727 2.51923 19.3991C2.71793 19.2003 2.91679 19.0018 3.11567 18.8032C3.32396 18.5953 3.53212 18.3871 3.74029 18.179C4.13394 17.7855 4.52771 17.3921 4.92153 16.9988C5.37011 16.5508 5.81856 16.1026 6.26699 15.6544C7.18893 14.733 8.11103 13.8117 9.03326 12.8906C9.01217 12.8426 9.01217 12.8426 8.99066 12.7936C8.92629 12.6467 8.86209 12.4998 8.79789 12.3529C8.77578 12.3026 8.75367 12.2522 8.73088 12.2003C7.86052 10.2061 7.77171 7.98224 8.54064 5.93629C8.91493 5.00289 9.41838 4.1718 10.1021 3.43263C10.1949 3.33146 10.2824 3.22759 10.3699 3.12193C10.5822 2.87966 10.8299 2.68668 11.084 2.49021C11.1102 2.46937 11.1364 2.44853 11.1633 2.42705C14.383 -0.131289 18.8673 0.368161 21.8262 3.02732ZM13.1836 2.19724C13.1374 2.21788 13.1374 2.21788 13.0902 2.23894C12.2927 2.59794 11.6106 3.10199 10.9864 3.71091C10.9527 3.74157 10.919 3.77222 10.8843 3.8038C9.60377 5.00058 8.89261 6.87027 8.83013 8.59659C8.77972 10.6063 9.50911 12.4591 10.8887 13.916C10.9451 13.9762 10.9451 13.9762 11.0026 14.0377C12.3295 15.4139 14.2151 16.137 16.1103 16.1743C18.1485 16.1344 19.9955 15.3449 21.4276 13.8924C22.7205 12.5367 23.4696 10.6639 23.4376 8.78904C23.3806 7.23173 22.9209 5.66766 21.9239 4.44334C21.9034 4.41807 21.883 4.39279 21.8619 4.36676C20.6427 2.86826 18.9351 1.82914 16.9922 1.61131C15.6862 1.47982 14.3823 1.64934 13.1836 2.19724ZM9.43967 13.699C9.38648 13.7524 9.38648 13.7524 9.33222 13.8068C9.27211 13.8669 9.27211 13.8669 9.21078 13.9283C9.16724 13.972 9.1237 14.0158 9.07884 14.061C9.01229 14.1276 9.01229 14.1276 8.9444 14.1956C8.82621 14.314 8.70817 14.4325 8.59016 14.5511C8.4698 14.6719 8.34931 14.7926 8.22883 14.9133C7.99228 15.1504 7.75589 15.3877 7.51959 15.625C7.58678 15.7759 7.66371 15.8787 7.78073 15.9949C7.81396 16.0281 7.84719 16.0613 7.88142 16.0955C7.91723 16.1308 7.95304 16.1661 7.98994 16.2025C8.02665 16.2391 8.06336 16.2757 8.10118 16.3133C8.21837 16.43 8.33589 16.5463 8.45342 16.6626C8.53298 16.7416 8.61252 16.8207 8.69203 16.8998C8.8869 17.0936 9.08204 17.2871 9.2774 17.4804C9.43932 17.4099 9.54556 17.3218 9.66969 17.1969C9.7078 17.1588 9.74591 17.1207 9.78518 17.0814C9.82583 17.0402 9.86647 16.9991 9.90835 16.9567C9.97134 16.8935 9.97134 16.8935 10.0356 16.829C10.1697 16.6944 10.3034 16.5595 10.4371 16.4245C10.5279 16.3332 10.6188 16.2419 10.7096 16.1506C10.9323 15.9268 11.1548 15.7028 11.377 15.4785C11.244 15.3437 11.1115 15.2117 10.966 15.0905C10.4645 14.6678 10.0259 14.2285 9.63274 13.7003C9.60186 13.662 9.60186 13.662 9.57037 13.623C9.50889 13.6175 9.50889 13.6175 9.43967 13.699ZM6.79412 16.3449C6.7555 16.3838 6.71689 16.4226 6.67711 16.4627C6.63541 16.5045 6.59371 16.5464 6.55075 16.5895C6.50691 16.6338 6.46307 16.678 6.4179 16.7236C6.35186 16.79 6.35186 16.79 6.28448 16.8577C6.17524 16.9675 6.06612 17.0774 5.95709 17.1875C6.02428 17.3384 6.10121 17.4412 6.21823 17.5574C6.25146 17.5906 6.28469 17.6238 6.31892 17.658C6.35473 17.6933 6.39054 17.7286 6.42744 17.765C6.48251 17.8199 6.48251 17.8199 6.53868 17.8758C6.65587 17.9925 6.77339 18.1088 6.89092 18.2251C6.97048 18.3041 7.05002 18.3832 7.12953 18.4623C7.3244 18.6561 7.51954 18.8496 7.7149 19.0429C7.87724 18.966 7.98425 18.8827 8.11087 18.7542C8.14769 18.717 8.18451 18.6799 8.22245 18.6416C8.2604 18.6029 8.29835 18.5641 8.33746 18.5241C8.37617 18.485 8.41488 18.4458 8.45476 18.4055C8.55016 18.309 8.64533 18.2122 8.74029 18.1152C8.53339 17.8683 8.31739 17.6363 8.08931 17.4089C8.05624 17.3758 8.02318 17.3427 7.98911 17.3086C7.91986 17.2393 7.85056 17.1701 7.78119 17.1009C7.67451 16.9945 7.56809 16.8878 7.4617 16.7811C7.39423 16.7137 7.32674 16.6463 7.25923 16.5788C7.2273 16.5468 7.19536 16.5148 7.16245 16.4818C6.99241 16.259 6.99242 16.259 6.79412 16.3449ZM4.99715 18.1364C4.96317 18.1699 4.92919 18.2033 4.89417 18.2377C4.53749 18.589 4.18235 18.9418 3.82733 19.2948C3.65893 19.4621 3.49008 19.6289 3.32079 19.7953C3.11639 19.9962 2.91286 20.198 2.7099 20.4003C2.63254 20.4772 2.55489 20.5537 2.47693 20.63C1.83388 21.2439 1.83388 21.2439 1.59002 22.0764C1.64167 22.5339 1.80114 22.8355 2.14849 23.1445C2.46954 23.3552 2.79338 23.4265 3.17388 23.3886C3.53769 23.2887 3.78131 23.1162 4.04032 22.8484C4.07468 22.8141 4.10904 22.7798 4.14445 22.7444C4.25664 22.6321 4.36776 22.5187 4.47889 22.4052C4.55695 22.3266 4.63508 22.2481 4.71326 22.1696C4.91797 21.9638 5.12177 21.7571 5.3254 21.5502C5.53371 21.3389 5.74286 21.1284 5.95194 20.9179C6.36138 20.5053 6.76988 20.0918 7.17779 19.6777C6.95264 19.4116 6.95264 19.4116 6.71339 19.1582C6.68326 19.1279 6.65314 19.0976 6.6221 19.0664C6.59065 19.0351 6.55921 19.0037 6.52681 18.9714C6.49374 18.9383 6.46068 18.9052 6.42661 18.8711C6.35736 18.8018 6.28806 18.7326 6.21869 18.6634C6.11201 18.557 6.00559 18.4503 5.8992 18.3436C5.83173 18.2762 5.76424 18.2088 5.69673 18.1413C5.6648 18.1093 5.63286 18.0773 5.59995 18.0443C5.29342 17.7393 5.27839 17.8583 4.99715 18.1364Z" fill="#033F2D"/>
<path d="M13.6962 4.36426C14.0194 4.42198 14.2237 4.76348 14.4316 5.00513C14.4729 5.05281 14.4729 5.05281 14.5151 5.10145C14.6607 5.2701 14.8035 5.44028 14.9413 5.61548C15.0764 5.55062 15.2007 5.47815 15.3258 5.39575C15.6785 5.17677 15.9942 5.13443 16.4061 5.17603C16.7004 5.24923 16.9694 5.34868 17.1874 5.56665C17.2115 5.61499 17.2115 5.61499 17.2362 5.66431C17.5237 5.35402 17.7998 5.04073 18.0611 4.70777C18.2081 4.53947 18.3313 4.40918 18.5546 4.36731C18.7565 4.40518 18.8256 4.47355 18.9452 4.63892C18.9698 4.84313 18.9632 4.94971 18.859 5.12891C18.8189 5.17769 18.7789 5.22647 18.7377 5.27673C18.7055 5.31671 18.7055 5.31671 18.6726 5.3575C18.5501 5.50823 18.4231 5.65498 18.2957 5.80164C18.2692 5.83222 18.2427 5.86281 18.2154 5.89432C18.1636 5.95361 18.1115 6.01254 18.0589 6.07106C17.8922 6.2597 17.8922 6.2597 17.8221 6.49438C17.8635 6.62355 17.9077 6.7449 17.9595 6.86975C18.0734 7.14827 18.1554 7.41936 18.2128 7.71509C18.2633 7.7158 18.3137 7.71651 18.3658 7.71725C18.5537 7.72008 18.7416 7.72385 18.9295 7.7279C19.0107 7.72952 19.0919 7.73089 19.1732 7.732C19.2902 7.73365 19.4071 7.7362 19.5241 7.73893C19.5782 7.7394 19.5782 7.7394 19.6335 7.73988C19.8512 7.74603 19.9928 7.77617 20.1659 7.9104C20.2649 8.04639 20.2649 8.04639 20.3581 8.20642C20.3916 8.26352 20.4251 8.32061 20.4587 8.3777C20.5071 8.4606 20.5071 8.4606 20.5565 8.54517C20.5863 8.59137 20.6161 8.63757 20.6467 8.68517C20.8974 9.07504 20.8974 9.07504 20.8495 9.32642C20.8085 9.44923 20.7728 9.50476 20.6725 9.58582C20.4914 9.63825 20.3388 9.64361 20.1659 9.57056C20.0105 9.407 19.9054 9.2081 19.8181 9.00122C19.7515 8.85856 19.6911 8.75499 19.5799 8.64282C19.3599 8.58215 19.153 8.59638 18.9269 8.6123C18.8676 8.61451 18.8084 8.61671 18.7474 8.61898C18.6015 8.62472 18.4561 8.63274 18.3104 8.64282C18.3109 8.67251 18.3115 8.7022 18.312 8.73279C18.315 9.0286 18.298 9.31645 18.2646 9.61023C18.2583 9.67023 18.2583 9.67023 18.2518 9.73144C18.2307 9.92453 18.2037 10.1127 18.1639 10.303C18.1982 10.3022 18.2324 10.3014 18.2676 10.3007C18.4233 10.2976 18.5789 10.2957 18.7346 10.2938C18.7885 10.2926 18.8423 10.2914 18.8978 10.2901C18.9499 10.2896 19.002 10.2892 19.0556 10.2887C19.1034 10.2879 19.1512 10.2871 19.2005 10.2863C19.3611 10.3061 19.45 10.3546 19.5799 10.4495C19.6789 10.5855 19.6789 10.5855 19.7722 10.7455C19.8057 10.8026 19.8392 10.8598 19.8727 10.917C19.905 10.9722 19.9373 11.0274 19.9706 11.0842C20.0003 11.1299 20.0301 11.1755 20.0608 11.2225C20.1801 11.4061 20.2579 11.5413 20.2971 11.7587C20.2527 11.9644 20.1911 12.0379 20.0194 12.1584C19.8485 12.189 19.8485 12.189 19.6776 12.1584C19.522 12.0312 19.4264 11.9149 19.353 11.7302C19.2656 11.517 19.1798 11.3261 18.994 11.1819C18.64 11.0594 18.2267 11.0685 17.871 11.1819C17.7181 11.3149 17.6675 11.4187 17.5934 11.6059C17.4371 11.9997 17.079 12.3205 16.6991 12.5002C16.3197 12.6478 15.9191 12.6487 15.5383 12.5054C14.9962 12.2363 14.6548 11.7666 14.4042 11.2307C14.4042 11.1985 14.4042 11.1663 14.4042 11.1331C14.0174 11.1331 13.6307 11.1331 13.2323 11.1331C13.2001 11.2136 13.1678 11.2942 13.1346 11.3772C13.0732 11.4956 13.0107 11.612 12.9454 11.7281C12.9289 11.7588 12.9123 11.7895 12.8953 11.8211C12.8018 11.9873 12.735 12.1002 12.5487 12.1584C12.3504 12.188 12.2801 12.1759 12.1153 12.0577C12.0136 11.9171 11.9833 11.8491 11.9887 11.678C12.041 11.4368 12.1912 11.2303 12.3198 11.0232C12.3634 10.9505 12.3634 10.9505 12.4078 10.8763C12.7089 10.3798 12.7089 10.3798 12.9393 10.303C13.0295 10.299 13.1197 10.2977 13.21 10.2982C13.2624 10.2984 13.3148 10.2985 13.3688 10.2987C13.4234 10.2991 13.4781 10.2995 13.5344 10.2999C13.6173 10.3003 13.6173 10.3003 13.7018 10.3006C13.8383 10.3012 13.9747 10.302 14.1112 10.303C14.0961 10.2617 14.081 10.2204 14.0654 10.1779C13.9558 9.82329 13.9586 9.47711 13.9617 9.10974C13.9619 9.06005 13.9621 9.01035 13.9623 8.95916C13.9629 8.83743 13.9637 8.71571 13.9647 8.59399C13.2405 8.50473 13.2405 8.50473 12.5847 8.72982C12.4132 8.94064 12.2999 9.17755 12.2039 9.43074C12.1581 9.52173 12.1581 9.52173 12.0116 9.61938C11.7986 9.647 11.7041 9.64347 11.5264 9.51868C11.4279 9.3784 11.3977 9.30808 11.4029 9.13894C11.4549 8.89774 11.6053 8.69125 11.7339 8.48413C11.7629 8.43567 11.792 8.3872 11.8219 8.33727C12.123 7.84071 12.123 7.84071 12.3534 7.76392C12.4832 7.75977 12.6117 7.75825 12.7415 7.75915C12.7793 7.75922 12.817 7.75929 12.8558 7.75936C12.9762 7.75963 13.0966 7.76024 13.217 7.76086C13.2987 7.76111 13.3804 7.76133 13.462 7.76153C13.6621 7.76207 13.8623 7.76291 14.0624 7.76392C14.0655 7.72244 14.0655 7.72244 14.0688 7.68012C14.0918 7.42707 14.1405 7.21205 14.2333 6.97351C14.3594 6.66884 14.3594 6.66884 14.4042 6.3479C14.3267 6.21694 14.2253 6.11252 14.1204 6.00305C14.0617 5.9385 14.0032 5.87384 13.9449 5.80907C13.9154 5.77678 13.886 5.74448 13.8556 5.7112C13.7275 5.56899 13.6051 5.42315 13.4856 5.27368C13.4262 5.20117 13.4262 5.20117 13.3656 5.1272C13.2629 4.94911 13.2572 4.84148 13.2811 4.63892C13.4077 4.45865 13.4785 4.40313 13.6962 4.36426ZM15.3807 6.49438C14.7557 7.54433 14.6029 8.87409 14.8772 10.0619C15.0259 10.6467 15.2626 11.3637 15.8019 11.7037C15.983 11.7742 16.0688 11.806 16.2596 11.7678C16.7325 11.5457 16.9825 11.1521 17.1752 10.6814C17.6256 9.40862 17.5903 7.99203 17.0226 6.76294C16.8461 6.43482 16.6219 6.13211 16.2596 6.0061C15.8828 5.93669 15.5856 6.21093 15.3807 6.49438Z" fill="#033F2D"/>
<path d="M13.5743 2.8808C13.7377 2.99904 13.8067 3.06998 13.849 3.26837C13.8084 3.46706 13.7248 3.58151 13.5743 3.71088C13.4616 3.78312 13.3459 3.84878 13.2296 3.91516C11.9699 4.69308 10.9703 6.02351 10.6093 7.46507C10.5657 7.65752 10.5236 7.84996 10.487 8.0439C10.4494 8.23306 10.4226 8.36796 10.308 8.52541C10.1437 8.63453 10.0046 8.63193 9.81453 8.59369C9.67111 8.49808 9.62934 8.4363 9.58508 8.2704C9.56666 8.06351 9.60156 7.89399 9.64974 7.69342C9.65882 7.65468 9.6679 7.61593 9.67726 7.57601C10.1484 5.62363 11.3287 4.03484 13.0372 2.97846C13.2249 2.87273 13.3564 2.85404 13.5743 2.8808Z" fill="#033F2D"/>
<path d="M15.2344 2.34379C15.3436 2.4319 15.3728 2.49508 15.3978 2.63199C15.4117 2.82254 15.404 2.90255 15.2771 3.0518C15.1117 3.1381 15.0277 3.15569 14.8438 3.12504C14.6769 3.02866 14.6132 2.96951 14.5508 2.7863C14.5508 2.60621 14.585 2.53202 14.6973 2.39262C14.8705 2.25652 15.0292 2.29156 15.2344 2.34379Z" fill="#033F2D"/>
</g>
<defs>
<clipPath id="clip0_409_19228">
<rect width="25" height="25" fill="white"/>
</clipPath>
</defs>
</svg>
