<svg width="50" height="50" viewBox="0 0 50 50" fill="none" xmlns="http://www.w3.org/2000/svg">
<rect width="50" height="50" rx="25" fill="#C7F268"/>
<path d="M17.6586 24.3667C19.3148 25.7973 21.1699 26.5384 22.3488 26.8966C22.0896 26.5682 21.86 26.2376 21.6609 25.9049C20.4865 25.4527 18.9867 24.69 17.7032 23.4494L17.2161 22.9785L17.108 23.6474C17.1011 23.6889 16.348 27.9069 11.1754 30.9171C11.0066 31.0154 10.9493 31.232 11.0476 31.4009C11.1133 31.5138 11.2319 31.5768 11.3538 31.5768C11.4142 31.5768 11.4754 31.5614 11.5314 31.5288C15.8772 28.9997 17.2584 25.7107 17.6586 24.3667Z" fill="#033F2D"/>
<path d="M14.7824 13.0108C18.2085 13.21 18.1654 19.0073 18.1645 19.0659L18.1613 19.2923L18.3655 19.3901C19.5784 19.9709 20.3616 20.5836 20.8646 21.1054C20.9316 20.8444 21.0131 20.5947 21.1065 20.3572C20.5858 19.8721 19.8659 19.3472 18.8702 18.8492C18.8588 18.3524 18.7921 17.1177 18.4272 15.8494C17.7887 13.6301 16.5426 12.4043 14.8235 12.3044C14.6298 12.2926 14.461 12.442 14.4497 12.637C14.4383 12.8321 14.5873 12.9995 14.7824 13.0108Z" fill="#033F2D"/>
<path d="M28.7348 21.1054C29.2377 20.5836 30.021 19.9709 31.2338 19.3901L31.4381 19.2923L31.4348 19.0659C31.434 19.0074 31.3909 13.21 34.8169 13.0108C35.0121 12.9994 35.161 12.8321 35.1497 12.637C35.1384 12.442 34.9696 12.2926 34.7759 12.3044C33.0569 12.4043 31.8108 13.6301 31.1722 15.8494C30.8073 17.1177 30.7406 18.3524 30.7292 18.8492C29.7335 19.3472 29.0136 19.8721 28.4929 20.3572C28.5862 20.5946 28.6678 20.8444 28.7348 21.1054Z" fill="#033F2D"/>
<path d="M32.5839 33.8715C31.9636 31.4507 32.0083 29.571 32.0088 29.5525L32.0267 28.9365L31.4857 29.2317C30.8074 29.6016 29.7976 29.5216 28.9838 29.3596C29.1548 29.5958 29.3246 29.8604 29.4872 30.1541C30.0896 30.2239 30.7372 30.2248 31.307 30.0618C31.3327 30.8059 31.4441 32.2654 31.8928 34.025C32.4856 36.3496 33.8064 39.6463 36.7328 42.1512C36.7995 42.2083 36.8813 42.2363 36.9627 42.2363C37.0625 42.2363 37.1617 42.1943 37.2317 42.1125C37.3588 41.9641 37.3414 41.7407 37.193 41.6136C34.4137 39.2347 33.1526 36.0903 32.5839 33.8715Z" fill="#033F2D"/>
<path d="M38.4233 30.9171C33.2507 27.9069 32.4976 23.6889 32.4907 23.6474L32.3826 22.9785L31.8955 23.4494C30.612 24.69 29.1122 25.4527 27.9379 25.9049C27.7388 26.2376 27.5092 26.5682 27.25 26.8966C28.4289 26.5384 30.284 25.7973 31.9402 24.3667C32.3404 25.7107 33.7215 28.9997 38.0673 31.5288C38.1233 31.5614 38.1845 31.5768 38.2449 31.5768C38.3668 31.5768 38.4854 31.5138 38.5511 31.4009C38.6494 31.232 38.5922 31.0154 38.4233 30.9171Z" fill="#033F2D"/>
<path d="M20.1116 30.1541C20.2742 29.8604 20.444 29.5958 20.615 29.3596C19.8012 29.5216 18.7915 29.6015 18.1132 29.2317L17.5721 28.9365L17.59 29.5525C17.5905 29.571 17.6352 31.4508 17.0149 33.8715C16.4463 36.0903 15.1851 39.2347 12.4059 41.6136C12.2574 41.7407 12.2401 41.9641 12.3672 42.1125C12.4371 42.1943 12.5363 42.2363 12.6361 42.2363C12.7175 42.2363 12.7993 42.2083 12.866 42.1512C15.7924 39.6463 17.1132 36.3496 17.706 34.025C18.1547 32.2654 18.2661 30.8059 18.2918 30.0618C18.8617 30.2248 19.5093 30.2239 20.1116 30.1541Z" fill="#033F2D"/>
<path d="M26.0823 27.5522C31.4785 22.0677 26.0823 17.7332 26.0823 17.7332C26.0823 17.7332 29.7093 18.5293 28.4708 15.3447C28.1686 14.5676 27.7952 14.0122 27.4035 13.6159C27.7466 13.2675 28.3274 12.8746 29.2596 12.7475L29.596 12.7015L29.4703 12.3861C29.4584 12.3563 28.2956 9.38329 29.453 7.39915C29.5269 7.27255 29.4841 7.11003 29.3575 7.03621C29.2308 6.96229 29.0684 7.00518 28.9945 7.13172C27.9248 8.96558 28.5827 11.42 28.8674 12.2767C27.9604 12.4661 27.3703 12.8863 27.0037 13.2673C26.6456 13.0011 26.2869 12.8471 25.966 12.7605C26.2612 11.2587 25.2862 10.7448 25.2862 10.7448C25.9166 11.447 25.7293 12.2756 25.5762 12.6827C25.1149 12.6222 24.7997 12.691 24.7997 12.691C24.7997 12.691 24.4844 12.6222 24.0231 12.6827C23.87 12.2756 23.6827 11.447 24.3131 10.7448C24.3131 10.7448 23.3381 11.2587 23.6333 12.7605C23.3125 12.847 22.9538 13.0011 22.5956 13.2673C22.229 12.8863 21.6389 12.4661 20.7319 12.2767C21.0166 11.42 21.6746 8.96558 20.6048 7.13172C20.5309 7.00518 20.3685 6.96229 20.2418 7.03621C20.1152 7.11003 20.0724 7.27255 20.1463 7.39915C21.3037 9.38329 20.141 12.3564 20.1291 12.3861L20.0033 12.7015L20.3397 12.7475C21.2719 12.8746 21.8527 13.2675 22.1958 13.6159C21.8041 14.0122 21.4306 14.5676 21.1284 15.3447C19.89 18.5293 23.5169 17.7332 23.5169 17.7332C23.5169 17.7332 18.1207 22.0677 23.5169 27.5522C23.5169 27.5522 19.5361 28.8791 19.3592 34.9387C19.1823 40.9982 24.0919 43.5193 24.7996 43.9616C25.5073 43.5193 30.4169 40.9982 30.24 34.9387C30.0631 28.8791 26.0823 27.5522 26.0823 27.5522ZM20.9073 38.0495C19.0496 31.6509 23.5317 28.7612 23.5317 28.7612C20.9663 32.1522 20.9073 38.0495 20.9073 38.0495Z" fill="#033F2D"/>
</svg>
