<svg width="168" height="50" viewBox="0 0 168 50" fill="none" xmlns="http://www.w3.org/2000/svg">
<path d="M66.2397 35V14.6289H74.3882C75.883 14.6289 77.1317 14.8522 78.1343 15.2988C79.1369 15.7454 79.8888 16.3607 80.3901 17.1445C80.9006 17.9284 81.1558 18.8307 81.1558 19.8516C81.1558 20.6445 80.9917 21.3418 80.6636 21.9434C80.3446 22.5449 79.9071 23.0371 79.3511 23.4199C78.8042 23.8027 78.1753 24.0716 77.4644 24.2266V24.4316C78.2391 24.4681 78.9683 24.6868 79.6519 25.0879C80.3354 25.4889 80.8869 26.054 81.3062 26.7832C81.7345 27.5033 81.9487 28.3646 81.9487 29.3672C81.9487 30.4427 81.6799 31.4089 81.1421 32.2656C80.6134 33.1133 79.8296 33.7832 78.7905 34.2754C77.7515 34.7585 76.4663 35 74.9351 35H66.2397ZM70.5327 31.4863H74.0601C75.2541 31.4863 76.1245 31.2539 76.6714 30.7891C77.2274 30.3242 77.5054 29.709 77.5054 28.9434C77.5054 28.3783 77.3687 27.8815 77.0952 27.4531C76.8309 27.0156 76.4481 26.6738 75.9468 26.4277C75.4455 26.1816 74.8485 26.0586 74.1558 26.0586H70.5327V31.4863ZM70.5327 23.1602H73.7319C74.3244 23.1602 74.8485 23.0553 75.3042 22.8457C75.769 22.6361 76.1336 22.3398 76.3979 21.957C76.6623 21.5651 76.7944 21.1003 76.7944 20.5625C76.7944 19.8333 76.5347 19.2454 76.0151 18.7988C75.5047 18.3431 74.771 18.1152 73.814 18.1152H70.5327V23.1602ZM93.5425 28.5059V19.7148H97.7671V35H93.7065V32.2246H93.5425C93.1961 33.1087 92.6265 33.8288 91.8335 34.3848C91.0405 34.9316 90.0698 35.2005 88.9214 35.1914C87.9006 35.1914 86.9982 34.9635 86.2144 34.5078C85.4396 34.043 84.8335 33.3822 84.396 32.5254C83.9676 31.6686 83.7534 30.6432 83.7534 29.4492V19.7148H87.978V28.7109C87.978 29.6042 88.2196 30.3151 88.7026 30.8438C89.1857 31.3633 89.8283 31.6185 90.6304 31.6094C91.1408 31.6094 91.6147 31.4954 92.0522 31.2676C92.4897 31.0306 92.8452 30.6797 93.1187 30.2148C93.4012 29.75 93.5425 29.1803 93.5425 28.5059ZM107.105 41.043C105.045 41.043 103.432 40.6328 102.265 39.8125C101.098 39.0013 100.388 37.9896 100.132 36.7773L104.042 36.2578C104.161 36.5677 104.348 36.8548 104.603 37.1191C104.858 37.3835 105.2 37.5931 105.628 37.748C106.057 37.9121 106.581 37.9941 107.201 37.9941C108.121 37.9941 108.882 37.7708 109.484 37.3242C110.085 36.8867 110.386 36.1439 110.386 35.0957V32.293H110.208C110.026 32.7122 109.748 33.1133 109.375 33.4961C109.001 33.8789 108.522 34.1888 107.939 34.4258C107.356 34.6628 106.658 34.7812 105.847 34.7812C104.699 34.7812 103.655 34.5169 102.716 33.9883C101.787 33.4505 101.039 32.6302 100.474 31.5273C99.9181 30.4245 99.6401 29.0299 99.6401 27.3438C99.6401 25.6029 99.9227 24.1536 100.488 22.9961C101.062 21.8385 101.819 20.9727 102.757 20.3984C103.696 19.8151 104.726 19.5234 105.847 19.5234C106.704 19.5234 107.419 19.6693 107.994 19.9609C108.577 20.2435 109.051 20.599 109.416 21.0273C109.78 21.4557 110.054 21.8796 110.236 22.2988H110.4V19.7148H114.57V35.1641C114.57 36.4583 114.251 37.543 113.613 38.418C112.975 39.293 112.095 39.9492 110.974 40.3867C109.853 40.8242 108.563 41.043 107.105 41.043ZM107.187 31.5957C108.208 31.5957 108.996 31.2174 109.552 30.4609C110.117 29.7044 110.4 28.6562 110.4 27.3164C110.4 26.4232 110.272 25.6484 110.017 24.9922C109.771 24.3268 109.411 23.8118 108.937 23.4473C108.463 23.0736 107.88 22.8867 107.187 22.8867C106.494 22.8867 105.906 23.0781 105.423 23.4609C104.949 23.8346 104.589 24.3542 104.343 25.0195C104.097 25.6849 103.974 26.4505 103.974 27.3164C103.974 28.1914 104.097 28.9525 104.343 29.5996C104.589 30.2376 104.949 30.7298 105.423 31.0762C105.906 31.4225 106.494 31.5957 107.187 31.5957ZM125.316 19.7148V22.9141H115.896V19.7148H125.316ZM118.056 35V18.6074C118.056 17.5046 118.27 16.5885 118.699 15.8594C119.136 15.1302 119.729 14.5833 120.476 14.2188C121.233 13.8542 122.089 13.6719 123.046 13.6719C123.703 13.6719 124.3 13.7266 124.837 13.8359C125.384 13.9362 125.785 14.0228 126.041 14.0957L125.302 17.2676C125.129 17.222 124.924 17.1764 124.687 17.1309C124.45 17.0853 124.199 17.0625 123.935 17.0625C123.315 17.0625 122.882 17.2083 122.636 17.5C122.39 17.7826 122.267 18.1836 122.267 18.7031V35H118.056ZM127.011 35V19.7148H131.099V22.3945H131.263C131.546 21.4466 132.015 20.7311 132.671 20.248C133.328 19.7559 134.08 19.5098 134.927 19.5098C135.146 19.5098 135.374 19.5234 135.611 19.5508C135.857 19.569 136.076 19.6055 136.267 19.6602V23.4062C136.067 23.3424 135.789 23.2923 135.433 23.2559C135.087 23.2103 134.763 23.1875 134.462 23.1875C133.852 23.1875 133.3 23.3242 132.808 23.5977C132.316 23.862 131.929 24.2357 131.646 24.7188C131.373 25.1927 131.236 25.7396 131.236 26.3594V35H127.011ZM143.787 35.3008C142.219 35.3008 140.865 34.9818 139.726 34.3438C138.587 33.7057 137.712 32.7988 137.101 31.623C136.5 30.4382 136.199 29.0391 136.199 27.4258C136.199 25.8581 136.5 24.4818 137.101 23.2969C137.712 22.112 138.569 21.1868 139.671 20.5215C140.783 19.8561 142.087 19.5234 143.582 19.5234C144.593 19.5234 145.537 19.6875 146.412 20.0156C147.287 20.3346 148.052 20.8177 148.708 21.4648C149.365 22.1029 149.875 22.9095 150.24 23.8848C150.604 24.8509 150.787 25.9857 150.787 27.2891V28.4375H137.88V25.8262H148.736L146.767 26.5098C146.767 25.735 146.649 25.0605 146.412 24.4863C146.175 23.9121 145.819 23.4701 145.345 23.1602C144.88 22.8411 144.302 22.6816 143.609 22.6816C142.916 22.6816 142.328 22.8411 141.845 23.1602C141.371 23.4792 141.007 23.9121 140.751 24.459C140.496 25.0059 140.369 25.6348 140.369 26.3457V28.1914C140.369 29.0208 140.514 29.7318 140.806 30.3242C141.098 30.9076 141.503 31.3587 142.023 31.6777C142.552 31.9876 143.158 32.1426 143.841 32.1426C144.315 32.1426 144.744 32.0742 145.126 31.9375C145.509 31.8008 145.837 31.6003 146.111 31.3359C146.393 31.0716 146.603 30.7526 146.74 30.3789L150.65 30.6387C150.458 31.5775 150.057 32.3978 149.447 33.0996C148.845 33.7923 148.066 34.3346 147.109 34.7266C146.152 35.1094 145.044 35.3008 143.787 35.3008ZM159.564 35.3008C157.996 35.3008 156.643 34.9818 155.503 34.3438C154.364 33.7057 153.489 32.7988 152.878 31.623C152.277 30.4382 151.976 29.0391 151.976 27.4258C151.976 25.8581 152.277 24.4818 152.878 23.2969C153.489 22.112 154.346 21.1868 155.449 20.5215C156.561 19.8561 157.864 19.5234 159.359 19.5234C160.371 19.5234 161.314 19.6875 162.189 20.0156C163.064 20.3346 163.83 20.8177 164.486 21.4648C165.142 22.1029 165.653 22.9095 166.017 23.8848C166.382 24.8509 166.564 25.9857 166.564 27.2891V28.4375H153.658V25.8262H164.513L162.544 26.5098C162.544 25.735 162.426 25.0605 162.189 24.4863C161.952 23.9121 161.597 23.4701 161.123 23.1602C160.658 22.8411 160.079 22.6816 159.386 22.6816C158.694 22.6816 158.106 22.8411 157.623 23.1602C157.149 23.4792 156.784 23.9121 156.529 24.459C156.274 25.0059 156.146 25.6348 156.146 26.3457V28.1914C156.146 29.0208 156.292 29.7318 156.583 30.3242C156.875 30.9076 157.281 31.3587 157.8 31.6777C158.329 31.9876 158.935 32.1426 159.619 32.1426C160.093 32.1426 160.521 32.0742 160.904 31.9375C161.287 31.8008 161.615 31.6003 161.888 31.3359C162.171 31.0716 162.38 30.7526 162.517 30.3789L166.427 30.6387C166.236 31.5775 165.835 32.3978 165.224 33.0996C164.623 33.7923 163.843 34.3346 162.886 34.7266C161.929 35.1094 160.822 35.3008 159.564 35.3008Z" fill="white"/>
<rect x="9.15527e-05" width="50" height="50" rx="25" fill="#C7F268"/>
<path d="M17.6586 24.3667C19.3149 25.7973 21.17 26.5384 22.3489 26.8966C22.0897 26.5682 21.8601 26.2376 21.661 25.9049C20.4866 25.4527 18.9868 24.69 17.7033 23.4494L17.2162 22.9785L17.1081 23.6474C17.1012 23.6889 16.3481 27.9069 11.1755 30.9171C11.0066 31.0154 10.9494 31.232 11.0477 31.4009C11.1134 31.5138 11.232 31.5768 11.3539 31.5768C11.4143 31.5768 11.4755 31.5614 11.5315 31.5288C15.8773 28.9997 17.2584 25.7107 17.6586 24.3667Z" fill="#033F2D"/>
<path d="M14.7825 13.0108C18.2086 13.21 18.1655 19.0073 18.1646 19.0659L18.1614 19.2923L18.3656 19.3901C19.5785 19.9709 20.3617 20.5836 20.8646 21.1054C20.9317 20.8444 21.0132 20.5947 21.1066 20.3572C20.5859 19.8721 19.866 19.3472 18.8703 18.8492C18.8589 18.3524 18.7922 17.1177 18.4273 15.8494C17.7888 13.6301 16.5426 12.4043 14.8236 12.3044C14.6299 12.2926 14.4611 12.442 14.4498 12.637C14.4384 12.8321 14.5874 12.9995 14.7825 13.0108Z" fill="#033F2D"/>
<path d="M28.7349 21.1054C29.2378 20.5836 30.0211 19.9709 31.2339 19.3901L31.4382 19.2923L31.4349 19.0659C31.4341 19.0074 31.391 13.21 34.817 13.0108C35.0122 12.9994 35.1611 12.8321 35.1498 12.637C35.1385 12.442 34.9697 12.2926 34.776 12.3044C33.057 12.4043 31.8109 13.6301 31.1723 15.8494C30.8074 17.1177 30.7407 18.3524 30.7293 18.8492C29.7336 19.3472 29.0137 19.8721 28.493 20.3572C28.5863 20.5946 28.6679 20.8444 28.7349 21.1054Z" fill="#033F2D"/>
<path d="M32.584 33.8715C31.9637 31.4507 32.0084 29.571 32.0089 29.5525L32.0268 28.9365L31.4858 29.2317C30.8075 29.6016 29.7977 29.5216 28.9839 29.3596C29.1549 29.5958 29.3247 29.8604 29.4873 30.1541C30.0896 30.2239 30.7373 30.2248 31.3071 30.0618C31.3328 30.8059 31.4442 32.2654 31.8929 34.025C32.4857 36.3496 33.8065 39.6463 36.7329 42.1512C36.7996 42.2083 36.8814 42.2363 36.9628 42.2363C37.0626 42.2363 37.1618 42.1943 37.2318 42.1125C37.3589 41.9641 37.3415 41.7407 37.193 41.6136C34.4138 39.2347 33.1527 36.0903 32.584 33.8715Z" fill="#033F2D"/>
<path d="M38.4234 30.9171C33.2508 27.9069 32.4977 23.6889 32.4908 23.6474L32.3827 22.9785L31.8956 23.4494C30.6121 24.69 29.1123 25.4527 27.938 25.9049C27.7389 26.2376 27.5093 26.5682 27.2501 26.8966C28.429 26.5384 30.284 25.7973 31.9403 24.3667C32.3405 25.7107 33.7216 28.9997 38.0674 31.5288C38.1234 31.5614 38.1846 31.5768 38.245 31.5768C38.3669 31.5768 38.4855 31.5138 38.5512 31.4009C38.6495 31.232 38.5923 31.0154 38.4234 30.9171Z" fill="#033F2D"/>
<path d="M20.1117 30.1541C20.2743 29.8604 20.4441 29.5958 20.6151 29.3596C19.8013 29.5216 18.7916 29.6015 18.1133 29.2317L17.5722 28.9365L17.5901 29.5525C17.5906 29.571 17.6353 31.4508 17.0149 33.8715C16.4463 36.0903 15.1852 39.2347 12.406 41.6136C12.2575 41.7407 12.2402 41.9641 12.3672 42.1125C12.4372 42.1943 12.5364 42.2363 12.6362 42.2363C12.7176 42.2363 12.7994 42.2083 12.8661 42.1512C15.7925 39.6463 17.1133 36.3496 17.7061 34.025C18.1548 32.2654 18.2662 30.8059 18.2919 30.0618C18.8618 30.2248 19.5094 30.2239 20.1117 30.1541Z" fill="#033F2D"/>
<path d="M26.0824 27.5522C31.4786 22.0677 26.0824 17.7332 26.0824 17.7332C26.0824 17.7332 29.7094 18.5293 28.4709 15.3447C28.1687 14.5676 27.7953 14.0122 27.4036 13.6159C27.7467 13.2675 28.3275 12.8746 29.2597 12.7475L29.5961 12.7015L29.4704 12.3861C29.4585 12.3563 28.2957 9.38329 29.4531 7.39915C29.527 7.27255 29.4842 7.11003 29.3576 7.03621C29.2309 6.96229 29.0685 7.00518 28.9946 7.13172C27.9249 8.96558 28.5828 11.42 28.8675 12.2767C27.9605 12.4661 27.3704 12.8863 27.0038 13.2673C26.6456 13.0011 26.287 12.8471 25.9661 12.7605C26.2613 11.2587 25.2863 10.7448 25.2863 10.7448C25.9167 11.447 25.7294 12.2756 25.5763 12.6827C25.115 12.6222 24.7998 12.691 24.7998 12.691C24.7998 12.691 24.4845 12.6222 24.0232 12.6827C23.8701 12.2756 23.6828 11.447 24.3132 10.7448C24.3132 10.7448 23.3382 11.2587 23.6334 12.7605C23.3125 12.847 22.9539 13.0011 22.5957 13.2673C22.2291 12.8863 21.639 12.4661 20.732 12.2767C21.0167 11.42 21.6747 8.96558 20.6049 7.13172C20.531 7.00518 20.3686 6.96229 20.2419 7.03621C20.1153 7.11003 20.0725 7.27255 20.1464 7.39915C21.3038 9.38329 20.141 12.3564 20.1292 12.3861L20.0034 12.7015L20.3398 12.7475C21.272 12.8746 21.8528 13.2675 22.1959 13.6159C21.8041 14.0122 21.4307 14.5676 21.1285 15.3447C19.8901 18.5293 23.517 17.7332 23.517 17.7332C23.517 17.7332 18.1208 22.0677 23.517 27.5522C23.517 27.5522 19.5362 28.8791 19.3593 34.9387C19.1824 40.9982 24.092 43.5193 24.7997 43.9616C25.5074 43.5193 30.417 40.9982 30.2401 34.9387C30.0632 28.8791 26.0824 27.5522 26.0824 27.5522ZM20.9074 38.0495C19.0497 31.6509 23.5318 28.7612 23.5318 28.7612C20.9664 32.1522 20.9074 38.0495 20.9074 38.0495Z" fill="#033F2D"/>
</svg>
